<svg width="556" height="556" viewBox="0 0 556 556" fill="none" xmlns="http://www.w3.org/2000/svg">
<g clip-path="url(#clip0_1089_2369)">
<path d="M7.48401 455.55C23.8527 495.341 62.0017 514.196 86.3876 526.274C182.528 573.782 328.577 568.213 433.671 481.719C458.257 461.455 579.519 355.435 551.191 211.771C526.204 84.816 400.666 11.0719 294.904 1.20803C207.315 -6.91121 92.9351 25.096 52.5145 102.531C27.1264 151.246 57.659 166.747 36.8808 277.128C18.9755 372.68 -12.4924 406.902 7.48401 455.55Z" fill="url(#paint0_linear_1089_2369)" fill-opacity="0.2"/>
<path d="M157.541 71.3288L508.231 70.3894C516.048 70.3894 522.261 75.8917 521.526 82.3334L501.016 410.659C500.414 416.296 494.602 420.657 487.72 420.657H472.354L469.147 418.98L28.6629 420.59C20.846 420.59 14.5658 414.484 15.3007 408.042L35.8117 81.2598C36.413 75.6233 41.9583 70.6578 48.9066 70.6578L157.541 71.3288Z" fill="#0152DD"/>
<path d="M142.842 70.188H492.597C500.414 70.188 506.561 75.7574 505.893 82.1991L485.515 410.525C484.914 416.229 479.168 420.59 472.22 420.59H14.2982C6.48137 420.59 0.334765 415.021 1.00287 408.579L21.3802 80.2532C21.9815 74.5496 27.7272 70.188 34.6756 70.188H142.842Z" fill="#99B9FF"/>
<path d="M149.723 84.9504H475.226C482.508 84.9504 488.254 90.0501 487.586 95.8879L468.611 395.964C468.01 401.131 462.665 405.157 456.251 405.157H30.1317C22.8493 405.157 17.1035 400.057 17.7717 394.22L36.7459 94.1433C37.3472 88.9765 42.6921 84.9504 49.106 84.9504H149.723Z" fill="#CADDFF"/>
<path d="M49.5074 421.597H14.2981C9.75492 421.597 5.54583 419.852 2.80659 416.765C0.668641 414.417 -0.333522 411.464 0.000532269 408.445L20.3778 80.119C20.9791 74.5496 25.99 70.0539 32.5374 69.2486C33.0719 69.1815 33.6064 69.5842 33.6732 70.121C33.74 70.6578 33.3391 71.1946 32.8047 71.2617C27.1926 71.9327 22.9167 75.6904 22.3822 80.3203L2.07167 408.646C1.80443 411.062 2.60616 413.477 4.34324 415.423C6.68162 418.04 10.3562 419.584 14.2981 419.584H49.4406C49.9751 419.584 50.4427 420.053 50.4427 420.59C50.5095 421.194 50.0419 421.597 49.5074 421.597Z" fill="black"/>
<path d="M210.254 421.597H161.281C160.747 421.597 160.279 421.127 160.279 420.59C160.279 420.053 160.747 419.584 161.281 419.584H210.254C210.788 419.584 211.256 420.053 211.256 420.59C211.256 421.194 210.788 421.597 210.254 421.597Z" fill="black"/>
<path d="M498.477 202.109C497.876 202.042 497.408 201.572 497.475 201.035L504.824 82.1321C504.891 81.5953 505.359 81.1256 505.893 81.1927C506.428 81.2598 506.895 81.7295 506.829 82.2663L499.479 201.17C499.479 201.706 499.012 202.109 498.477 202.109Z" fill="black"/>
<path d="M291.364 71.1946H201.035C200.501 71.1946 200.033 70.7248 200.033 70.188C200.033 69.6512 200.501 69.1815 201.035 69.1815H291.364C291.898 69.1815 292.366 69.6512 292.366 70.188C292.366 70.7919 291.898 71.1946 291.364 71.1946Z" fill="black"/>
<path d="M464.536 310.209H402.87C400.264 310.209 398.193 307.994 398.326 305.377C398.46 302.962 400.464 301.083 402.87 301.083H464.536C467.142 301.083 469.213 303.297 469.079 305.914C468.945 308.33 466.941 310.209 464.536 310.209Z" fill="#CADDFF"/>
<path d="M286.218 310.209H259.561C256.955 310.209 254.884 307.994 255.018 305.377C255.151 302.962 257.156 301.083 259.561 301.083H286.218C288.824 301.083 290.895 303.297 290.762 305.914C290.628 308.33 288.624 310.209 286.218 310.209Z" fill="#CADDFF"/>
<path d="M460.595 366.842H433.938C431.332 366.842 429.261 364.628 429.395 362.011C429.528 359.595 431.533 357.716 433.938 357.716H460.595C463.201 357.716 465.272 359.931 465.139 362.548C465.005 364.963 463.001 366.842 460.595 366.842Z" fill="#CADDFF"/>
<path d="M463.268 328.796H382.36C379.754 328.796 377.683 326.582 377.817 323.965C377.95 321.549 379.955 319.67 382.36 319.67H463.268C465.873 319.67 467.944 321.885 467.811 324.501C467.677 326.917 465.673 328.796 463.268 328.796Z" fill="#CADDFF"/>
<path d="M462.065 347.383H381.157C378.551 347.383 376.48 345.168 376.614 342.551C376.747 340.136 378.751 338.257 381.157 338.257H462.065C464.67 338.257 466.741 340.471 466.608 343.088C466.474 345.504 464.47 347.383 462.065 347.383Z" fill="#CADDFF"/>
<path d="M126.341 215.663H60.666L62.069 198.62H127.744L126.341 215.663Z" fill="#94BFFF"/>
<path d="M399.997 216.402H166.627L167.963 199.358H401.4L399.997 216.402Z" fill="#94BFFF"/>
<path d="M118.79 300.613H53.1152L54.5183 283.503H120.193L118.79 300.613Z" fill="#94BFFF"/>
<path d="M392.449 301.352H159.078L160.414 284.308H393.852L392.449 301.352Z" fill="#94BFFF"/>
<path d="M110.64 384.02H44.9648L46.3011 366.976H111.976L110.64 384.02Z" fill="#94BFFF"/>
<path d="M384.297 384.758H150.859L152.262 367.714H385.633L384.297 384.758Z" fill="#94BFFF"/>
<path d="M225.153 245.255H164.021L165.358 228.144H226.556L225.153 245.255Z" fill="#94BFFF"/>
<path d="M450.841 245.993H233.572L234.975 228.949H452.244L450.841 245.993Z" fill="#94BFFF"/>
<path d="M222.148 273.303H161.016L162.352 256.192H223.551L222.148 273.303Z" fill="#94BFFF"/>
<path d="M447.833 274.041H230.564L231.967 256.998H449.236L447.833 274.041Z" fill="#94BFFF"/>
<path d="M132.954 133.129H67.2793L68.6155 116.085H134.291L132.954 133.129Z" fill="#94BFFF"/>
<path d="M406.613 133.934H173.176L174.579 116.823H407.949L406.613 133.934Z" fill="#94BFFF"/>
<path d="M231.769 162.72H170.637L171.973 145.677H233.105L231.769 162.72Z" fill="#94BFFF"/>
<path d="M457.454 163.458H240.186L241.522 146.415H458.791L457.454 163.458Z" fill="#94BFFF"/>
<path d="M228.761 190.769H167.629L168.965 173.725H230.097L228.761 190.769Z" fill="#94BFFF"/>
<path d="M454.449 191.574H237.18L238.516 174.463H455.785L454.449 191.574Z" fill="#94BFFF"/>
<path d="M217.671 329.4H156.539L157.875 312.356H219.074L217.671 329.4Z" fill="#94BFFF"/>
<path d="M443.359 330.205H226.09L227.426 313.094H444.762L443.359 330.205Z" fill="#94BFFF"/>
<path d="M214.665 357.448H153.533L154.869 340.404H216.068L214.665 357.448Z" fill="#94BFFF"/>
<path d="M440.351 358.253H223.082L224.485 341.142H441.754L440.351 358.253Z" fill="#94BFFF"/>
<path d="M95.7389 86.8288V81.2594L89.8596 79.9174C89.6591 78.6425 89.3251 77.3676 88.8574 76.1598L93.3337 72.0666L90.5945 67.2353L84.8488 68.9799C84.047 67.9734 83.1117 67.1011 82.1095 66.2288L83.9134 60.4581L79.1698 57.6398L75.0276 62.0685C73.825 61.5988 72.5556 61.2633 71.2861 61.062L69.9499 55.1571H64.4046L63.0684 61.062C61.799 61.2633 60.5296 61.5988 59.327 62.0685L55.2515 57.5727L50.5748 60.391L52.3119 66.1617C51.3097 66.9669 50.4412 67.9063 49.5726 68.9128L43.8269 67.1011L41.0208 71.8653L45.4303 76.0256C44.9627 77.2334 44.6286 78.5083 44.4282 79.7832L38.5488 81.1252V86.6946L44.4282 88.0367C44.6286 89.3116 44.9627 90.5865 45.4303 91.7943L40.954 95.8875L43.6933 100.719L49.439 98.9742C50.2407 99.9807 51.1761 100.853 52.1782 101.725L50.3744 107.496L55.1179 110.314L59.2602 105.886C60.4628 106.355 61.7322 106.691 63.0016 106.892L64.3378 112.797H69.8831L71.2193 106.892C72.4887 106.691 73.7581 106.355 74.9607 105.886L79.0362 110.381L83.8466 107.63L82.1095 101.86C83.1117 101.054 83.9802 100.115 84.8488 99.1083L90.5945 100.92L93.4005 96.1559L88.8574 91.9285C89.3251 90.7207 89.6591 89.4458 89.8596 88.1709L95.7389 86.8288ZM67.1439 98.236C59.2602 98.1689 52.9132 91.7943 52.98 83.8764C53.0468 75.9585 59.3938 69.5839 67.2775 69.651C75.1612 69.7181 81.5082 76.0927 81.4414 84.0106C81.3746 91.9285 74.9607 98.3031 67.1439 98.236Z" fill="url(#paint1_linear_1089_2369)"/>
<path d="M67.8794 111.79H62.3341C61.8665 111.79 61.4656 111.455 61.332 110.985L60.1962 105.684C59.3276 105.483 58.4591 105.282 57.5906 105.013L53.916 108.972C53.5819 109.308 53.1142 109.375 52.6466 109.173L47.903 106.355C47.5021 106.087 47.3017 105.617 47.4353 105.215L49.0388 100.048C48.3707 99.4438 47.7694 98.8399 47.1681 98.1689L42.0236 99.7793C41.5559 99.9135 41.0883 99.7122 40.8878 99.3096L38.1486 94.4783C37.9482 94.0757 38.015 93.5389 38.349 93.2034L42.2909 89.58C42.0236 88.7076 41.8232 87.8353 41.6228 86.963L36.3447 85.7552C35.877 85.621 35.543 85.2184 35.543 84.7487V79.1793C35.543 78.7096 35.877 78.307 36.3447 78.1728L41.6228 77.032C41.8232 76.1597 42.0236 75.2874 42.2909 74.4151L38.349 70.7245C38.015 70.389 37.9482 69.9193 38.1486 69.4496L40.9546 64.6854C41.2219 64.2828 41.6896 64.0815 42.0904 64.2157L47.2349 65.8262C47.8362 65.1551 48.4375 64.5512 49.1056 63.9473L47.5021 58.7805C47.3685 58.3108 47.5689 57.8411 47.9698 57.6398L52.7802 54.8887C53.181 54.6874 53.7155 54.7545 54.0496 55.09L57.6574 59.0489C58.5259 58.7805 59.3944 58.5792 60.263 58.3779L61.4656 53.0769C61.5992 52.6072 62.0001 52.2717 62.4677 52.2717H68.0131C68.4807 52.2717 68.8816 52.6072 69.0152 53.0769L70.151 58.3779C71.0195 58.5792 71.8881 58.7805 72.7566 59.0489L76.4312 55.09C76.7653 54.7545 77.233 54.6874 77.7006 54.8887L82.4442 57.7069C82.8451 57.9753 83.0455 58.445 82.9119 58.8476L81.3084 64.0144C81.9765 64.6183 82.5778 65.2222 83.1791 65.8933L88.3236 64.2828C88.7912 64.1486 89.2589 64.3499 89.4593 64.7525L92.1986 69.5838C92.399 69.9864 92.3322 70.5232 91.9982 70.8587L88.0563 74.4822C88.3236 75.3545 88.524 76.2268 88.7244 77.0991L94.0025 78.307C94.4702 78.4412 94.8042 78.8438 94.8042 79.3135V84.8829C94.8042 85.3526 94.4702 85.7552 94.0025 85.8894L88.7244 87.0301C88.524 87.9024 88.3236 88.7747 88.0563 89.6471L91.9982 93.3376C92.3322 93.6731 92.399 94.1428 92.1986 94.6125L89.3925 99.3767C89.1253 99.7793 88.6576 99.9806 88.2568 99.8464L83.1123 98.236C82.511 98.907 81.9097 99.5109 81.2416 100.115L82.8451 105.282C82.9787 105.751 82.7783 106.221 82.3774 106.422L77.567 109.173C77.1661 109.375 76.6317 109.308 76.2976 108.972L72.6898 105.013C71.8213 105.282 70.9527 105.483 70.0842 105.684L68.8816 110.985C68.8148 111.455 68.3471 111.79 67.8794 111.79ZM63.2027 109.71H67.1445L68.3471 104.611C68.4139 104.208 68.748 103.94 69.1488 103.873C70.3514 103.671 71.554 103.336 72.6898 102.933C73.0907 102.799 73.4915 102.933 73.7588 103.201L77.2998 107.093L80.7071 105.147L79.1705 100.115C79.0368 99.7122 79.1705 99.3096 79.5045 99.0412C80.4399 98.236 81.3084 97.3637 82.1101 96.4243C82.3774 96.0888 82.7783 96.0217 83.1791 96.0888L88.1899 97.6992L90.1943 94.277L86.386 90.7207C86.1188 90.4523 85.9852 90.0497 86.1188 89.6471C86.5197 88.5063 86.8537 87.2985 87.0542 86.0907C87.121 85.6881 87.455 85.3526 87.8559 85.2855L93.0003 84.1448V80.1858L87.9227 78.978C87.5218 78.9109 87.2546 78.5754 87.1878 78.1728C86.9873 76.9649 86.6533 75.7571 86.2524 74.6164C86.1188 74.2138 86.2524 73.8112 86.5197 73.5428L90.3947 69.9864L88.4572 66.5643L83.4464 68.1076C83.0455 68.2418 82.6446 68.1076 82.3774 67.7721C81.5757 66.8327 80.7071 65.9604 79.7718 65.1551C79.4377 64.8867 79.3709 64.4841 79.4377 64.0815L80.8407 59.0489L77.4334 57.0359L73.8924 60.8607C73.6252 61.1291 73.2243 61.2633 72.8234 61.1291C71.6876 60.7265 70.4851 60.391 69.2825 60.1897C68.8816 60.1226 68.5475 59.7871 68.4807 59.3844L67.3449 54.2177H63.4031L62.2005 59.3173C62.1337 59.72 61.7996 59.9884 61.3988 60.0555C60.1962 60.2568 58.9936 60.5923 57.8578 60.9949C57.4569 61.1291 57.0561 60.9949 56.7888 60.7265L53.2478 56.8346L49.8405 58.7805L51.3771 63.8131C51.5108 64.2157 51.3771 64.6183 51.0431 64.8867C50.1077 65.692 49.2392 66.5643 48.4375 67.5037C48.1702 67.8392 47.7694 67.9063 47.3685 67.8392L42.3577 66.2288L40.3534 69.6509L44.1616 73.2073C44.4288 73.4757 44.5624 73.8783 44.4288 74.2809C44.0279 75.4216 43.6939 76.6294 43.4935 77.8373C43.4267 78.2399 43.0926 78.5754 42.6917 78.6425L37.5473 79.7832V83.7422L42.6249 84.95C43.0258 85.0171 43.293 85.3526 43.3598 85.7552C43.5603 86.963 43.8943 88.1708 44.2952 89.3116C44.4288 89.7142 44.2952 90.1168 44.0279 90.3852L40.1529 93.9415L42.0904 97.3637L47.1012 95.8204C47.5021 95.6862 47.903 95.8204 48.1702 96.1559C48.972 97.0953 49.8405 97.9676 50.7758 98.7728C51.1099 99.0412 51.1767 99.4438 51.1099 99.8464L49.5064 104.879L52.9138 106.892L56.4548 103.067C56.722 102.799 57.1229 102.665 57.5237 102.799C58.6595 103.201 59.8621 103.537 61.0647 103.738C61.4656 103.805 61.7996 104.141 61.8664 104.544L63.2027 109.71ZM65.2738 97.2966H65.207C61.1315 97.2966 57.3233 95.6862 54.4504 92.8008C51.5776 89.9155 50.0409 86.0236 50.0409 81.9304C50.0409 77.8373 51.6444 74.0125 54.5173 71.1271C57.3901 68.2418 61.2652 66.6985 65.3406 66.6985C69.4161 66.6985 73.2243 68.3089 76.0972 71.1942C78.97 74.0796 80.5067 77.9715 80.5067 82.0646C80.5067 86.1578 78.9032 89.9826 76.0304 92.8679C73.0907 95.7533 69.2825 97.2966 65.2738 97.2966ZM65.207 95.2836C65.207 95.2836 65.2738 95.2836 65.207 95.2836C68.748 95.2836 72.0885 93.9415 74.5605 91.4588C77.0993 88.976 78.4356 85.621 78.5024 82.0646C78.5024 78.5083 77.1661 75.1532 74.6941 72.6705C72.2221 70.1206 68.8816 68.7786 65.3406 68.7115H65.2738C61.7328 68.7115 58.4591 70.0535 55.9871 72.5363C53.4483 75.019 52.1121 78.3741 52.0453 81.9304C52.0453 85.4868 53.3815 88.8419 55.8535 91.3246C58.3923 93.8744 61.666 95.2836 65.207 95.2836Z" fill="black"/>
<path d="M197.091 58.6463L197.158 49.1179L187.069 46.7694C186.668 44.5551 186.134 42.4078 185.399 40.3948L193.015 33.4163L188.339 25.1628L178.451 28.1824C177.048 26.5049 175.511 24.8944 173.841 23.4853L176.981 13.5543L168.83 8.79016L161.815 16.3726C159.744 15.6345 157.672 15.0306 155.468 14.628L153.263 4.49569L143.776 4.42859L141.437 14.5609C139.233 14.9635 137.095 15.5003 135.09 16.2384L128.142 8.58886L119.924 13.2859L122.931 23.2169C121.26 24.626 119.657 26.1694 118.254 27.8469L108.433 24.6931L103.556 33.0137L111.105 40.0593C110.37 42.1394 109.769 44.2196 109.368 46.4339L99.2797 48.6482L99.2129 58.1766L109.301 60.5251C109.702 62.7395 110.237 64.8867 110.972 66.8997L103.355 73.8783L108.032 82.1317L117.92 79.1122C119.323 80.7897 120.86 82.4001 122.53 83.8092L119.39 93.6731L127.541 98.4373L134.556 90.8549C136.627 91.593 138.698 92.1969 140.903 92.5995L143.108 102.732L152.595 102.799L154.933 92.6666C157.138 92.264 159.276 91.7272 161.28 90.9891L168.229 98.6386L176.446 93.9415L173.44 84.0105C175.11 82.6014 176.713 81.0581 178.117 79.3806L188.005 82.5343L192.748 74.348L185.198 67.3024C185.933 65.2222 186.535 63.1421 186.936 60.9277L197.091 58.6463ZM148.118 78.1056C134.689 78.0385 123.799 67.034 123.866 53.5466C123.933 40.0593 134.89 29.1218 148.319 29.1889C161.748 29.256 172.638 40.2606 172.571 53.7479C172.504 67.3024 161.547 78.1727 148.118 78.1056Z" fill="url(#paint2_linear_1089_2369)"/>
<path d="M149.455 100.517L139.968 100.45C139.5 100.45 139.099 100.115 138.965 99.6452L136.894 90.1839C135.09 89.8484 133.353 89.3787 131.683 88.7748L125.069 95.8875C124.735 96.223 124.267 96.2901 123.799 96.0888L115.648 91.3246C115.248 91.0562 115.047 90.5865 115.181 90.1839L118.12 80.924C116.784 79.7161 115.515 78.4412 114.312 77.0321L105.092 79.8503C104.625 79.9845 104.157 79.7832 103.957 79.3806L99.2798 71.1272C99.0794 70.7246 99.1462 70.1878 99.4802 69.8523L106.629 63.2764C106.028 61.5988 105.627 59.7871 105.226 57.9754L95.8056 55.8281C95.338 55.6939 95.0039 55.2913 95.0039 54.8216L95.0707 45.2933C95.0707 44.8235 95.4048 44.4209 95.8724 44.2867L105.293 42.2066C105.627 40.3949 106.095 38.6502 106.696 36.9727L99.547 30.3968C99.213 30.0613 99.1462 29.5916 99.3466 29.1219L104.09 20.9355C104.357 20.5329 104.825 20.3316 105.226 20.4658L114.446 23.4183C115.648 22.0763 116.918 20.8013 118.321 19.5935L115.582 10.3336C115.448 9.86386 115.648 9.39415 116.049 9.19285L124.267 4.49577C124.668 4.29446 125.202 4.36156 125.536 4.69707L132.084 11.8769C133.754 11.273 135.558 10.8704 137.362 10.4678L139.5 1.00651C139.634 0.5368 140.034 0.201294 140.502 0.201294L149.989 0.268395C150.457 0.268395 150.858 0.603901 150.991 1.07361L153.063 10.5349C154.866 10.8704 156.604 11.3401 158.274 11.944L164.888 4.83127C165.222 4.49577 165.69 4.42867 166.157 4.62997L174.308 9.39415C174.709 9.66255 174.91 10.1323 174.776 10.5349L171.703 19.8619C173.039 21.0697 174.308 22.3447 175.511 23.7538L184.731 20.9355C185.199 20.8013 185.666 21.0026 185.867 21.4053L190.543 29.6587C190.744 30.0613 190.677 30.5981 190.343 30.9336L183.194 37.5095C183.796 39.1871 184.196 40.9988 184.597 42.8105L194.018 44.9578C194.485 45.092 194.819 45.4946 194.819 45.9643L194.753 55.4926C194.753 55.9623 194.418 56.3649 193.951 56.4991L184.597 58.378C184.263 60.1897 183.796 61.9343 183.194 63.6119L190.276 70.2549C190.61 70.5904 190.677 71.0601 190.477 71.5298L185.733 79.7161C185.466 80.1188 184.998 80.3201 184.597 80.1859L175.377 77.2334C174.175 78.5754 172.905 79.8503 171.502 81.0582L174.308 90.3181C174.442 90.7878 174.242 91.2575 173.841 91.4588L165.623 96.1559C165.222 96.3572 164.688 96.2901 164.354 95.9546L157.806 88.7748C156.136 89.3787 154.332 89.7813 152.528 90.1839L150.39 99.6452C150.323 100.182 149.922 100.517 149.455 100.517ZM140.769 98.4374L148.653 98.5045L150.791 89.1774C150.858 88.7748 151.192 88.5064 151.593 88.4393C153.731 88.0367 155.802 87.4999 157.806 86.8289C158.207 86.6947 158.608 86.8289 158.875 87.0973L165.289 94.1429L172.104 90.251L169.298 81.1253C169.164 80.7227 169.298 80.3201 169.632 80.0517C171.235 78.6425 172.772 77.1663 174.175 75.4888C174.442 75.1533 174.843 75.0862 175.244 75.1533L184.33 78.0386L188.272 71.1943L181.324 64.6855C181.056 64.4171 180.923 64.0145 181.056 63.6119C181.791 61.5988 182.326 59.5187 182.727 57.3715C182.793 56.9689 183.127 56.6334 183.528 56.5662L192.815 54.4861L192.882 46.5682L183.595 44.4209C183.194 44.3538 182.927 44.0183 182.86 43.6157C182.459 41.4685 181.925 39.3884 181.257 37.3753C181.123 36.9727 181.257 36.5701 181.524 36.3017L188.539 29.86L184.664 23.0157L175.578 25.8339C175.177 25.9681 174.776 25.8339 174.509 25.4984C173.106 23.888 171.636 22.3447 169.966 20.9355C169.632 20.6671 169.565 20.2645 169.632 19.8619L172.505 10.7362L165.69 6.77721L159.209 13.7557C158.942 14.0241 158.541 14.1583 158.14 14.0241C156.136 13.286 154.065 12.7492 151.927 12.3466C151.526 12.2795 151.192 11.944 151.125 11.5414L149.054 2.21433L141.17 2.14723L139.032 11.4743C138.965 11.8769 138.631 12.1453 138.231 12.2124C136.093 12.615 134.021 13.1518 132.017 13.8228C131.616 13.957 131.215 13.8228 130.948 13.5544L124.534 6.5088L117.72 10.4007L120.526 19.5264C120.659 19.929 120.526 20.3316 120.192 20.6C118.521 22.0092 117.051 23.4854 115.648 25.1629C115.381 25.4984 114.98 25.5655 114.579 25.4984L105.493 22.6131L101.551 29.5245L108.5 36.0333C108.767 36.3017 108.901 36.7043 108.767 37.1069C108.032 39.12 107.498 41.2001 107.097 43.3473C107.03 43.7499 106.696 44.0854 106.295 44.1525L97.0082 46.2327L96.9414 54.1506L106.228 56.2978C106.629 56.3649 106.896 56.7005 106.963 57.1031C107.364 59.2503 107.898 61.3304 108.567 63.3435C108.7 63.7461 108.567 64.1487 108.299 64.4171L101.284 70.8588L105.159 77.7031L114.245 74.8849C114.646 74.7507 115.047 74.8849 115.314 75.2204C116.717 76.8308 118.187 78.3741 119.858 79.7832C120.192 80.0517 120.258 80.4543 120.192 80.8569L117.319 89.9826L124.133 93.9416L130.614 86.9631C130.881 86.6947 131.282 86.5605 131.683 86.6947C133.687 87.4328 135.759 87.9696 137.896 88.3722C138.297 88.4393 138.631 88.7748 138.698 89.1774L140.769 98.4374ZM144.912 75.8243C144.845 75.8243 144.845 75.8243 144.778 75.8243C138.03 75.8243 131.616 73.1402 126.873 68.309C122.129 63.4777 119.523 57.1031 119.523 50.2587C119.523 43.4815 122.196 37.0398 127.006 32.2756C131.817 27.5115 138.164 24.8945 144.978 24.8945C158.942 24.9616 170.3 36.4359 170.233 50.46C170.233 64.4171 158.875 75.8243 144.912 75.8243ZM144.845 73.8112C144.912 73.8112 144.912 73.8112 144.978 73.8112C157.806 73.8112 168.295 63.3435 168.295 50.46C168.362 37.5095 157.94 26.9746 145.045 26.9075C144.978 26.9075 144.978 26.9075 144.912 26.9075C138.698 26.9075 132.886 29.3232 128.476 33.6848C124.067 38.1134 121.595 43.9512 121.595 50.2587C121.595 56.4991 124 62.404 128.343 66.8998C132.752 71.3285 138.565 73.7441 144.845 73.8112Z" fill="black"/>
<path d="M491.128 19.2581H309.536C304.926 19.2581 300.918 23.1499 300.517 27.847L293.903 111.187C293.502 115.951 296.976 119.776 301.519 119.776H483.111C487.721 119.776 491.73 115.884 492.13 111.187L498.745 27.847C499.146 23.0828 495.738 19.2581 491.128 19.2581Z" fill="white"/>
<path d="M483.11 120.849H301.519C299.047 120.849 296.842 119.843 295.171 118.098C293.501 116.219 292.633 113.804 292.833 111.12L299.447 27.7801C299.848 22.5462 304.391 18.2517 309.469 18.2517H491.061C493.533 18.2517 495.738 19.2582 497.408 21.0029C499.078 22.8817 499.947 25.2973 499.746 27.9814L493.132 111.321C492.731 116.555 488.255 120.849 483.11 120.849ZM309.536 20.2647C305.46 20.2647 301.853 23.6869 301.519 27.9814L294.904 111.321C294.771 113.401 295.372 115.347 296.708 116.756C297.978 118.098 299.648 118.836 301.585 118.836H483.177C487.253 118.836 490.861 115.414 491.195 111.12L497.809 27.7801C497.942 25.6999 497.341 23.754 496.005 22.3449C494.736 21.0029 493.065 20.2647 491.128 20.2647H309.536Z" fill="black"/>
<path d="M491.662 34.4228H306.662C306.128 34.4228 305.66 33.9531 305.66 33.4163C305.66 32.8795 306.128 32.4098 306.662 32.4098H491.662C492.196 32.4098 492.664 32.8795 492.664 33.4163C492.664 33.9531 492.196 34.4228 491.662 34.4228Z" fill="#CADDFF"/>
<path d="M315.481 25.9011C315.414 27.1089 314.345 28.1154 313.142 28.1154C311.94 28.1154 311.071 27.1089 311.205 25.9011C311.272 24.6933 312.341 23.6868 313.543 23.6868C314.746 23.6868 315.614 24.6262 315.481 25.9011Z" fill="#CADDFF"/>
<path d="M324.034 25.9011C323.967 27.1089 322.898 28.1154 321.695 28.1154C320.493 28.1154 319.624 27.1089 319.758 25.9011C319.825 24.6933 320.893 23.6868 322.096 23.6868C323.299 23.6868 324.167 24.6262 324.034 25.9011Z" fill="#CADDFF"/>
<path d="M332.584 25.9011C332.518 27.1089 331.449 28.1154 330.246 28.1154C329.043 28.1154 328.175 27.1089 328.308 25.9011C328.375 24.6933 329.444 23.6868 330.647 23.6868C331.783 23.6868 332.718 24.6262 332.584 25.9011Z" fill="#CADDFF"/>
<path d="M492.263 26.505H480.504C479.97 26.505 479.502 26.0353 479.502 25.4985C479.502 24.9617 479.97 24.4919 480.504 24.4919H492.263C492.797 24.4919 493.265 24.9617 493.265 25.4985C493.265 26.1024 492.797 26.505 492.263 26.505Z" fill="#CADDFF"/>
<path d="M474.958 26.505H361.313C360.778 26.505 360.311 26.0353 360.311 25.4985C360.311 24.9617 360.778 24.4919 361.313 24.4919H474.958C475.493 24.4919 475.96 24.9617 475.96 25.4985C475.96 26.1024 475.493 26.505 474.958 26.505Z" fill="#CADDFF"/>
<path d="M348.151 26.505H337.729C337.194 26.505 336.727 26.0353 336.727 25.4985C336.727 24.9617 337.194 24.4919 337.729 24.4919H348.151C348.686 24.4919 349.153 24.9617 349.153 25.4985C349.153 26.1024 348.753 26.505 348.151 26.505Z" fill="#CADDFF"/>
<path d="M362.115 102.665H306.662L311.138 46.7024H366.591L362.115 102.665Z" fill="#CADDFF"/>
<path d="M387.436 58.9149H375.477L376.412 46.5012H388.371L387.436 58.9149Z" fill="#CADDFF"/>
<path d="M484.044 58.8477H396.121L397.056 46.7024H485.046L484.044 58.8477Z" fill="#CADDFF"/>
<path d="M385.633 81.0584H373.674L374.676 68.6447H386.635L385.633 81.0584Z" fill="#CADDFF"/>
<path d="M482.308 81.1253H394.318L395.321 68.9128H483.244L482.308 81.1253Z" fill="#CADDFF"/>
<path d="M383.895 103.202H371.936L372.938 90.7878H384.83L383.895 103.202Z" fill="#CADDFF"/>
<path d="M480.57 102.665H392.58L393.582 90.4525H481.572L480.57 102.665Z" fill="#CADDFF"/>
<path d="M534.955 223.313C534.421 223.313 533.953 222.843 533.953 222.307V217.073C533.953 216.536 534.421 216.066 534.955 216.066C535.49 216.066 535.958 216.536 535.958 217.073V222.307C535.958 222.843 535.49 223.313 534.955 223.313Z" fill="black"/>
<path d="M534.955 235.458C534.421 235.458 533.953 234.989 533.953 234.452V229.218C533.953 228.681 534.421 228.211 534.955 228.211C535.49 228.211 535.958 228.681 535.958 229.218V234.452C535.958 234.989 535.49 235.458 534.955 235.458Z" fill="black"/>
<path d="M531.547 226.802H526.336C525.802 226.802 525.334 226.333 525.334 225.796C525.334 225.259 525.802 224.789 526.336 224.789H531.547C532.082 224.789 532.55 225.259 532.55 225.796C532.55 226.333 532.082 226.802 531.547 226.802Z" fill="black"/>
<path d="M543.573 226.802H538.361C537.827 226.802 537.359 226.333 537.359 225.796C537.359 225.259 537.827 224.789 538.361 224.789H543.573C544.107 224.789 544.575 225.259 544.575 225.796C544.575 226.333 544.174 226.802 543.573 226.802Z" fill="black"/>
<path d="M213.461 28.5181C212.793 28.5181 212.125 28.3839 211.457 28.1155C210.054 27.5787 208.918 26.505 208.317 25.0959C207.114 22.2106 208.383 18.8555 211.189 17.5806C212.526 16.9767 214.062 16.9096 215.465 17.4464C216.868 17.9832 218.004 19.0568 218.605 20.4659C219.808 23.3513 218.539 26.7063 215.733 27.9813C214.998 28.3839 214.196 28.5181 213.461 28.5181ZM213.461 19.1239C212.993 19.1239 212.459 19.2581 212.058 19.4594C210.254 20.2646 209.452 22.479 210.254 24.2907C210.655 25.2301 211.323 25.9011 212.258 26.2366C213.127 26.5721 214.062 26.5721 214.931 26.1695C216.735 25.3643 217.536 23.15 216.735 21.3383C216.334 20.3988 215.666 19.7278 214.73 19.3923C214.33 19.2581 213.862 19.1239 213.461 19.1239Z" fill="black"/>
<path d="M251.408 454.946C257.622 437.969 258.223 410.257 251.408 392.945L256.285 386.906L442.42 391.536L437.811 456.154L255.951 456.959L251.408 454.946Z" fill="white"/>
<path d="M256.019 458.033C255.885 458.033 255.751 458.033 255.618 457.966L251.075 455.886C250.607 455.684 250.34 455.147 250.54 454.611C256.954 437.097 256.954 409.586 250.54 393.347C250.407 393.012 250.473 392.609 250.674 392.341L255.551 386.302C255.751 386.033 256.019 385.899 256.353 385.966L442.488 390.596C442.755 390.596 443.022 390.73 443.223 390.932C443.423 391.133 443.49 391.401 443.49 391.67L438.88 456.288C438.813 456.825 438.412 457.228 437.878 457.228L256.019 458.033ZM252.678 454.409L256.219 456.02L436.942 455.215L441.419 392.609L256.82 387.979L252.611 393.146C258.825 409.586 258.892 436.695 252.678 454.409Z" fill="black"/>
<path d="M525.867 383.685H349.019H248.936C245.997 383.685 243.658 384.423 243.658 388.315C243.658 392.206 245.997 392.945 248.936 392.945H420.306C428.657 392.945 435.472 399.588 435.472 410.659V437.231C435.472 448.303 428.657 454.342 420.306 454.342H248.936C245.997 454.342 243.658 454.543 243.658 458.368C243.658 462.193 245.997 462.998 248.936 462.998H525.867C541.301 462.998 553.861 446.424 553.861 425.958V420.724C553.861 400.259 541.301 383.685 525.867 383.685Z" fill="#BC0F38"/>
<path d="M525.867 464.005H248.936C247.4 464.005 242.656 464.005 242.656 458.368C242.656 453.336 246.464 453.336 248.936 453.336H420.306C428.925 453.336 434.47 447.028 434.47 437.231V410.659C434.47 400.796 428.658 393.951 420.306 393.951H362.782C362.248 393.951 361.78 393.481 361.78 392.945C361.78 392.408 362.248 391.938 362.782 391.938H420.306C429.86 391.938 436.475 399.655 436.475 410.659V437.231C436.475 448.102 429.994 455.349 420.306 455.349H248.936C245.863 455.349 244.661 455.617 244.661 458.368C244.661 461.052 245.796 461.992 248.936 461.992H525.867C540.766 461.992 552.859 445.82 552.859 425.958V420.725C552.859 400.863 540.766 384.691 525.867 384.691H364.118C363.584 384.691 363.116 384.222 363.116 383.685C363.116 383.148 363.584 382.678 364.118 382.678H525.867C541.835 382.678 554.863 399.722 554.863 420.725V426.026C554.863 446.961 541.835 464.005 525.867 464.005Z" fill="black"/>
<path d="M362.782 393.951H248.936C247.4 393.951 242.656 393.951 242.656 388.315C242.656 382.678 247.4 382.678 248.936 382.678H364.118C364.653 382.678 365.121 383.148 365.121 383.685C365.121 384.222 364.653 384.691 364.118 384.691H248.936C245.796 384.691 244.661 385.631 244.661 388.315C244.661 390.999 245.796 391.938 248.936 391.938H362.782C363.317 391.938 363.784 392.408 363.784 392.945C363.784 393.481 363.317 393.951 362.782 393.951Z" fill="black"/>
<path d="M375.409 413.612H357.637C357.102 413.612 356.635 413.142 356.635 412.605C356.635 412.068 357.102 411.599 357.637 411.599H375.409C375.943 411.599 376.411 412.068 376.411 412.605C376.411 413.142 376.01 413.612 375.409 413.612Z" fill="#CADDFF"/>
<path d="M341.402 413.612H264.369C263.835 413.612 263.367 413.142 263.367 412.605C263.367 412.068 263.835 411.599 264.369 411.599H341.402C341.937 411.599 342.404 412.068 342.404 412.605C342.404 413.142 341.937 413.612 341.402 413.612Z" fill="#CADDFF"/>
<path d="M351.356 421.999H264.836C264.302 421.999 263.834 421.53 263.834 420.993C263.834 420.456 264.302 419.986 264.836 419.986H351.356C351.891 419.986 352.358 420.456 352.358 420.993C352.358 421.53 351.958 421.999 351.356 421.999Z" fill="#CADDFF"/>
<path d="M375.609 437.03H364.451C363.917 437.03 363.449 436.56 363.449 436.023C363.449 435.487 363.917 435.017 364.451 435.017H375.609C376.143 435.017 376.611 435.487 376.611 436.023C376.611 436.56 376.21 437.03 375.609 437.03Z" fill="#CADDFF"/>
<path d="M350.889 437.03H264.369C263.835 437.03 263.367 436.56 263.367 436.023C263.367 435.487 263.835 435.017 264.369 435.017H350.889C351.424 435.017 351.892 435.487 351.892 436.023C351.892 436.56 351.491 437.03 350.889 437.03Z" fill="#CADDFF"/>
<path d="M260.094 513.324H505.156V468.031H260.094C266.574 483.33 266.708 498.427 260.094 513.324Z" fill="white"/>
<path d="M505.222 514.33H260.093C259.759 514.33 259.425 514.129 259.224 513.861C259.024 513.592 259.024 513.19 259.158 512.921C265.505 498.562 265.505 483.598 259.158 468.433C259.024 468.098 259.091 467.762 259.224 467.494C259.425 467.225 259.692 467.024 260.093 467.024H505.155C505.69 467.024 506.157 467.494 506.157 468.031V513.324C506.224 513.861 505.756 514.33 505.222 514.33ZM261.63 512.317H504.22V469.037H261.63C267.442 483.799 267.442 498.36 261.63 512.317Z" fill="black"/>
<path d="M478.965 470.312H258.623C256.285 470.312 254.414 468.701 254.414 466.756C254.414 464.81 256.285 463.199 258.623 463.199H536.49C546.712 463.199 554.996 470.245 554.996 478.901V503.527C554.996 512.183 546.712 519.229 536.49 519.229H258.623C256.285 519.229 254.414 517.618 254.414 515.672C254.414 513.726 256.285 512.116 258.623 512.116H478.965C486.181 512.116 492.06 507.15 492.06 501.044V481.451C491.993 475.277 486.181 470.312 478.965 470.312Z" fill="#99B9FF"/>
<path d="M536.49 520.168H258.623C255.751 520.168 253.412 518.088 253.412 515.605C253.412 513.123 255.751 511.042 258.623 511.042H478.966C485.647 511.042 491.058 506.547 491.058 500.977V481.384C491.058 475.814 485.647 471.319 478.966 471.319H258.623C255.751 471.319 253.412 469.238 253.412 466.756C253.412 464.273 255.751 462.193 258.623 462.193H536.49C547.246 462.193 555.998 469.708 555.998 478.901V503.527C555.998 512.653 547.246 520.168 536.49 520.168ZM258.623 513.056C256.886 513.056 255.416 514.196 255.416 515.605C255.416 517.015 256.886 518.155 258.623 518.155H536.49C546.11 518.155 553.994 511.579 553.994 503.46V478.834C553.994 470.715 546.177 464.139 536.49 464.139H258.623C256.886 464.139 255.416 465.28 255.416 466.689C255.416 468.098 256.886 469.238 258.623 469.238H478.966C486.716 469.238 493.063 474.674 493.063 481.317V500.91C493.063 507.553 486.782 512.988 478.966 512.988H258.623V513.056Z" fill="black"/>
<path d="M327.373 479.84H274.592C274.058 479.84 273.59 479.37 273.59 478.834C273.59 478.297 274.058 477.827 274.592 477.827H327.373C327.907 477.827 328.375 478.297 328.375 478.834C328.375 479.37 327.907 479.84 327.373 479.84Z" fill="#99B9FF"/>
<path d="M463.532 479.84H405.006C404.472 479.84 404.004 479.37 404.004 478.834C404.004 478.297 404.472 477.827 405.006 477.827H463.532C464.067 477.827 464.535 478.297 464.535 478.834C464.535 479.37 464.067 479.84 463.532 479.84Z" fill="#99B9FF"/>
<path d="M331.849 489.369H275.26C274.725 489.369 274.258 488.899 274.258 488.362C274.258 487.825 274.725 487.355 275.26 487.355H331.849C332.383 487.355 332.851 487.825 332.851 488.362C332.851 488.966 332.45 489.369 331.849 489.369Z" fill="#99B9FF"/>
<path d="M472.218 489.369H399.528C398.993 489.369 398.525 488.899 398.525 488.362C398.525 487.825 398.993 487.355 399.528 487.355H472.218C472.752 487.355 473.22 487.825 473.22 488.362C473.22 488.966 472.752 489.369 472.218 489.369Z" fill="#99B9FF"/>
<path d="M381.155 502.587H275.326C274.792 502.587 274.324 502.118 274.324 501.581C274.324 501.044 274.792 500.574 275.326 500.574H381.222C381.756 500.574 382.224 501.044 382.224 501.581C382.224 502.118 381.756 502.587 381.155 502.587Z" fill="#99B9FF"/>
<path d="M471.952 502.587H404.139C403.604 502.587 403.137 502.118 403.137 501.581C403.137 501.044 403.604 500.574 404.139 500.574H471.952C472.486 500.574 472.954 501.044 472.954 501.581C472.954 502.118 472.486 502.587 471.952 502.587Z" fill="#99B9FF"/>
<path d="M323.365 382.208C323.365 382.208 336.327 387.04 341.404 382.947C346.482 378.853 333.521 372.009 330.514 372.479C327.374 373.083 323.365 382.208 323.365 382.208Z" fill="black"/>
<path d="M258.291 486.081L270.517 507.486L277.065 498.36L266.442 477.425L258.291 486.081Z" fill="white"/>
<path d="M270.518 508.493C270.451 508.493 270.451 508.493 270.518 508.493C270.117 508.493 269.85 508.291 269.649 507.956L257.49 486.551C257.289 486.148 257.356 485.678 257.623 485.343L265.774 476.687C265.975 476.418 266.309 476.351 266.643 476.351C266.977 476.418 267.244 476.62 267.378 476.888L278.001 497.757C278.201 498.092 278.134 498.495 277.934 498.83L271.319 508.023C271.119 508.358 270.785 508.493 270.518 508.493ZM259.561 486.282L270.585 505.674L275.929 498.293L266.175 479.237L259.561 486.282Z" fill="black"/>
<path d="M266.241 504.265C269.448 510.908 277.599 527.012 285.416 534.796C287.353 536.675 290.56 535.803 291.228 533.186C293.7 523.859 295.304 504.467 286.151 489.167C286.151 489.167 281.808 488.631 273.724 490.174L275.528 497.824L274.526 497.085C273.056 496.012 270.985 496.079 269.582 497.287L267.243 499.3C265.907 500.575 265.439 502.588 266.241 504.265Z" fill="black"/>
<path d="M286.752 532.985C286.618 532.985 286.484 532.985 286.418 532.918C285.883 532.717 285.616 532.113 285.816 531.643C292.698 513.391 283.411 491.852 283.277 491.651C283.077 491.114 283.277 490.577 283.812 490.309C284.346 490.107 284.881 490.308 285.148 490.845C285.549 491.785 294.903 513.324 287.687 532.381C287.487 532.717 287.152 532.985 286.752 532.985Z" fill="white"/>
<path d="M270.986 514.532C270.652 514.532 270.318 514.398 270.117 514.062C269.783 513.593 269.917 512.989 270.384 512.653L276.464 508.694C276.932 508.359 277.533 508.493 277.867 508.963C278.201 509.432 278.068 510.036 277.6 510.372L271.52 514.331C271.387 514.465 271.186 514.532 270.986 514.532Z" fill="white"/>
<path d="M274.057 519.967C273.723 519.967 273.456 519.833 273.256 519.564C272.922 519.095 272.988 518.491 273.456 518.155L279.068 513.861C279.536 513.525 280.137 513.592 280.471 514.062C280.805 514.532 280.739 515.136 280.271 515.471L274.659 519.766C274.458 519.9 274.258 519.967 274.057 519.967Z" fill="white"/>
<path d="M219.741 486.618C219.741 487.154 208.584 511.579 208.584 511.579L221.278 512.586L229.897 491.717L219.741 486.618Z" fill="white"/>
<path d="M221.278 513.593H221.212L208.518 512.586C208.184 512.586 207.916 512.385 207.716 512.116C207.582 511.848 207.515 511.512 207.649 511.177C211.925 501.85 218.339 487.624 218.74 486.417C218.806 486.148 218.94 485.88 219.207 485.746C219.475 485.544 219.875 485.544 220.209 485.678L230.365 490.778C230.832 491.047 231.033 491.583 230.832 492.053L222.214 512.922C222.08 513.391 221.679 513.593 221.278 513.593ZM210.121 510.707L220.677 511.58L228.694 492.254L220.343 488.094C219.408 490.107 216.936 495.677 210.121 510.707Z" fill="black"/>
<path d="M220.275 506.48C220.275 506.48 217.737 500.373 211.122 503.393C211.122 503.393 199.03 520.974 194.486 535.467C193.217 539.561 197.426 543.251 201.301 541.507C210.454 537.346 224.752 528.69 232.903 512.586C232.903 512.586 230.364 505.943 226.288 502.923L220.275 506.48Z" fill="black"/>
<path d="M198.227 538.085C197.693 538.085 197.359 538.017 197.292 538.017C196.757 537.95 196.356 537.413 196.423 536.877C196.49 536.34 197.025 535.937 197.559 536.004C197.693 536.004 210.988 537.481 229.094 512.452C229.428 511.982 230.029 511.915 230.497 512.251C230.964 512.586 231.031 513.19 230.697 513.66C214.329 536.407 201.701 538.085 198.227 538.085Z" fill="white"/>
<path d="M208.583 524.329C208.383 524.329 208.249 524.262 208.048 524.194L201.969 520.638C201.501 520.37 201.301 519.766 201.635 519.229C201.902 518.759 202.503 518.558 203.038 518.893L209.117 522.45C209.585 522.718 209.786 523.322 209.451 523.859C209.251 524.127 208.917 524.329 208.583 524.329Z" fill="white"/>
<path d="M211.657 519.699C211.524 519.699 211.323 519.632 211.19 519.565L204.575 516.008C204.108 515.74 203.907 515.136 204.174 514.666C204.442 514.196 205.043 513.995 205.511 514.264L212.125 517.82C212.593 518.088 212.793 518.692 212.526 519.162C212.325 519.565 211.991 519.699 211.657 519.699Z" fill="white"/>
<path d="M284.681 363.286C284.681 363.286 251.61 369.191 227.759 394.287C221.746 400.594 219.608 409.72 222.213 418.107C227.491 435.285 239.05 466.554 258.291 490.174L272.989 477.425C272.989 477.425 269.449 447.9 259.828 429.515C250.207 411.196 306.529 371.405 306.529 371.405L284.681 363.286Z" fill="white"/>
<path d="M258.291 491.181H258.224C257.957 491.181 257.689 491.047 257.556 490.845C238.114 467.024 226.489 435.286 221.277 418.443C218.605 409.72 220.81 400.259 227.09 393.616C250.875 368.587 284.213 362.347 284.547 362.28C284.748 362.28 284.881 362.28 285.082 362.347L306.929 370.533C307.263 370.667 307.53 371.003 307.597 371.338C307.664 371.741 307.463 372.076 307.196 372.278C306.662 372.68 251.676 411.733 260.829 429.045C270.45 447.364 274.125 477.022 274.125 477.291C274.192 477.626 274.058 477.962 273.791 478.163L259.092 490.912C258.758 491.114 258.558 491.181 258.291 491.181ZM284.614 364.36C281.474 364.964 250.741 371.674 228.493 395.025C222.747 401.064 220.676 409.854 223.148 417.839C228.226 434.346 239.517 465.28 258.424 488.765L271.92 477.022C271.386 472.996 267.644 446.626 258.892 429.985C249.739 412.605 295.103 378.451 304.323 371.674L284.614 364.36Z" fill="black"/>
<path d="M215.666 491.181L232.903 496.28C232.903 496.28 264.371 429.515 273.524 419.852C282.677 410.19 300.382 394.354 319.156 388.784C337.93 383.148 337.93 368.922 337.93 368.922L305.994 359.729C305.994 359.729 261.365 379.122 246.599 400.997C231.901 422.939 215.666 491.181 215.666 491.181Z" fill="white"/>
<path d="M232.97 497.287C232.903 497.287 232.77 497.287 232.703 497.22L215.466 492.12C214.931 491.986 214.664 491.449 214.798 490.912C215.466 488.094 231.233 422.201 245.865 400.393C260.563 378.518 303.857 359.528 305.661 358.79C305.861 358.723 306.128 358.656 306.329 358.723L338.264 367.916C338.665 368.05 338.999 368.453 338.999 368.855C338.999 368.99 338.799 383.953 319.49 389.724C298.645 395.964 279.604 414.887 274.259 420.523C265.374 429.985 234.173 496.012 233.839 496.683C233.705 497.086 233.304 497.287 232.97 497.287ZM216.869 490.51L232.369 495.073C236.11 487.222 264.037 428.374 272.79 419.181C278.201 413.411 297.576 394.22 318.889 387.845C334.456 383.215 336.594 372.613 336.928 369.661L306.061 360.803C301.986 362.615 261.164 381.135 247.468 401.601C233.972 421.731 218.873 482.256 216.869 490.51Z" fill="black"/>
<path d="M363.851 316.449C355.233 299.137 341.002 296.587 341.002 296.587L316.616 294.574C309 294.038 300.915 298.802 297.909 305.847L275.527 358.32C275.527 358.32 280.07 370.533 300.381 372.613C320.691 374.626 334.655 373.351 341.202 381.537C345.545 386.906 345.411 351.074 342.939 322.69L363.851 316.449Z" fill="url(#paint3_linear_1089_2369)"/>
<path d="M298.912 362.279L310.07 357.179L318.688 360.736C318.688 360.736 364.988 354.831 344.277 321.616C344.21 321.482 360.512 318.127 360.512 318.127C360.512 318.127 379.352 363.286 319.69 364.292C319.69 364.292 316.617 365.299 312.608 363.286C308.533 361.273 301.451 365.366 298.912 362.279Z" fill="white"/>
<path d="M317.685 365.567C316.282 365.567 314.345 365.299 312.14 364.158C310.537 363.353 308.131 363.688 305.86 364.024C302.92 364.494 299.847 364.896 298.177 362.883C297.976 362.615 297.909 362.346 297.976 362.011C298.043 361.675 298.243 361.474 298.511 361.34L309.668 356.24C309.935 356.106 310.203 356.106 310.47 356.24L318.821 359.729C321.36 359.327 341.47 356.039 347.082 344.028C349.955 337.989 348.686 330.675 343.408 322.153C343.207 321.884 343.207 321.549 343.341 321.213C343.608 320.542 343.608 320.542 360.311 317.187C360.778 317.12 361.246 317.322 361.446 317.791C361.781 318.529 368.796 335.841 359.91 349.53C353.296 359.662 339.867 364.963 319.89 365.366C319.556 365.433 318.754 365.567 317.685 365.567ZM309.601 361.675C310.804 361.675 312.007 361.877 313.075 362.414C316.683 364.225 319.289 363.42 319.423 363.353C319.489 363.353 319.623 363.286 319.69 363.286C339.065 362.95 352.026 357.918 358.24 348.389C365.589 337.116 361.179 322.757 359.91 319.268C355.166 320.207 348.552 321.616 345.813 322.22C350.89 330.876 351.893 338.458 348.886 344.833C342.405 358.522 319.757 361.608 318.821 361.675C318.621 361.675 318.487 361.675 318.287 361.608L310.069 358.186L301.116 362.279C302.319 362.481 303.922 362.279 305.526 362.011C306.929 361.877 308.265 361.675 309.601 361.675Z" fill="black"/>
<path d="M342.072 324.837L364.721 318.395L363.852 316.449C363.852 316.449 361.246 314.436 360.779 314.436C360.311 314.436 347.483 313.967 347.483 313.967L339.6 316.449L342.072 324.837Z" fill="url(#paint4_linear_1089_2369)"/>
<path d="M256.152 365.634H300.181L267.577 315.241C266.575 313.698 264.771 312.692 262.9 312.692H227.157C224.885 312.692 223.482 315.107 224.751 316.986L256.152 365.634Z" fill="black"/>
<path d="M247.4 330.406C248.803 332.621 251.876 334.432 254.282 334.432C256.62 334.432 257.422 332.621 255.952 330.406C254.549 328.192 251.476 326.38 249.07 326.38C246.732 326.38 245.997 328.192 247.4 330.406Z" fill="white"/>
<path d="M254.282 335.372C251.61 335.372 248.202 333.426 246.599 330.943C245.664 329.467 245.463 328.058 246.064 326.917C246.599 325.911 247.668 325.374 249.138 325.374C251.81 325.374 255.218 327.32 256.821 329.802C257.756 331.279 257.957 332.688 257.356 333.829C256.821 334.835 255.685 335.372 254.282 335.372ZM249.071 327.387C248.403 327.387 247.935 327.588 247.735 327.857C247.534 328.259 247.668 328.997 248.202 329.802C249.472 331.748 252.211 333.359 254.215 333.359C254.884 333.359 255.351 333.158 255.552 332.889C255.752 332.486 255.618 331.748 255.084 330.943C253.881 328.997 251.142 327.387 249.071 327.387Z" fill="black"/>
<path d="M259.494 369.392H326.705C328.643 369.392 330.18 367.849 330.18 365.903V365.299H256.02V365.903C256.02 367.849 257.556 369.392 259.494 369.392Z" fill="black"/>
<path d="M345.613 177.281C364.253 171.376 399.663 201.035 394.852 223.111C393.516 229.218 388.839 236.062 382.158 239.417C370.399 245.389 357.772 237.672 354.766 242.504C352.16 246.664 361.447 252.636 360.378 261.359C358.708 274.31 335.591 280.55 332.985 281.221C331.048 281.758 303.455 288.803 290.36 274.108C287.22 270.552 283.078 263.708 285.282 259.346C287.42 255.186 293.834 256.058 295.438 251.697C296.774 247.872 292.431 245.792 292.899 241.497C293.767 233.244 310.737 232.841 312.675 224.185C314.278 217.274 304.39 213.18 306.061 206.336C307.397 200.834 314.546 200.633 325.837 193.587C339.332 185.132 338.531 179.563 345.613 177.281Z" fill="black"/>
<path d="M324.768 292.964C324.3 292.762 318.22 285.515 314.613 281.221C314.88 280.013 314.813 279.678 314.746 277.866C314.746 277.866 316.617 275.987 315.882 273.571C315.014 270.753 312.341 273.035 312.341 273.035C312.341 273.035 311.139 270.887 306.462 274.578C301.852 278.336 296.975 273.773 296.975 273.773C296.975 273.773 296.975 276.591 299.447 279.946C300.783 281.825 301.05 284.308 301.117 286.589L303.723 286.186C305.126 287.864 306.194 288.736 308.199 289.542C308.199 289.542 309.735 289.273 311.339 287.931L314.212 294.44L311.339 295.983C311.339 295.983 310.671 300.076 318.287 301.083C325.904 302.089 331.983 295.983 331.983 295.983C331.983 295.983 327.841 294.507 324.768 292.964Z" fill="white"/>
<path d="M319.957 302.291C319.356 302.291 318.688 302.224 318.086 302.157C314.746 301.687 312.407 300.613 311.138 298.936C310.002 297.46 310.203 296.051 310.269 295.916C310.336 295.581 310.537 295.312 310.804 295.178L312.875 294.105L310.937 289.609C309.601 290.481 308.465 290.682 308.399 290.682C308.198 290.75 307.998 290.682 307.864 290.615C305.993 289.81 304.791 289.005 303.388 287.395L301.317 287.663C301.049 287.73 300.715 287.596 300.515 287.462C300.315 287.26 300.181 286.992 300.181 286.724C300.114 284.509 299.914 282.228 298.711 280.617C296.105 276.994 296.105 273.974 296.105 273.84C296.105 273.438 296.373 273.102 296.707 272.901C297.041 272.767 297.508 272.834 297.776 273.102C297.976 273.236 302.118 276.994 305.993 273.84C308.265 272.028 310.203 271.223 311.672 271.492C312.006 271.559 312.274 271.693 312.541 271.827C313.209 271.425 314.211 271.022 315.147 271.357C315.748 271.559 316.55 272.028 316.95 273.37C317.685 275.652 316.483 277.531 315.881 278.269C315.948 279.544 315.948 280.081 315.815 281.02C323.565 290.213 325.101 291.89 325.369 292.159C328.308 293.635 332.25 295.111 332.317 295.111C332.651 295.245 332.851 295.514 332.918 295.849C332.985 296.185 332.918 296.52 332.651 296.789C332.317 296.99 327.039 302.291 319.957 302.291ZM312.274 296.654C312.407 297.527 313.343 299.473 318.353 300.144C323.498 300.815 327.974 297.997 329.979 296.386C328.509 295.782 326.237 294.843 324.366 293.903C324.099 293.769 323.631 293.568 313.944 281.959C313.744 281.691 313.677 281.423 313.744 281.087C313.944 280.081 313.944 279.812 313.877 278.269V278C313.877 277.732 313.944 277.464 314.144 277.262C314.211 277.195 315.547 275.786 315.013 273.974C314.946 273.773 314.812 273.37 314.545 273.303C314.144 273.169 313.409 273.639 313.075 273.907C312.808 274.109 312.541 274.243 312.207 274.176C311.873 274.109 311.672 273.907 311.539 273.639C311.338 273.438 310.069 273.169 307.196 275.518C304.19 277.933 300.849 277.329 298.511 276.189C298.845 277.128 299.379 278.269 300.248 279.544C301.517 281.288 301.918 283.436 302.052 285.65L303.521 285.449C303.856 285.382 304.19 285.516 304.457 285.784C305.726 287.327 306.662 288.066 308.198 288.737C308.666 288.602 309.601 288.2 310.603 287.395C310.871 287.193 311.138 287.126 311.472 287.193C311.806 287.26 312.006 287.462 312.14 287.797L315.013 294.306C315.213 294.776 315.013 295.38 314.545 295.581L312.274 296.654Z" fill="black"/>
<path d="M311.271 287.998L312.14 287.26L311.271 287.998Z" fill="white"/>
<path d="M311.272 289.005C311.005 289.005 310.737 288.87 310.537 288.669C310.136 288.267 310.203 287.596 310.604 287.26L311.472 286.522C311.873 286.119 312.541 286.186 312.875 286.589C313.276 286.992 313.209 287.663 312.808 287.998L311.94 288.736C311.74 288.938 311.539 289.005 311.272 289.005Z" fill="black"/>
<path d="M429.861 463.334C432.467 454.678 432.066 449.176 429.661 443.472L425.652 435.487L437.678 430.656L441.353 439.714C442.556 442.667 444.226 445.351 446.431 447.632L448.435 449.78L429.861 463.334Z" fill="white"/>
<path d="M429.861 464.34C429.66 464.34 429.46 464.273 429.259 464.139C428.925 463.871 428.725 463.468 428.858 462.998C431.598 454.007 430.796 448.84 428.725 443.875L424.716 435.957C424.583 435.688 424.583 435.42 424.649 435.151C424.716 434.883 424.983 434.682 425.184 434.548L437.21 429.716C437.744 429.515 438.279 429.783 438.479 430.253L442.154 439.312C443.29 442.13 444.96 444.68 447.031 446.894L449.035 449.041C449.236 449.243 449.302 449.511 449.302 449.847C449.302 450.115 449.102 450.383 448.902 450.585L430.328 464.139C430.328 464.273 430.061 464.34 429.861 464.34ZM427.055 436.024L430.529 443.002V443.069C432.867 448.773 433.201 453.94 431.531 460.784L446.83 449.578L445.628 448.303C443.356 445.888 441.619 443.137 440.35 440.117L437.076 431.931L427.055 436.024Z" fill="black"/>
<path d="M443.023 445.351C443.29 444.411 444.56 444.21 445.228 444.881C447.099 446.894 450.439 450.316 452.978 452.061C455.316 453.671 456.051 456.825 454.715 459.375C450.974 466.488 441.42 481.988 431.331 493.798C430.663 494.603 428.926 495.677 426.454 494.603C418.17 490.845 426.053 474.003 430.53 456.422C430.73 455.751 431.265 455.215 431.933 455.08L434.405 454.611C439.081 453.671 441.019 451.457 443.023 445.351Z" fill="black"/>
<path d="M452.378 451.658C452.378 451.658 452.779 451.926 452.912 452.061C455.251 453.671 455.986 456.825 454.649 459.375C450.908 466.487 441.354 481.988 431.265 493.797C430.597 494.603 428.86 495.676 426.388 494.603C425.653 494.267 424.518 493.328 424.518 493.328L425.186 492.455C434.806 480.109 443.559 467.158 451.242 453.537L452.378 451.658Z" fill="white"/>
<path d="M428.526 496.079C427.791 496.079 426.922 495.945 426.054 495.542C425.185 495.14 424.049 494.267 423.916 494.133C423.515 493.798 423.448 493.194 423.782 492.724L424.45 491.852C434.004 479.639 442.757 466.554 450.44 453.067L451.509 451.255C451.642 450.987 451.91 450.853 452.177 450.786C452.444 450.718 452.711 450.786 452.979 450.92L453.58 451.322C456.319 453.268 457.254 456.959 455.651 459.911C451.709 467.36 442.222 482.726 432.134 494.536C431.399 495.274 430.129 496.079 428.526 496.079ZM425.987 493.126C426.321 493.328 426.655 493.529 426.856 493.663C429.06 494.67 430.33 493.395 430.53 493.126C440.485 481.451 449.905 466.219 453.78 458.905C454.849 456.959 454.315 454.543 452.645 453.134L452.177 454.006C444.494 467.628 435.675 480.713 425.987 493.126Z" fill="black"/>
<path d="M427.122 470.514C426.654 470.514 426.187 470.178 426.12 469.641C426.053 469.105 426.387 468.568 426.922 468.501L435.206 467.092C435.741 467.024 436.275 467.36 436.342 467.897C436.409 468.434 436.075 468.97 435.54 469.037L427.256 470.447C427.256 470.514 427.189 470.514 427.122 470.514Z" fill="#CADDFF"/>
<path d="M425.786 475.278C425.318 475.278 424.851 474.942 424.784 474.405C424.717 473.869 425.051 473.332 425.652 473.265L432.4 472.258C432.935 472.191 433.469 472.527 433.536 473.131C433.603 473.667 433.269 474.204 432.667 474.271L425.92 475.278C425.92 475.278 425.853 475.278 425.786 475.278Z" fill="#CADDFF"/>
<path d="M497.542 337.452C497.542 337.452 414.162 319.067 388.774 333.628C384.966 335.842 381.291 340.405 380.489 344.766C378.017 357.985 385.366 386.906 425.587 441.124C426.121 441.862 427.19 442.197 428.059 441.862L440.819 437.03C441.822 436.628 442.423 435.487 442.089 434.413L425.052 374.626C424.584 373.083 425.921 371.54 427.524 371.741L506.962 381.538L497.542 337.452Z" fill="white"/>
<path d="M427.323 443.002C426.321 443.002 425.386 442.533 424.785 441.727C380.823 382.276 377.549 355.368 379.554 344.565C380.355 340.136 384.03 335.171 388.306 332.755C413.761 318.194 494.401 335.707 497.809 336.446C498.21 336.513 498.477 336.848 498.544 337.251L507.964 381.336C508.031 381.672 507.964 382.007 507.697 382.209C507.496 382.477 507.162 382.544 506.828 382.544L427.39 372.747C426.989 372.68 426.588 372.882 426.321 373.15C426.054 373.485 425.92 373.888 426.054 374.291L443.091 434.078C443.558 435.621 442.69 437.299 441.22 437.903L428.459 442.734C428.058 443.002 427.657 443.002 427.323 443.002ZM421.043 329.064C407.948 329.064 396.323 330.474 389.308 334.5C385.5 336.647 382.226 341.076 381.558 344.967C379.62 355.435 382.894 381.739 426.455 440.587C426.722 440.989 427.323 441.123 427.791 440.989L440.552 436.158C441.086 435.957 441.42 435.353 441.22 434.816L424.183 375.029C423.916 373.955 424.116 372.814 424.851 372.009C425.586 371.204 426.655 370.734 427.724 370.869L505.759 380.531L496.807 338.459C491.261 337.184 452.043 329.064 421.043 329.064Z" fill="black"/>
<path d="M472.955 495.14L471.351 502.924C469.146 514.264 477.431 520.102 477.431 520.102L453.045 523.054C453.045 523.054 458.39 519.833 457.321 504.065L455.918 490.846L472.955 495.14Z" fill="white"/>
<path d="M452.978 524.06C452.577 524.06 452.176 523.792 452.042 523.389C451.909 522.92 452.042 522.45 452.443 522.182C452.443 522.182 457.254 518.827 456.185 504.064L454.782 490.912C454.715 490.577 454.848 490.241 455.116 490.04C455.383 489.839 455.717 489.772 455.984 489.839L473.088 494.133C473.622 494.268 473.956 494.804 473.823 495.341L472.219 503.125C470.215 513.727 477.831 519.162 477.898 519.229C478.232 519.498 478.366 519.9 478.299 520.303C478.165 520.705 477.831 521.041 477.43 521.041L453.044 523.993C453.044 524.061 452.978 524.06 452.978 524.06ZM456.986 492.187L458.256 503.93C458.924 513.995 457.053 519.162 455.45 521.712L475.025 519.363C472.553 516.881 468.678 511.311 470.282 502.722L471.752 495.878L456.986 492.187Z" fill="black"/>
<path d="M473.422 509.634C475.426 511.982 479.101 516.344 481.907 520.571C483.644 523.255 482.642 526.275 480.704 528.825C476.829 533.991 471.618 538.018 465.404 542.111C459.993 545.667 453.913 549.492 446.631 552.847C444.626 553.786 440.217 554.994 437.21 553.518C428.191 549.022 443.223 534.864 455.049 518.625C455.516 517.954 456.318 517.686 457.053 517.82L459.792 518.357C462.532 518.894 465.404 517.753 466.941 515.405L470.682 509.835C471.351 508.829 472.687 508.762 473.422 509.634Z" fill="black"/>
<path d="M480.437 518.558C480.437 518.558 481.773 520.303 481.907 520.504C482.375 521.175 482.575 521.913 482.776 522.718C483.243 525.268 482.375 527.885 480.571 529.764C480.17 530.234 479.569 530.771 478.901 531.442C471.819 538.219 463.868 543.989 455.25 548.687C450.907 551.102 441.219 556.001 437.277 553.384C436.075 552.578 435.34 550.163 435.34 550.163C435.34 550.163 437.678 551.572 444.56 548.083C456.319 542.245 464.269 535.669 473.957 527.818C475.894 526.275 477.163 524.866 478.567 523.188C479.569 521.846 480.237 520.236 480.437 518.558Z" fill="white"/>
<path d="M440.218 555.195C438.815 555.195 437.612 554.927 436.744 554.323C435.274 553.384 434.472 550.834 434.338 550.565C434.205 550.163 434.338 549.76 434.672 549.492C435.006 549.223 435.474 549.223 435.808 549.425C435.808 549.425 438.013 550.364 444.093 547.277C455.317 541.641 463.201 535.266 472.354 527.885L473.289 527.147C474.959 525.805 476.229 524.53 477.699 522.651C478.634 521.443 479.235 520.034 479.436 518.491C479.502 518.088 479.77 517.753 480.171 517.619C480.571 517.484 480.972 517.686 481.24 518.021C481.574 518.424 482.576 519.833 482.709 520.034C483.177 520.772 483.511 521.645 483.712 522.651C484.246 525.47 483.311 528.422 481.24 530.569C480.839 531.039 480.237 531.576 479.502 532.314C472.487 539.024 464.47 544.929 455.651 549.693C448.97 553.317 443.759 555.195 440.218 555.195ZM436.944 551.505C437.211 551.975 437.545 552.444 437.812 552.578C440.218 554.122 446.364 552.444 454.716 547.814C463.334 543.117 471.218 537.346 478.099 530.703C478.834 530.032 479.369 529.496 479.77 529.026C481.373 527.348 482.108 525 481.707 522.853C481.574 522.114 481.373 521.511 481.039 520.974C481.039 520.974 480.972 520.84 480.905 520.772C480.505 521.846 479.97 522.853 479.235 523.725C477.632 525.671 476.296 527.08 474.492 528.556L473.556 529.294C464.336 536.743 456.386 543.251 444.961 548.955C441.086 550.968 438.547 551.505 436.944 551.505Z" fill="black"/>
<path d="M457.254 530.905C457.187 530.905 457.121 530.905 457.054 530.905L447.967 528.959C447.433 528.825 447.099 528.288 447.233 527.751C447.366 527.214 447.901 526.879 448.435 527.013L457.521 528.959C458.056 529.093 458.39 529.63 458.256 530.167C458.123 530.569 457.722 530.905 457.254 530.905Z" fill="#CADDFF"/>
<path d="M452.244 534.998C452.177 534.998 452.11 534.998 452.044 534.998L444.628 533.253C444.093 533.119 443.759 532.582 443.893 532.046C444.026 531.509 444.561 531.173 445.095 531.307L452.511 533.052C453.046 533.186 453.38 533.723 453.246 534.26C453.113 534.662 452.712 534.998 452.244 534.998Z" fill="#CADDFF"/>
<path d="M443.627 361.407C467.946 340.539 546.048 339.868 546.048 339.868C546.048 339.868 555.802 351.61 551.192 375.096C549.655 382.879 544.177 389.791 535.558 389.791L487.588 390.194C484.047 390.194 481.308 393.146 481.441 396.702C482.31 419.986 483.112 468.098 476.498 500.91C476.23 502.252 475.228 503.326 473.959 503.662C470.885 504.467 464.872 505.876 458.392 505.742C456.387 505.742 454.65 504.198 454.383 502.185L438.482 382.947C438.014 379.323 438.014 375.7 438.616 372.143C439.217 368.251 440.62 364.024 443.627 361.407Z" fill="white"/>
<path d="M458.926 506.748C458.725 506.748 458.525 506.748 458.325 506.748C455.853 506.681 453.715 504.802 453.381 502.319L437.48 383.081C436.945 379.256 437.012 375.498 437.613 371.942C438.482 366.775 440.286 363.018 443.025 360.669C467.344 339.801 542.907 338.928 546.114 338.928C546.381 338.928 546.715 339.062 546.849 339.264C547.25 339.733 556.871 351.61 552.194 375.297C550.791 382.477 545.58 390.797 535.558 390.797L487.588 391.2C486.185 391.2 484.848 391.804 483.846 392.81C482.844 393.817 482.376 395.226 482.376 396.635C483.312 421.731 483.98 468.635 477.432 501.112C477.098 502.789 475.829 504.198 474.159 504.601C471.219 505.473 465.34 506.748 458.926 506.748ZM545.58 340.941C538.832 341.075 467.01 342.686 444.294 362.212C441.956 364.225 440.352 367.647 439.551 372.277C439.016 375.633 438.949 379.122 439.417 382.812L455.318 502.051C455.519 503.594 456.788 504.735 458.325 504.735C464.738 504.802 470.685 503.46 473.624 502.655C474.56 502.387 475.295 501.648 475.495 500.709C481.976 468.501 481.374 421.731 480.439 396.769C480.372 394.756 481.04 392.878 482.443 391.468C483.779 390.059 485.65 389.254 487.588 389.254L535.558 388.851C544.31 388.851 548.92 381.336 550.189 374.962C554.265 354.429 547.116 343.021 545.58 340.941Z" fill="black"/>
<path d="M460.128 284.778L453.715 297.191C447.501 308.464 437.413 315.912 426.322 322.421L421.846 325.038C418.973 326.716 415.566 327.387 412.292 326.917L411.757 326.85C406.68 326.179 401.602 327.387 397.326 330.272L408.55 334.567C415.365 337.184 422.982 337.116 429.663 334.097C436.076 331.279 450.508 327.789 457.322 319.804C471.62 303.096 471.019 299.406 471.019 299.406L460.128 284.778Z" fill="white"/>
<path d="M418.638 337.519C415.097 337.519 411.556 336.848 408.216 335.573L396.991 331.279C396.657 331.144 396.39 330.809 396.323 330.473C396.257 330.071 396.457 329.735 396.791 329.534C401.201 326.514 406.612 325.24 411.89 325.978L412.425 326.045C415.498 326.447 418.638 325.843 421.377 324.233L425.854 321.616C435.541 315.98 446.298 308.598 452.845 296.789L459.259 284.442C459.393 284.107 459.727 283.905 460.061 283.905C460.395 283.905 460.729 284.039 460.929 284.308L471.886 298.936C471.953 299.07 472.02 299.204 472.087 299.406C472.22 300.077 472.02 304.371 458.123 320.61C452.778 326.917 442.89 330.406 435.742 333.023C433.537 333.829 431.599 334.5 430.13 335.171C426.455 336.647 422.58 337.519 418.638 337.519ZM399.664 330.071L408.951 333.627C415.632 336.177 422.847 336.043 429.328 333.225C430.865 332.554 432.802 331.815 435.074 331.01C442.022 328.528 451.576 325.105 456.654 319.2C468.345 305.512 469.882 300.815 470.082 299.741L460.328 286.656L454.649 297.661C447.834 309.941 436.811 317.523 426.856 323.294L422.38 325.911C419.306 327.722 415.698 328.393 412.158 327.924L411.623 327.857C407.481 327.32 403.272 328.125 399.664 330.071Z" fill="black"/>
<path d="M492.731 344.632C492.731 344.632 491.929 346.309 513.576 349.463C529.21 351.744 543.374 350.738 550.122 350C552.326 349.731 553.796 347.651 553.262 345.504C551.525 338.458 550.188 331.882 543.44 313.966C538.764 301.486 545.912 278.805 531.281 265.318C506.628 242.571 472.688 271.626 472.688 271.626L461.998 287.394C474.224 301.821 483.845 318.261 490.393 336.043L492.731 344.632Z" fill="url(#paint5_linear_1089_2369)"/>
<path d="M501.884 301.352C501.818 301.352 501.818 301.352 501.751 301.352C501.216 301.284 500.815 300.815 500.882 300.211L502.686 283.033C502.753 282.496 503.221 282.094 503.822 282.161C504.356 282.228 504.757 282.697 504.69 283.301L502.887 300.479C502.82 300.949 502.352 301.352 501.884 301.352Z" fill="#CADDFF"/>
<path d="M524.467 310.746C524.333 310.746 524.133 310.679 523.999 310.611C523.531 310.343 523.331 309.739 523.598 309.269C527.406 301.955 532.417 282.161 532.551 278.134C532.551 277.598 533.018 277.128 533.553 277.128C534.087 277.128 534.555 277.598 534.555 278.134C534.421 282.899 529.143 302.962 525.402 310.142C525.135 310.544 524.801 310.746 524.467 310.746Z" fill="#CADDFF"/>
<path d="M386.368 331.815L444.226 336.244L412.424 278.47C411.222 276.323 409.017 274.847 406.478 274.645L359.51 271.022C356.504 270.82 354.499 273.84 355.902 276.457L386.368 331.815Z" fill="black"/>
<path d="M393.918 304.572C395.054 306.652 397.659 308.464 399.797 308.665C401.935 308.8 402.737 307.256 401.601 305.176C400.465 303.096 397.86 301.284 395.722 301.083C393.584 300.949 392.782 302.492 393.918 304.572Z" fill="white"/>
<path d="M389.174 335.573L479.97 342.552C481.841 342.686 483.511 341.277 483.645 339.398L483.778 338.861L386.168 331.413L386.034 331.95C385.901 333.829 387.304 335.439 389.174 335.573Z" fill="black"/>
<path d="M435.542 325.105L447.367 321.012C449.104 320.408 451.042 320.744 452.512 321.951L457.99 326.514C459.059 327.387 460.395 327.789 461.732 327.722C467.678 327.32 495.204 319.737 497.342 314.772C499.146 310.544 500.482 305.512 500.482 305.512L521.861 313.027C521.861 313.027 521.527 319.67 512.842 328.527C505.426 336.11 486.385 338.66 460.128 337.049C460.128 337.049 454.65 336.445 450.04 330.943C447.1 327.454 439.951 329.266 435.675 328.192C434.206 327.722 434.072 325.575 435.542 325.105Z" fill="white"/>
<path d="M473.958 338.391C469.615 338.391 464.938 338.257 459.994 337.921C459.727 337.921 453.982 337.183 449.238 331.413C447.634 329.467 444.16 329.467 440.887 329.4C438.882 329.4 437.012 329.332 435.475 328.997C434.339 328.729 433.604 327.789 433.537 326.648C433.471 325.508 434.206 324.501 435.274 324.099L447.1 320.005C449.171 319.267 451.509 319.737 453.18 321.146L458.658 325.709C459.527 326.447 460.596 326.783 461.665 326.715C467.811 326.313 494.602 318.663 496.406 314.369C498.143 310.276 499.546 305.243 499.546 305.176C499.613 304.908 499.814 304.706 500.014 304.572C500.281 304.438 500.549 304.438 500.816 304.505L522.195 312.02C522.596 312.155 522.863 312.557 522.863 313.027C522.863 313.295 522.396 320.14 513.577 329.198C507.564 335.237 494.001 338.391 473.958 338.391ZM435.876 326.044C435.542 326.179 435.475 326.447 435.475 326.581C435.475 326.716 435.542 326.984 435.876 327.118C437.212 327.454 439.016 327.454 440.887 327.521C444.494 327.521 448.57 327.588 450.775 330.205C455.05 335.372 460.128 335.975 460.195 335.975C487.253 337.586 505.225 334.768 512.04 327.722C518.654 320.945 520.325 315.51 520.659 313.564L501.083 306.719C500.549 308.464 499.48 311.953 498.143 315.107C495.738 320.878 467.21 328.326 461.732 328.729C460.128 328.863 458.525 328.326 457.255 327.319L451.777 322.757C450.641 321.817 449.038 321.482 447.634 322.018L435.876 326.044Z" fill="black"/>
<path d="M475.627 269.948C461.063 277.799 455.116 289.34 447.5 299.607C452.912 304.505 459.326 311.148 463.468 315.845C467.41 312.826 472.354 309.739 475.961 305.377L475.627 269.948Z" fill="url(#paint6_linear_1089_2369)"/>
<path d="M493.801 241.43V257.468C493.734 259.548 492.331 261.359 490.326 262.03L487.253 263.372C486.451 263.708 489.257 268.002 501.818 266.056C506.628 265.318 511.238 263.44 515.18 260.621L518.12 258.541C516.115 258.273 510.503 256.729 510.036 254.783L505.426 233.915L493.801 241.43Z" fill="white"/>
<path d="M495.872 267.6C488.924 267.6 486.585 265.184 486.251 264.043C486.051 263.372 486.318 262.769 486.919 262.5L489.993 261.158H490.06C491.663 260.621 492.732 259.145 492.799 257.468V241.497C492.799 241.162 492.999 240.826 493.266 240.625L504.958 233.11C505.226 232.909 505.56 232.909 505.894 233.043C506.228 233.177 506.428 233.445 506.495 233.781L511.105 254.649C511.372 255.656 515.448 257.199 518.387 257.669C518.788 257.736 519.122 258.004 519.189 258.407C519.256 258.81 519.122 259.212 518.788 259.481L515.848 261.561C511.706 264.446 506.963 266.392 502.019 267.13C499.68 267.466 497.609 267.6 495.872 267.6ZM488.59 263.909C489.792 264.849 493.467 266.325 501.685 265.05C506.295 264.312 510.771 262.5 514.646 259.816L515.715 259.078C513.243 258.407 509.635 257.132 509.101 255.052L504.758 235.525L494.736 241.967V257.468C494.603 260.017 492.999 262.165 490.661 263.037L488.59 263.909Z" fill="black"/>
<path d="M472.488 223.313C475.962 220.696 473.891 227.473 484.647 214.657C488.923 209.557 490.393 217.542 491.462 216.267C495.538 211.369 495.404 211.57 498.344 210.564C500.281 209.893 503.354 212.241 504.557 214.724C506.16 218.012 504.223 220.428 506.227 228.211C507.63 233.714 509.835 236.129 508.499 238.008C507.163 239.887 504.223 238.344 502.553 240.222C500.415 242.705 503.956 246.865 502.686 250.489C501.885 252.77 498.544 255.79 490.594 256.863C489.324 257.065 488.055 256.26 487.654 255.052C487.119 253.441 486.451 251.428 485.984 249.482C483.779 240.088 485.315 236.599 483.044 235.324C479.57 233.311 475.093 238.813 472.488 237.002C469.882 234.989 467.744 226.936 472.488 223.313Z" fill="black"/>
<path d="M492.131 225.662L492.398 228.278C492.532 229.486 492.732 230.761 493 231.969C493.534 234.251 494.469 238.142 494.804 240.357C495.271 243.645 485.383 245.859 485.383 245.859L483.913 244.651L482.711 244.92C482.51 244.987 482.243 244.987 482.043 244.92C481.508 244.718 481.174 244.249 481.174 243.712C481.174 240.759 481.04 234.25 479.303 229.486C479.237 229.352 484.114 223.917 492.131 225.662Z" fill="white"/>
<path d="M485.383 246.865C485.182 246.865 484.915 246.798 484.781 246.664L483.646 245.725L482.911 245.859C482.51 245.926 482.109 245.926 481.708 245.792C480.773 245.456 480.105 244.584 480.171 243.577C480.171 240.961 480.038 234.385 478.368 229.688C478.234 229.352 478.301 228.949 478.568 228.681C478.768 228.413 483.913 222.843 492.398 224.655C492.799 224.722 493.133 225.125 493.2 225.527L493.467 228.144C493.6 229.352 493.801 230.493 494.068 231.701C494.603 233.915 495.538 237.874 495.872 240.155C496.473 244.047 488.189 246.262 485.65 246.798C485.516 246.798 485.45 246.865 485.383 246.865ZM483.846 243.577C484.047 243.577 484.314 243.645 484.447 243.779L485.583 244.718C489.725 243.712 494.001 241.766 493.801 240.424C493.467 238.209 492.531 234.25 492.064 232.103C491.797 230.828 491.529 229.553 491.396 228.278L491.195 226.4C485.45 225.46 481.575 228.413 480.372 229.553C481.909 234.318 482.109 240.29 482.109 243.51C482.109 243.577 482.176 243.712 482.309 243.779C482.309 243.779 482.376 243.779 482.51 243.779L483.712 243.51C483.712 243.645 483.779 243.577 483.846 243.577Z" fill="black"/>
<path d="M495.203 233.378C495.203 233.378 494.601 227.071 497.474 227.406C500.414 227.742 500.882 234.72 495.203 233.378Z" fill="white"/>
<path d="M237.179 184.327C262.565 184.327 283.145 163.658 283.145 138.161C283.145 112.665 262.565 91.9957 237.179 91.9957C211.793 91.9957 191.213 112.665 191.213 138.161C191.213 163.658 211.793 184.327 237.179 184.327Z" fill="white"/>
<path d="M237.179 185.266C211.323 185.266 190.211 164.129 190.211 138.094C190.211 112.059 211.256 90.9221 237.179 90.9221C263.035 90.9221 284.147 112.059 284.147 138.094C284.147 164.129 263.035 185.266 237.179 185.266ZM237.179 93.0023C212.392 93.0023 192.215 113.267 192.215 138.161C192.215 163.056 212.392 183.32 237.179 183.32C261.966 183.32 282.143 163.056 282.143 138.161C282.076 113.267 261.966 93.0023 237.179 93.0023Z" fill="black"/>
<path d="M226.489 160.439H216.066V116.89H226.489V160.439Z" fill="#BC0F38"/>
<path d="M266.909 124.942H253.881V160.439H243.392V124.942H230.631V116.823H266.909V124.942Z" fill="#BC0F38"/>
<path d="M65.6758 466.621L67.2792 481.786L77.5013 482.994V465.011L65.6758 466.621Z" fill="white"/>
<path d="M77.501 484.001C77.4342 484.001 77.4342 484.001 77.3674 484.001L67.1453 482.793C66.6776 482.726 66.3436 482.39 66.2768 481.921L64.6733 466.689C64.6065 466.152 65.0074 465.682 65.5418 465.615L77.3674 464.005C77.6346 463.937 77.9687 464.072 78.1691 464.273C78.3695 464.474 78.5032 464.743 78.5032 465.011V483.061C78.5032 483.33 78.3695 483.598 78.1691 483.799C77.9687 483.934 77.7682 484.001 77.501 484.001ZM68.1475 480.914L76.4988 481.921V466.152L66.7444 467.494L68.1475 480.914Z" fill="black"/>
<path d="M79.1051 509.499C74.8292 510.103 67.8141 510.639 59.5963 509.499C56.9239 509.096 55.12 506.479 55.7881 503.862C57.592 496.481 60.7321 482.457 66.077 475.948L67.4132 479.438L69.2171 476.15C69.4843 475.68 69.952 475.411 70.4197 475.344L74.4283 474.808C75.2969 474.673 76.0318 475.277 76.2322 476.082L76.9003 479.169L78.3034 475.143L82.9801 504.332C83.3142 506.882 81.5771 509.163 79.1051 509.499Z" fill="#0152DD"/>
<path d="M69.4171 511.176C66.4106 511.176 63.07 510.975 59.4622 510.505C57.9256 510.304 56.4558 509.432 55.5872 508.09C54.7187 506.748 54.3846 505.137 54.7855 503.594L55.1864 501.984C57.0571 494.334 60.1304 481.518 65.2748 475.277C65.4752 475.009 65.8761 474.875 66.2101 474.942C66.5442 475.009 66.8783 475.21 67.0119 475.546L67.5464 477.022L68.3481 475.613C68.749 474.875 69.4839 474.405 70.2856 474.271L74.2943 473.734C75.4969 473.6 76.6326 474.271 77.1003 475.412L77.3676 474.741C77.5012 474.338 77.9689 474.002 78.3697 474.07C78.8374 474.137 79.1715 474.472 79.2383 474.942L83.915 504.131C84.3159 507.217 82.1779 510.036 79.1715 510.438C76.6995 510.841 73.3589 511.176 69.4171 511.176ZM65.8093 478.029C61.6002 484.336 58.861 495.542 57.1907 502.453L56.7898 504.064C56.5226 505.07 56.723 506.077 57.3243 506.949C57.9256 507.821 58.7941 508.358 59.7963 508.492C67.8136 509.633 74.6951 509.096 78.971 508.492C80.9085 508.224 82.2448 506.412 81.9775 504.466L77.902 479.236L77.8352 479.505C77.7016 479.907 77.3008 480.176 76.8331 480.176C76.3654 480.176 76.0313 479.84 75.8977 479.371L75.2296 476.284C75.1628 475.948 74.8956 475.747 74.5615 475.814L70.5529 476.351C70.3524 476.351 70.152 476.485 70.0852 476.686L68.2813 479.974C68.0808 480.31 67.7468 480.511 67.3459 480.511C66.9451 480.511 66.611 480.243 66.4774 479.84L65.8093 478.029Z" fill="black"/>
<path d="M67.2783 506.278C64.5391 506.278 61.5326 506.01 58.5261 505.339C57.9916 505.205 57.6576 504.668 57.7912 504.131C57.9248 503.594 58.4593 503.259 58.9938 503.393C68.8818 505.674 79.3043 502.722 79.4379 502.722C79.9724 502.588 80.5069 502.856 80.7073 503.393C80.8409 503.93 80.5737 504.467 80.0392 504.668C79.6383 504.735 74.1598 506.278 67.2783 506.278Z" fill="black"/>
<path d="M64.8068 495.005C64.2724 495.005 63.8047 494.602 63.8047 493.998C63.8047 493.462 64.2056 492.992 64.74 492.992L74.3608 492.656C74.8953 492.656 75.363 493.059 75.363 493.596C75.363 494.133 74.9621 494.602 74.4276 494.602L64.8068 495.005Z" fill="black"/>
<path d="M113.646 458.502L115.183 480.712H127.476L128.078 458.502H113.646Z" fill="white"/>
<path d="M127.477 481.719H115.183C114.649 481.719 114.248 481.317 114.181 480.78L112.645 458.569C112.645 458.301 112.711 458.032 112.912 457.831C113.112 457.63 113.379 457.496 113.647 457.496H128.078C128.345 457.496 128.612 457.63 128.813 457.831C129.013 458.032 129.08 458.301 129.08 458.569L128.479 480.78C128.479 481.249 128.078 481.719 127.477 481.719ZM116.119 479.706H126.541L127.076 459.509H114.716L116.119 479.706Z" fill="black"/>
<path d="M111.975 493.261C111.975 495.341 113.378 497.219 115.382 497.689C122.464 499.367 138.432 503.057 142.975 503.728C148.854 504.601 156.137 502.789 159.277 499.3C162.417 495.81 152.262 487.557 147.518 484.537C140.369 480.042 133.555 471.184 130.682 470.782C127.809 470.379 122.464 478.767 122.464 478.767L113.712 475.076C113.645 475.076 112.108 482.591 111.975 493.261Z" fill="#0152DD"/>
<path d="M146.048 504.936C144.979 504.936 143.91 504.869 142.841 504.735C138.231 504.064 121.929 500.306 115.182 498.696C112.71 498.092 110.906 495.81 110.972 493.261C111.106 482.659 112.643 474.942 112.71 474.875C112.776 474.606 112.977 474.338 113.244 474.204C113.511 474.07 113.845 474.07 114.113 474.137L122.13 477.492C123.867 474.875 127.942 469.372 130.882 469.775C132.552 469.976 134.69 471.989 138.298 475.412C141.305 478.23 144.645 481.451 148.119 483.665C151.259 485.611 160.279 492.254 160.947 497.152C161.081 498.226 160.813 499.233 160.145 499.971C157.339 502.99 151.594 504.936 146.048 504.936ZM112.977 493.261C112.977 494.871 114.046 496.347 115.649 496.683C122.397 498.293 138.632 501.984 143.175 502.722C148.854 503.594 155.803 501.715 158.609 498.629C158.809 498.427 159.01 498.092 158.943 497.421C158.475 494.133 151.727 488.295 147.05 485.343C143.443 483.061 139.968 479.773 136.895 476.821C134.356 474.405 131.684 471.855 130.615 471.721C129.279 471.52 125.805 475.479 123.333 479.236C123.065 479.639 122.531 479.84 122.13 479.639L114.513 476.418C113.979 478.968 113.044 485.275 112.977 493.261Z" fill="black"/>
<path d="M145.983 500.843C133.022 500.843 115.784 493.865 114.849 493.462C114.315 493.261 114.114 492.657 114.315 492.12C114.515 491.583 115.116 491.382 115.651 491.583C115.985 491.717 146.918 504.265 155.938 496.146C156.339 495.743 157.007 495.811 157.341 496.213C157.742 496.616 157.675 497.287 157.274 497.622C154.601 499.971 150.526 500.843 145.983 500.843Z" fill="black"/>
<path d="M132.285 487.423C132.018 487.423 131.751 487.289 131.551 487.087C131.15 486.685 131.217 486.014 131.617 485.678L137.898 479.975C138.298 479.572 138.967 479.639 139.301 480.042C139.702 480.444 139.635 481.115 139.234 481.451L132.954 487.154C132.753 487.289 132.553 487.423 132.285 487.423Z" fill="black"/>
<path d="M62.2013 313.765C62.2013 313.765 58.3931 383.148 56.3888 407.103C54.3844 431.058 61.0655 469.574 61.0655 469.574L80.1066 468.567C80.1066 468.567 81.4428 421.731 82.8459 408.713C82.8459 408.713 90.8632 391.065 93.2684 375.364C95.6736 359.662 103.758 334.835 103.758 334.835C103.758 334.835 110.238 458.838 110.906 468.567C110.906 468.567 125.805 469.238 131.15 465.883C131.15 465.883 140.637 420.657 139.234 396.098C137.898 371.539 139.368 310.41 139.368 310.41L62.2013 313.765Z" fill="black"/>
<path d="M79.2385 409.787H73.426C72.8915 409.787 72.4238 409.317 72.4238 408.78C72.4238 408.243 72.8915 407.774 73.426 407.774H79.2385C79.773 407.774 80.2407 408.243 80.2407 408.78C80.2407 409.317 79.8398 409.787 79.2385 409.787Z" fill="white"/>
<path d="M120.66 445.82C120.059 445.82 119.658 445.35 119.658 444.813C119.859 433.272 132.419 412.605 132.954 411.733C133.221 411.263 133.889 411.129 134.357 411.397C134.824 411.665 134.958 412.336 134.691 412.806C134.557 413.008 121.863 433.876 121.663 444.881C121.663 445.417 121.262 445.82 120.66 445.82Z" fill="white"/>
<path d="M145.447 202.78C146.85 202.646 153.598 216.67 174.91 216.066C196.156 215.462 213.26 191.574 213.26 191.574C213.26 191.574 220.609 179.16 226.154 174.664C231.699 170.169 232.635 169.565 232.635 169.565C232.635 169.565 234.372 171.913 232.635 174.664C230.898 177.416 226.087 182.582 226.087 182.582C226.087 182.582 231.432 185.535 229.027 191.641C226.288 198.687 218.471 198.083 218.471 198.083C218.471 198.083 202.637 268.136 137.496 234.854L145.447 202.78Z" fill="white"/>
<path d="M169.765 244.852C159.811 244.852 148.854 241.833 136.961 235.726C136.56 235.525 136.36 235.055 136.427 234.586L144.377 202.511C144.511 202.109 144.845 201.773 145.246 201.773C146.047 201.706 146.582 202.31 147.718 203.585C150.925 207.141 158.341 215.462 174.776 215.059C194.953 214.522 211.589 192.044 212.324 191.037C212.858 190.098 219.94 178.355 225.486 173.859C231.031 169.363 231.966 168.759 232.033 168.692C232.501 168.424 233.102 168.491 233.369 168.894C233.436 169.028 235.507 171.846 233.436 175.134C232.1 177.281 229.027 180.703 227.557 182.314C229.561 183.924 231.699 187.279 229.895 191.909C227.49 198.083 221.477 198.888 219.205 199.022C217.936 203.92 209.985 230.56 188.339 240.759C182.66 243.51 176.446 244.852 169.765 244.852ZM138.631 234.317C157.539 243.778 173.974 245.389 187.537 238.947C210.386 228.144 217.401 198.083 217.468 197.814C217.602 197.344 218.003 197.009 218.537 197.009C218.805 197.009 225.619 197.412 228.091 191.171C230.096 186.004 225.82 183.455 225.619 183.387C225.352 183.253 225.152 182.985 225.085 182.649C225.018 182.314 225.152 182.045 225.352 181.777C225.419 181.71 230.162 176.677 231.833 173.993C232.568 172.785 232.501 171.712 232.3 170.974C231.432 171.645 229.828 172.92 226.822 175.335C221.477 179.697 214.195 191.909 214.128 191.976C214.128 191.976 214.128 192.044 214.061 192.044C213.326 193.05 196.49 216.334 174.91 216.938C157.606 217.408 149.655 208.55 146.315 204.793C146.181 204.659 146.114 204.591 145.981 204.457L138.631 234.317Z" fill="black"/>
<path d="M40.0195 234.854C40.0195 234.854 46.4334 193.453 68.9486 183.32C91.5307 173.121 121.996 174.53 130.415 179.63C138.833 184.729 160.747 207.678 160.747 207.678L141.372 234.854C141.372 234.854 145.781 307.994 142.307 327.319C142.307 327.319 120.727 329.869 111.574 326.246C102.421 322.622 72.356 317.59 57.9917 324.166L60.5973 231.566L40.0195 234.854Z" fill="url(#paint7_linear_1089_2369)"/>
<path d="M127.141 329.131C121.395 329.131 115.249 328.661 111.24 327.118C101.82 323.36 72.0887 318.73 58.4593 325.038C58.1253 325.172 57.7912 325.172 57.4572 324.971C57.1899 324.769 56.9895 324.434 56.9895 324.098L59.5951 232.707L40.1532 235.793C39.8191 235.861 39.4851 235.726 39.2846 235.525C39.0842 235.324 38.9506 234.988 39.0174 234.653C39.2846 232.908 45.7653 192.58 68.5478 182.314C90.8626 172.249 121.796 173.188 130.949 178.69C139.367 183.79 160.613 206 161.482 206.94C161.816 207.275 161.883 207.812 161.548 208.215L142.374 235.122C142.775 241.296 146.65 308.732 143.242 327.454C143.175 327.856 142.841 328.192 142.374 328.259C141.906 328.326 134.824 329.131 127.141 329.131ZM77.5672 319.938C91.2635 319.938 106.029 322.958 111.975 325.306C119.859 328.393 137.563 326.783 141.438 326.447C144.645 306.384 140.436 235.726 140.369 234.988C140.369 234.787 140.436 234.518 140.57 234.317L159.477 207.812C155.936 204.189 137.363 184.998 129.947 180.502C122.063 175.738 91.8648 174.127 69.4163 184.26C49.9075 193.05 42.6252 226.466 41.2889 233.713L60.5305 230.627C60.7977 230.56 61.1318 230.694 61.3322 230.895C61.5326 231.096 61.6663 231.365 61.6663 231.7L59.1274 322.756C64.1383 320.676 70.7525 319.938 77.5672 319.938Z" fill="black"/>
<path d="M77.8349 306.048C77.3672 306.048 76.9663 305.713 76.8327 305.243C76.7659 304.706 77.0999 304.17 77.6344 304.103C111.641 298.063 121.596 274.444 121.663 274.175C121.863 273.639 122.465 273.437 122.999 273.639C123.533 273.84 123.734 274.444 123.533 274.981C123.467 275.249 113.111 299.875 77.9685 306.116C77.9685 306.048 77.9017 306.048 77.8349 306.048Z" fill="black"/>
<path d="M139.768 263.775H95.873L109.636 214.522H153.531L139.768 263.775Z" fill="black"/>
<path d="M43.8941 234.988L66.0753 224.99C66.0753 224.99 62.9352 262.768 107.899 245.322C107.899 245.322 106.229 240.491 106.496 234.787C106.763 229.083 110.104 234.586 110.571 239.216C111.039 243.846 121.595 241.967 127.942 240.155C134.289 238.343 142.574 239.551 127.942 247.67C113.311 255.79 110.037 252.166 110.037 252.166C110.037 252.166 91.3298 278.47 68.0128 272.901C39.351 266.056 43.8941 234.988 43.8941 234.988Z" fill="white"/>
<path d="M74.4932 274.712C72.2884 274.712 70.0836 274.444 67.7453 273.907C38.5489 266.928 42.758 235.19 42.8248 234.854C42.8916 234.519 43.092 234.25 43.4261 234.049L65.6741 224.118C66.0082 223.984 66.3422 223.984 66.6763 224.185C66.9435 224.386 67.144 224.722 67.0771 225.057C67.0771 225.192 66.075 238.679 74.8272 245.255C81.5751 250.287 92.2649 250.153 106.629 244.718C106.162 242.973 105.226 239.149 105.427 234.72C105.493 233.915 105.56 231.365 107.297 231.365C109.502 231.298 111.239 236.397 111.506 239.081C111.573 239.551 111.774 239.954 112.241 240.222C114.58 241.833 121.662 240.826 127.608 239.081C130.347 238.276 135.826 237.471 136.895 240.021C137.763 242.101 135.091 244.718 128.343 248.409C117.052 254.649 112.108 254.179 110.237 253.374C107.364 257.333 92.8661 274.712 74.4932 274.712ZM44.8291 235.659C44.6287 237.538 44.161 244.114 46.2321 251.16C49.3723 262.164 56.8551 269.143 68.2797 271.961C70.4177 272.498 72.4888 272.699 74.56 272.699C94.0019 272.699 109.101 251.831 109.235 251.629C109.435 251.361 109.702 251.227 109.97 251.227C110.304 251.227 110.571 251.361 110.771 251.562C110.771 251.562 114.045 254.246 127.407 246.865C135.157 242.571 135.024 240.96 135.024 240.96C134.69 240.491 131.817 240.155 128.142 241.229C125.136 242.101 114.981 244.718 111.106 242.101C110.17 241.497 109.636 240.558 109.502 239.484C109.235 237.068 108.233 234.72 107.565 233.848C107.498 234.116 107.498 234.452 107.431 234.988C107.23 240.424 108.767 245.121 108.834 245.121C109.034 245.657 108.767 246.194 108.233 246.396C92.7325 252.435 81.1074 252.636 73.6246 246.999C65.8077 241.095 65.006 230.694 65.006 226.668L44.8291 235.659Z" fill="black"/>
<path d="M103.156 164.398C101.219 166.143 97.4771 168.29 94.5374 166.814C92.3327 165.74 91.1301 162.855 91.1969 159.567C90.1947 159.634 88.8585 159.567 87.9232 158.761C86.4533 157.487 86.7206 155.071 86.7874 153.528C87.0546 146.281 82.8455 145.207 83.9145 140.309C84.7162 136.484 87.7227 134.135 88.324 133.733C91.1969 131.585 93.0676 132.257 97.878 130.982C105.895 128.834 106.163 125.412 111.507 125.345C111.841 125.345 119.057 125.412 121.462 130.445C123.467 134.538 121.128 139.436 118.723 142.053C115.583 145.408 113.378 143.731 110.238 146.549C104.693 151.582 108.835 159.164 103.156 164.398Z" fill="black"/>
<path d="M119.19 151.515L118.856 151.247C117.252 149.837 115.582 148.294 115.181 146.214C113.377 137.424 105.36 134.203 105.026 142.322C104.959 144.335 97.543 144.268 98.4116 146.415C100.683 151.985 100.75 150.508 97.543 152.521C97.209 152.521 96.8081 152.589 96.4741 152.79C94.8038 153.595 94.2025 155.809 95.1378 157.822C95.6723 159.03 96.6745 159.903 97.7435 160.171V168.961C97.7435 172.249 95.7391 175.202 92.7327 176.477L89.793 177.684C89.793 177.684 103.623 186.743 117.586 176.812L115.716 175.94C112.442 174.464 110.237 171.243 110.17 167.619V165.875C111.106 165.942 112.041 165.875 112.843 165.673C116.785 164.533 118.054 159.97 117.386 154.333L118.989 153.461C119.724 153.125 119.858 152.119 119.19 151.515Z" fill="white"/>
<path d="M103.423 182.449C95.3389 182.449 89.3259 178.624 89.1923 178.557C88.8582 178.355 88.7246 178.02 88.7246 177.617C88.7914 177.215 88.9918 176.946 89.3259 176.812L92.2656 175.604C94.938 174.531 96.6751 171.914 96.6751 169.028V160.909C95.6061 160.372 94.6708 159.433 94.1363 158.292C93.0005 155.809 93.8022 152.924 95.9402 151.918C96.2742 151.716 96.6751 151.649 97.1428 151.582C97.6773 151.247 98.0781 151.045 98.4122 150.844C98.6126 150.71 98.8131 150.643 98.9467 150.508C98.8799 150.173 98.5458 149.502 98.2786 148.831C98.0113 148.294 97.7441 147.623 97.41 146.818C97.2096 146.281 97.2096 145.811 97.41 145.342C97.9445 144.268 99.4812 143.798 101.218 143.329C102.087 143.06 103.69 142.658 103.957 142.255C104.225 137.357 106.964 136.753 107.833 136.686C110.839 136.417 114.848 139.974 116.117 146.013C116.451 147.824 118.055 149.233 119.458 150.508L119.792 150.777C120.326 151.247 120.593 151.985 120.527 152.723C120.46 153.461 119.992 154.065 119.391 154.4L118.389 154.937C118.99 161.245 117.052 165.472 113.044 166.68C112.442 166.881 111.774 166.948 111.106 166.948V167.619C111.173 170.84 113.177 173.725 116.05 175.067L117.921 175.94C118.255 176.074 118.455 176.409 118.522 176.745C118.589 177.08 118.389 177.483 118.121 177.684C113.044 181.308 107.966 182.449 103.423 182.449ZM92.132 177.886C96.007 179.765 105.494 183.187 115.583 177.013L115.382 176.946C111.774 175.336 109.369 171.712 109.236 167.686V165.942C109.236 165.673 109.369 165.405 109.57 165.204C109.77 165.002 110.037 164.935 110.371 164.935C111.24 165.002 111.975 164.935 112.71 164.734C117.119 163.459 116.852 157.151 116.518 154.467C116.451 154.065 116.652 153.662 117.052 153.461L118.656 152.589C118.723 152.521 118.79 152.454 118.79 152.454C118.79 152.387 118.79 152.32 118.723 152.253L118.389 151.985C116.718 150.508 114.848 148.764 114.38 146.348C113.311 141.114 110.104 138.43 108.233 138.632C106.496 138.766 106.229 141.248 106.162 142.322C106.095 144 104.024 144.604 101.953 145.207C101.151 145.409 99.882 145.811 99.4812 146.08C99.8152 146.818 100.082 147.422 100.283 147.959C101.352 150.508 101.753 151.314 99.4812 152.521C99.1471 152.723 98.6794 152.924 98.1449 153.327C98.0113 153.394 97.8109 153.461 97.6773 153.461C97.41 153.461 97.2096 153.528 97.0092 153.595C95.8734 154.132 95.4725 155.809 96.2074 157.286C96.6083 158.158 97.3432 158.896 98.2118 159.097C98.6126 159.232 98.9467 159.634 98.9467 160.037V168.827C98.9467 172.585 96.7419 175.873 93.2678 177.282L92.132 177.886Z" fill="black"/>
<path d="M110.171 166.948C110.104 166.948 110.037 166.948 110.037 166.948C104.158 166.076 101.552 161.513 101.419 161.379C101.152 160.909 101.285 160.305 101.82 160.037C102.287 159.768 102.889 159.902 103.156 160.372C103.156 160.439 105.427 164.264 110.305 165.002C110.839 165.069 111.24 165.606 111.173 166.143C111.04 166.546 110.639 166.948 110.171 166.948Z" fill="black"/>
</g>
<defs>
<linearGradient id="paint0_linear_1089_2369" x1="278.262" y1="-0.0186768" x2="278.262" y2="556.028" gradientUnits="userSpaceOnUse">
<stop stop-color="#40C4FF"/>
<stop offset="1" stop-color="#0D47DE"/>
</linearGradient>
<linearGradient id="paint1_linear_1089_2369" x1="67.1439" y1="55.1571" x2="67.1439" y2="112.797" gradientUnits="userSpaceOnUse">
<stop stop-color="#006EFF"/>
<stop offset="1" stop-color="#0034BB"/>
</linearGradient>
<linearGradient id="paint2_linear_1089_2369" x1="148.185" y1="4.42859" x2="148.185" y2="102.799" gradientUnits="userSpaceOnUse">
<stop stop-color="#006EFF"/>
<stop offset="1" stop-color="#0034BB"/>
</linearGradient>
<linearGradient id="paint3_linear_1089_2369" x1="331.5" y1="300.168" x2="301.331" y2="348.752" gradientUnits="userSpaceOnUse">
<stop stop-color="#006EFF"/>
<stop offset="0.929016" stop-color="#0034BB"/>
</linearGradient>
<linearGradient id="paint4_linear_1089_2369" x1="342.001" y1="314.223" x2="357.07" y2="332.235" gradientUnits="userSpaceOnUse">
<stop stop-color="#006EFF"/>
<stop offset="1" stop-color="#0034BB"/>
</linearGradient>
<linearGradient id="paint5_linear_1089_2369" x1="507.685" y1="256.619" x2="507.685" y2="350.87" gradientUnits="userSpaceOnUse">
<stop stop-color="#006EFF"/>
<stop offset="1" stop-color="#0034BB"/>
</linearGradient>
<linearGradient id="paint6_linear_1089_2369" x1="461.731" y1="269.948" x2="461.731" y2="315.845" gradientUnits="userSpaceOnUse">
<stop stop-color="#006EFF"/>
<stop offset="1" stop-color="#0034BB"/>
</linearGradient>
<linearGradient id="paint7_linear_1089_2369" x1="100.383" y1="175.706" x2="100.383" y2="328.191" gradientUnits="userSpaceOnUse">
<stop stop-color="#006EFF"/>
<stop offset="1" stop-color="#0034BB"/>
</linearGradient>
<clipPath id="clip0_1089_2369">
<rect width="556" height="556" fill="white"/>
</clipPath>
</defs>
</svg>
