<svg width="294" height="294" viewBox="0 0 294 294" fill="none" xmlns="http://www.w3.org/2000/svg">
<path d="M106.692 16.361C90.3783 22.6021 20.8681 49.3293 3.77424 113.715C-15.6957 187.162 42.5723 273.585 123.112 289.522C206.666 306.059 301.001 267.202 293.589 207.048C290.22 179.581 252.593 171.295 254.33 138.961C256.033 107.403 296.001 91.959 291.816 54.4068C291.568 52.0444 290.717 44.9923 287.135 37.905C266.92 -2.22117 175.174 -9.9079 106.692 16.361Z" fill="url(#paint0_linear_1100_2507)"/>
<path d="M30.1932 41.2193H186.556C191.485 41.2193 196.167 45.4153 196.982 50.4575L232.482 266.92C233.298 271.962 229.964 276.053 225.035 276.053H68.6721C63.7425 276.053 59.0612 272.033 58.2456 266.991L22.7811 50.4575C21.93 45.4153 25.2636 41.2193 30.1932 41.2193Z" fill="#0152DD"/>
<path d="M35.2285 40.1616H191.556C196.485 40.1616 201.167 44.2165 201.982 49.294L237.482 266.956C238.298 272.033 234.964 276.053 230.035 276.053H73.7074C68.7779 276.053 64.0966 271.998 63.2809 266.92L27.781 49.2587C26.9653 44.1812 30.299 40.1616 35.2285 40.1616Z" fill="#CADDFF"/>
<path d="M79.7707 252.428H216.273L184.036 54.6182H47.498L79.7707 252.428Z" fill="white"/>
<path d="M175.942 105.745H72.3856L71.3926 99.7511H174.949L175.942 105.745Z" fill="#CADDFF"/>
<path d="M150.904 117.734H74.4071L73.4141 111.74H149.911L150.904 117.734Z" fill="#CADDFF"/>
<path d="M181.549 138.89H78.0285L77 132.896H180.556L181.549 138.89Z" fill="#CADDFF"/>
<path d="M156.544 150.879H80.0477L79.0547 144.884H155.551L156.544 150.879Z" fill="#CADDFF"/>
<path d="M187.152 172.035H83.631L82.4961 165.688H186.052L187.152 172.035Z" fill="#CADDFF"/>
<path d="M162.15 184.376H85.6532L84.6602 178.382H161.157L162.15 184.376Z" fill="#CADDFF"/>
<path d="M192.65 204.968L89.1297 204.933L88.1367 198.833H191.657L192.65 204.968Z" fill="#CADDFF"/>
<path d="M167.754 217.521H91.2576L90.1582 211.174H166.655L167.754 217.521Z" fill="#CADDFF"/>
<path d="M165.702 276.758H116.051C115.768 276.758 115.52 276.511 115.52 276.229C115.52 275.947 115.768 275.7 116.051 275.7H165.702C165.985 275.7 166.234 275.947 166.234 276.229C166.234 276.546 165.985 276.758 165.702 276.758Z" fill="black"/>
<path d="M84.4898 253.134H79.773C79.5248 253.134 79.2765 252.957 79.241 252.675L46.9684 54.5125C46.933 54.3714 47.0039 54.1951 47.0748 54.0893C47.1812 53.9835 47.3231 53.913 47.4649 53.913H176.662C176.946 53.913 177.194 54.1598 177.194 54.4419C177.194 54.724 176.946 54.9708 176.662 54.9708H48.1387L80.234 252.076H84.4898C84.7735 252.076 85.0217 252.323 85.0217 252.605C85.0217 252.922 84.7735 253.134 84.4898 253.134Z" fill="black"/>
<path d="M216.276 253.134H202.586C202.303 253.134 202.054 252.887 202.054 252.605C202.054 252.323 202.303 252.076 202.586 252.076H215.673L190.245 95.8023C190.209 95.5202 190.387 95.2382 190.67 95.2029C190.954 95.1676 191.238 95.3439 191.273 95.626L216.808 252.499C216.843 252.64 216.772 252.816 216.701 252.922C216.595 253.063 216.453 253.134 216.276 253.134Z" fill="black"/>
<path d="M71.0842 66.0779H159.781C163.398 66.0779 165.845 63.0808 165.242 59.3785L163.646 49.6466C162.263 41.1842 154.461 34.3437 146.233 34.3437H74.2406C66.0128 34.3437 60.4449 41.1842 61.828 49.6466L63.4239 59.3785C64.0623 63.1161 67.4669 66.0779 71.0842 66.0779Z" fill="black"/>
<path d="M159.777 66.6066H71.0808C67.2151 66.6066 63.5623 63.398 62.9239 59.4841L61.328 49.7522C60.6187 45.38 61.6472 41.2898 64.2361 38.2574C66.6832 35.4013 70.2296 33.8499 74.2371 33.8499H146.23C154.706 33.8499 162.756 40.9019 164.175 49.6112L165.771 59.343C166.09 61.3529 165.629 63.2217 164.423 64.6321C163.288 65.9014 161.657 66.6066 159.777 66.6066ZM74.2726 34.8724C70.5843 34.8724 67.2861 36.3181 65.0518 38.9273C62.6757 41.7129 61.7181 45.521 62.3565 49.5759L63.9524 59.3078C64.5198 62.7633 67.7116 65.5488 71.0808 65.5488H159.777C161.302 65.5488 162.685 64.9494 163.607 63.8916C164.6 62.728 164.991 61.1766 164.707 59.4841L163.111 49.7522C161.763 41.5719 154.209 34.9077 146.23 34.9077H74.2726V34.8724Z" fill="black"/>
<path d="M73.2815 66.0777H161.978C165.595 66.0777 168.042 63.0806 167.44 59.3783L165.844 49.6465C164.461 41.184 156.658 34.3435 148.431 34.3435H76.4378C68.2101 34.3435 62.6422 41.184 64.0253 49.6465L65.6212 59.3783C66.2596 63.1159 69.6641 66.0777 73.2815 66.0777Z" fill="#5495F7"/>
<path d="M162.012 66.6068H73.28C69.4143 66.6068 65.7615 63.3981 65.1232 59.4842L63.5273 49.7524C62.818 45.3801 63.8464 41.2899 66.4353 38.2575C68.8824 35.4014 72.4288 33.85 76.4363 33.85H148.429C156.905 33.85 164.955 40.902 166.374 49.6113L167.97 59.3431C168.289 61.353 167.828 63.2218 166.622 64.6322C165.487 65.9016 163.856 66.6068 162.012 66.6068ZM76.4718 34.8725C72.7835 34.8725 69.4853 36.3182 67.251 38.9275C64.8749 41.713 63.9174 45.5211 64.5557 49.5761L66.1516 59.3079C66.719 62.7634 69.9108 65.5489 73.28 65.5489H161.976C163.501 65.5489 164.885 64.9495 165.807 63.8917C166.8 62.7281 167.19 61.1767 166.906 59.4842L165.31 49.7524C163.962 41.572 156.409 34.9078 148.429 34.9078H76.4718V34.8725Z" fill="black"/>
<path d="M91.5477 17.8063L95.9453 44.7451C96.4418 47.7775 99.2435 50.2457 102.187 50.2457H125.062C128.005 50.2457 129.991 47.7775 129.495 44.7451L125.097 17.8063C123.537 8.286 114.777 0.528748 105.485 0.528748C96.2644 0.528748 90.0227 8.25074 91.5477 17.8063ZM102.506 13.9629C102.01 11.001 103.96 8.60335 106.868 8.60335C109.741 8.60335 112.472 11.001 112.968 13.9629C113.465 16.9248 111.514 19.3225 108.606 19.3225C105.698 19.3225 102.967 16.9248 102.506 13.9629Z" fill="black"/>
<path d="M125.061 50.7395H102.186C98.9943 50.7395 95.9444 48.0597 95.4124 44.7805L91.0149 17.8417C90.1992 12.9053 91.3695 8.32142 94.313 4.90118C97.0438 1.76301 101.051 0 105.52 0C115.024 0 124.032 7.93356 125.628 17.7007L130.026 44.6395C130.309 46.2967 129.884 47.8834 128.891 49.047C127.969 50.1401 126.586 50.7395 125.061 50.7395ZM92.0788 17.7007L96.4764 44.6395C96.9374 47.4251 99.4908 49.6817 102.186 49.6817H125.061C126.266 49.6817 127.366 49.2233 128.111 48.3418C128.891 47.4251 129.21 46.1557 128.997 44.7805L124.6 17.8417C123.075 8.6035 114.528 1.05781 105.52 1.05781C101.335 1.05781 97.6467 2.67978 95.1287 5.64164C92.398 8.81507 91.334 13.1168 92.0788 17.7007ZM108.605 19.8515C105.484 19.8515 102.505 17.2423 101.973 14.0336C101.69 12.4116 102.115 10.8602 103.073 9.73183C103.995 8.63876 105.342 8.0746 106.832 8.0746C109.953 8.0746 112.932 10.6839 113.464 13.8925C113.748 15.5145 113.322 17.066 112.364 18.1943C111.442 19.2521 110.095 19.8515 108.605 19.8515ZM106.832 9.13241C105.626 9.13241 104.598 9.59079 103.888 10.437C103.108 11.3538 102.824 12.5527 103.037 13.8925C103.463 16.6076 105.981 18.829 108.605 18.829C109.811 18.829 110.839 18.3706 111.549 17.5244C112.329 16.6076 112.613 15.4087 112.4 14.0688C111.974 11.3185 109.456 9.13241 106.832 9.13241Z" fill="black"/>
<path d="M92.9969 17.8063L97.3945 44.7451C97.891 47.7775 100.693 50.2457 103.636 50.2457H126.511C129.454 50.2457 131.44 47.7775 130.944 44.7451L126.546 17.8063C124.986 8.286 116.226 0.528748 106.934 0.528748C97.6782 0.528748 91.4365 8.25074 92.9969 17.8063ZM103.92 13.9629C103.423 11.001 105.374 8.60335 108.282 8.60335C111.155 8.60335 113.885 11.001 114.382 13.9629C114.878 16.9248 112.928 19.3225 110.02 19.3225C107.112 19.3225 104.416 16.9248 103.92 13.9629Z" fill="#5495F7"/>
<path d="M126.475 50.7396H103.6C100.408 50.7396 97.3585 48.0598 96.8265 44.7806L92.4289 17.8418C91.6132 12.9053 92.7836 8.32148 95.7271 4.90124C98.4933 1.76307 102.465 6.10352e-05 106.934 6.10352e-05C116.438 6.10352e-05 125.446 7.93362 127.042 17.7007L131.44 44.6396C131.723 46.2968 131.298 47.8835 130.305 49.0471C129.383 50.1402 128.035 50.7396 126.475 50.7396ZM106.934 1.05787C102.749 1.05787 99.0608 2.67984 96.5428 5.6417C93.812 8.81513 92.7481 13.1169 93.4928 17.7007L97.8904 44.6396C98.3515 47.4251 100.905 49.6818 103.6 49.6818H126.475C127.681 49.6818 128.78 49.2234 129.525 48.3419C130.305 47.4251 130.624 46.1557 130.411 44.7806L126.014 17.8418C124.524 8.60356 115.942 1.05787 106.934 1.05787ZM110.019 19.8516C106.898 19.8516 103.919 17.2423 103.387 14.0336C103.104 12.4117 103.529 10.8602 104.487 9.73189C105.409 8.63883 106.757 8.07466 108.246 8.07466C111.367 8.07466 114.346 10.6839 114.878 13.8926C115.162 15.5146 114.736 17.066 113.778 18.1944C112.856 19.2522 111.509 19.8516 110.019 19.8516ZM104.451 13.8573C104.877 16.5724 107.395 18.7938 110.019 18.7938C111.225 18.7938 112.254 18.3354 112.963 17.4892C113.743 16.5724 114.027 15.3735 113.814 14.0336C113.388 11.3186 110.87 9.09721 108.246 9.09721C107.04 9.09721 106.012 9.55559 105.302 10.4018C104.522 11.3186 104.239 12.5527 104.451 13.8573Z" fill="black"/>
<path d="M108.722 88.8296L109.87 95.9321L106.825 95.9267L105.935 91.4103L104.222 91.4073L103.712 88.8209L108.722 88.8296ZM91.7367 91.3855L88.0469 72.6504L91.3692 72.6562L94.5547 88.8306L103.058 88.8455L99.8726 72.671L103.195 72.6768L106.885 91.4119L91.7367 91.3855Z" fill="#BC0F38"/>
<path d="M117.983 91.6885C116.929 91.6867 115.942 91.5178 115.024 91.1817C114.112 90.8371 113.298 90.3598 112.58 89.7497C111.871 89.1396 111.278 88.4225 110.799 87.5984C110.32 86.7743 109.987 85.8862 109.8 84.934L109.698 84.4193C109.484 83.3299 109.452 82.3436 109.603 81.4606C109.755 80.5776 110.059 79.8235 110.515 79.1983C110.97 78.5645 111.56 78.0811 112.286 77.7479C113.011 77.4147 113.835 77.2489 114.758 77.2506C115.777 77.2523 116.702 77.4212 117.533 77.7571C118.363 78.0929 119.089 78.5659 119.71 79.1758C120.338 79.7772 120.857 80.4941 121.267 81.3266C121.686 82.1592 121.994 83.0773 122.192 84.081L122.453 85.4063L111.431 85.3871L110.993 83.161L118.876 83.1748L118.828 82.9303C118.701 82.3726 118.484 81.8492 118.176 81.3598C117.878 80.8705 117.488 80.4754 117.007 80.1744C116.526 79.8734 115.934 79.7223 115.231 79.7211C114.704 79.7202 114.255 79.8309 113.886 80.0532C113.524 80.2669 113.247 80.5794 113.056 80.9907C112.865 81.402 112.752 81.8992 112.717 82.4823C112.69 83.0568 112.747 83.7043 112.889 84.4249L112.99 84.9396C113.11 85.5486 113.305 86.115 113.575 86.6385C113.852 87.1535 114.196 87.6043 114.606 87.9909C115.016 88.3776 115.48 88.6828 115.999 88.9067C116.516 89.1219 117.077 89.2301 117.684 89.2312C118.448 89.2325 119.1 89.0836 119.639 88.7844C120.177 88.4852 120.612 88.0615 120.943 87.5132L122.929 89.0988C122.708 89.5358 122.391 89.9554 121.978 90.3578C121.564 90.7515 121.025 91.0721 120.362 91.3197C119.708 91.5672 118.915 91.6902 117.983 91.6885Z" fill="#BC0F38"/>
<path d="M134.266 83.356L134.747 85.8008L127.364 85.7879L126.883 83.3431L134.266 83.356ZM126.66 77.5286L129.402 91.4512L126.225 91.4457L123.483 77.523L126.66 77.5286ZM135.414 77.5439L138.156 91.4665L134.979 91.461L132.237 77.5383L135.414 77.5439Z" fill="#BC0F38"/>
<path d="M149.037 88.6942L147.729 82.0546C147.631 81.557 147.454 81.128 147.199 80.7674C146.943 80.4067 146.607 80.1275 146.19 79.9295C145.782 79.7315 145.297 79.6321 144.734 79.6311C144.216 79.6302 143.785 79.7152 143.44 79.8861C143.096 80.057 142.847 80.2881 142.694 80.5794C142.54 80.8707 142.5 81.2008 142.573 81.5697L139.409 81.5641C139.3 81.0151 139.332 80.4835 139.503 79.9693C139.674 79.455 139.979 78.9968 140.418 78.5945C140.858 78.1922 141.415 77.8759 142.09 77.6456C142.765 77.4152 143.551 77.3008 144.447 77.3024C145.519 77.3043 146.503 77.4818 147.399 77.8349C148.303 78.1881 149.062 78.7211 149.677 79.4339C150.299 80.1382 150.715 81.0222 150.924 82.0859L152.143 88.2752C152.268 88.91 152.425 89.4805 152.612 89.9868C152.807 90.4845 153.029 90.9179 153.277 91.2871L153.318 91.493L150.061 91.4873C149.846 91.1525 149.644 90.7276 149.454 90.2128C149.272 89.6894 149.133 89.1832 149.037 88.6942ZM148.38 83.0205L148.784 84.9378L146.504 84.9338C145.915 84.9327 145.407 84.9876 144.981 85.0983C144.553 85.2005 144.21 85.3543 143.952 85.5596C143.693 85.765 143.518 86.0133 143.426 86.3048C143.334 86.5962 143.325 86.9263 143.397 87.2952C143.47 87.664 143.624 88.003 143.861 88.3121C144.096 88.6127 144.397 88.849 144.765 89.0212C145.142 89.1934 145.572 89.2799 146.055 89.2807C146.705 89.2818 147.247 89.1542 147.68 88.8977C148.12 88.6326 148.443 88.3116 148.65 87.9346C148.855 87.5491 148.933 87.1848 148.883 86.8417L150.182 88.2203C150.146 88.5718 150.04 88.9489 149.865 89.3517C149.689 89.7544 149.431 90.1399 149.091 90.508C148.757 90.8676 148.328 91.1627 147.802 91.3933C147.285 91.6239 146.658 91.7386 145.919 91.7373C144.988 91.7357 144.122 91.5541 143.321 91.1925C142.519 90.8224 141.851 90.3281 141.316 89.7098C140.78 89.0828 140.434 88.3748 140.278 87.5856C140.133 86.8478 140.145 86.1961 140.315 85.6304C140.492 85.0562 140.819 84.5765 141.297 84.1915C141.783 83.8064 142.411 83.516 143.181 83.3201C143.949 83.1156 144.852 83.0143 145.889 83.0161L148.38 83.0205Z" fill="#BC0F38"/>
<path d="M255.964 105.711C255.397 105.711 254.829 105.499 254.404 105.041C254.014 104.618 253.801 104.089 253.801 103.525C253.801 102.96 254.049 102.431 254.475 102.044C255.326 101.233 256.709 101.268 257.525 102.114C258.341 102.96 258.305 104.336 257.454 105.147C257.028 105.499 256.496 105.711 255.964 105.711ZM255.964 102.502C255.681 102.502 255.432 102.608 255.22 102.784C255.007 102.996 254.9 103.242 254.9 103.525C254.9 103.807 255.007 104.089 255.184 104.3C255.61 104.723 256.284 104.759 256.709 104.336C257.135 103.912 257.17 103.242 256.745 102.819C256.567 102.608 256.248 102.502 255.964 102.502Z" fill="black"/>
<path d="M267.49 93.3345C266.674 93.3345 265.858 93.0171 265.255 92.3824C264.085 91.1836 264.156 89.2443 265.362 88.0807C265.965 87.5165 266.709 87.2344 267.561 87.2344C268.376 87.2697 269.121 87.587 269.689 88.1865C270.859 89.3853 270.788 91.3246 269.582 92.4882C268.979 93.0524 268.235 93.3345 267.49 93.3345ZM267.49 88.3275C266.993 88.3275 266.497 88.5038 266.106 88.8564C265.291 89.5969 265.291 90.8662 266.036 91.6772C266.78 92.4882 268.057 92.4882 268.873 91.7478C269.689 91.0073 269.689 89.7379 268.944 88.9269C268.518 88.5391 267.986 88.3275 267.49 88.3275Z" fill="black"/>
<path d="M221.317 84.484C220.998 84.484 220.785 84.2372 220.785 83.9551L220.856 82.0158C220.856 81.7338 221.104 81.4869 221.388 81.4869C221.672 81.4869 221.921 81.7338 221.921 82.0158L221.85 83.9551C221.85 84.2725 221.637 84.484 221.317 84.484Z" fill="black"/>
<path d="M221.528 77.6789C221.209 77.6789 220.996 77.4321 220.996 77.15L221.067 75.2107C221.067 74.9286 221.315 74.6818 221.599 74.6818C221.883 74.6818 222.131 74.9286 222.131 75.2107L222.06 77.15C222.06 77.4321 221.812 77.6789 221.528 77.6789Z" fill="black"/>
<path d="M225.856 80.2174L223.87 80.1822C223.586 80.1822 223.338 79.9354 223.338 79.6534C223.338 79.3714 223.586 79.1247 223.87 79.1247L225.821 79.1599C226.104 79.1599 226.353 79.4067 226.353 79.6887C226.388 79.9707 226.175 80.2174 225.856 80.2174Z" fill="black"/>
<path d="M219.01 80.041L217.024 80.0057C216.74 80.0057 216.492 79.7589 216.492 79.4769C216.492 79.1949 216.74 78.9482 217.024 78.9482L218.975 78.9834C219.259 78.9834 219.507 79.2302 219.507 79.5122C219.543 79.8294 219.294 80.041 219.01 80.041Z" fill="black"/>
<path d="M237.911 42.6291C237.805 42.6291 237.698 42.5939 237.627 42.5234C237.379 42.3471 237.308 42.0299 237.485 41.7831L238.585 40.1616C238.763 39.9149 239.082 39.8444 239.33 40.0206C239.579 40.1969 239.65 40.5141 239.472 40.7609L238.372 42.3824C238.266 42.5586 238.088 42.6291 237.911 42.6291Z" fill="black"/>
<path d="M241.778 36.9875C241.672 36.9875 241.565 36.9523 241.494 36.8818C241.246 36.7055 241.175 36.3883 241.352 36.1415L242.452 34.52C242.63 34.2733 242.949 34.2028 243.197 34.379C243.446 34.5553 243.517 34.8725 243.339 35.1193L242.239 36.7408C242.098 36.8818 241.956 36.9875 241.778 36.9875Z" fill="black"/>
<path d="M244.082 41.4306C243.976 41.4306 243.869 41.3953 243.798 41.3248L242.166 40.2321C241.918 40.0558 241.847 39.7386 242.024 39.4918C242.202 39.2451 242.521 39.1746 242.769 39.3508L244.402 40.4436C244.65 40.6198 244.721 40.9371 244.543 41.1838C244.402 41.3601 244.224 41.4306 244.082 41.4306Z" fill="black"/>
<path d="M238.373 37.6222C238.267 37.6222 238.16 37.587 238.089 37.5165L236.457 36.4237C236.209 36.2475 236.138 35.9302 236.315 35.6835C236.493 35.4367 236.812 35.3662 237.06 35.5425L238.693 36.6352C238.941 36.8115 239.012 37.1287 238.834 37.3755C238.693 37.5517 238.515 37.6222 238.373 37.6222Z" fill="black"/>
<path d="M225.537 25.9168C225.324 25.9168 225.111 25.7757 225.04 25.5642C224.828 24.9295 224.544 24.2948 224.26 23.6954C224.118 23.4486 224.224 23.1312 224.508 22.9902C224.757 22.8491 225.076 22.9549 225.218 23.237C225.537 23.8717 225.821 24.5769 226.069 25.2468C226.176 25.5289 226.034 25.811 225.75 25.9168C225.644 25.8815 225.573 25.9168 225.537 25.9168Z" fill="black"/>
<path d="M188.656 31.9464C188.372 31.9464 188.089 31.9111 187.805 31.8406C186.528 31.5232 185.429 31.0648 184.613 30.5007C184.365 30.3244 184.329 30.007 184.471 29.7602C184.649 29.5134 184.968 29.4781 185.216 29.6192C185.961 30.1128 186.918 30.5359 188.053 30.818C188.337 30.8885 188.621 30.8885 188.94 30.8885C189.224 30.8533 189.507 31.0648 189.507 31.3469C189.543 31.629 189.33 31.9111 189.046 31.9111C188.904 31.9464 188.798 31.9464 188.656 31.9464ZM192.77 29.9013C192.628 29.9013 192.486 29.8307 192.38 29.725C192.167 29.5134 192.167 29.196 192.38 28.9845C193.337 28.0677 194.224 26.9041 194.898 25.6348C195.04 25.3879 195.359 25.2822 195.607 25.4232C195.855 25.5642 195.962 25.8816 195.82 26.1284C195.075 27.5036 194.118 28.7377 193.089 29.725C193.018 29.866 192.912 29.9013 192.77 29.9013ZM182.698 26.9747C182.45 26.9747 182.202 26.7984 182.166 26.5163C182.131 26.34 182.131 26.1989 182.095 26.0226C182.06 25.7405 182.06 25.4585 182.06 25.1764C182.06 24.0833 182.272 23.0255 182.627 21.9677C182.734 21.6856 183.053 21.5446 183.301 21.6504C183.585 21.7561 183.727 22.0735 183.62 22.3203C183.265 23.2371 183.088 24.1891 183.088 25.1411C183.088 25.3879 183.088 25.6348 183.124 25.9168C183.124 26.0579 183.159 26.1989 183.159 26.34C183.195 26.6221 183.017 26.9041 182.698 26.9394C182.769 26.9747 182.734 26.9747 182.698 26.9747ZM196.848 22.3556C196.813 22.3556 196.813 22.3556 196.777 22.3556C196.494 22.3203 196.281 22.0382 196.316 21.7561C196.387 21.333 196.423 20.9451 196.423 20.5573C196.423 20.2047 196.387 19.8521 196.352 19.4995C196.245 18.9353 196.068 18.3359 195.784 17.807C195.643 17.5602 195.749 17.2428 196.033 17.1018C196.281 16.9607 196.6 17.0665 196.742 17.3486C197.061 17.9833 197.274 18.6532 197.38 19.3232C197.451 19.711 197.487 20.1342 197.487 20.522C197.487 20.9451 197.451 21.4035 197.38 21.8619C197.309 22.144 197.097 22.3556 196.848 22.3556ZM222.205 20.381C222.064 20.381 221.922 20.3105 221.815 20.2047C220.893 19.1821 219.794 18.3006 218.588 17.4896C218.34 17.3133 218.269 16.996 218.446 16.7492C218.624 16.5024 218.943 16.4318 219.191 16.6081C220.468 17.4544 221.638 18.4064 222.631 19.4995C222.844 19.711 222.808 20.0636 222.596 20.2399C222.489 20.3457 222.347 20.381 222.205 20.381ZM185.606 19.1469C185.464 19.1469 185.322 19.0764 185.216 18.9706C185.003 18.759 185.039 18.4064 185.251 18.2301C186.032 17.5249 186.883 16.996 187.84 16.5729C188.301 16.3613 188.727 16.185 189.188 16.0087C189.472 15.9029 189.755 16.044 189.897 16.2908C190.004 16.5729 189.862 16.855 189.614 16.996C189.188 17.1723 188.727 17.3486 188.301 17.5602C187.45 17.948 186.67 18.4417 185.996 19.0411C185.854 19.1116 185.713 19.1469 185.606 19.1469ZM156.951 16.7844C156.809 16.7844 156.667 16.7139 156.561 16.6081C156.383 16.3966 156.383 16.044 156.632 15.8677C157.767 14.9156 158.972 14.0341 160.214 13.2232C160.462 13.0469 160.781 13.1174 160.958 13.3642C161.1 13.611 161.065 13.9284 160.817 14.1047C159.646 14.8804 158.476 15.7266 157.341 16.6434C157.199 16.7492 157.057 16.7844 156.951 16.7844ZM214.971 15.6208C214.9 15.6208 214.829 15.6208 214.793 15.5856C213.517 15.0919 212.134 14.6688 210.679 14.3867C210.396 14.3162 210.218 14.0341 210.254 13.7521C210.325 13.47 210.609 13.2937 210.892 13.3289C212.382 13.6463 213.836 14.0341 215.183 14.563C215.467 14.6688 215.609 14.9862 215.503 15.233C215.396 15.4798 215.183 15.6208 214.971 15.6208ZM193.479 15.5503C193.266 15.5503 193.054 15.4093 192.983 15.1625C192.912 14.9862 192.983 14.7746 193.089 14.6336C192.096 13.8226 190.89 13.0821 189.507 12.4474C189.259 12.3064 189.117 11.989 189.259 11.7422C189.401 11.4954 189.72 11.3544 189.968 11.4954C191.422 12.2006 192.735 12.9763 193.798 13.8578C193.94 13.9636 194.011 14.1399 193.976 14.3162C195.182 13.9636 196.423 13.6815 197.629 13.4347C197.912 13.3642 198.196 13.5758 198.267 13.8578C198.338 14.1399 198.125 14.422 197.841 14.4925C196.458 14.7746 195.04 15.0919 193.657 15.5151C193.586 15.5503 193.55 15.5503 193.479 15.5503ZM202.062 13.9284C201.778 13.9284 201.565 13.7168 201.53 13.4347C201.494 13.1526 201.742 12.9058 202.026 12.8705C203.551 12.7648 205.041 12.7295 206.459 12.8C206.743 12.8 206.991 13.0469 206.956 13.3642C206.956 13.6463 206.672 13.8578 206.388 13.8578C205.005 13.7873 203.551 13.7873 202.097 13.9284C202.097 13.9284 202.097 13.9284 202.062 13.9284ZM164.292 12.0948C164.079 12.0948 163.902 11.989 163.796 11.7775C163.689 11.4954 163.796 11.2133 164.044 11.0723C165.391 10.4376 166.81 9.90869 168.229 9.52082C168.512 9.4503 168.796 9.59134 168.902 9.87343C168.973 10.1555 168.831 10.4376 168.548 10.5434C167.2 10.9312 165.852 11.4249 164.54 12.0243C164.434 12.0596 164.363 12.0948 164.292 12.0948ZM185.677 10.9665C185.642 10.9665 185.571 10.9665 185.535 10.9312C184.188 10.5434 182.769 10.226 181.35 9.97921C181.067 9.94395 180.854 9.66187 180.925 9.37978C180.96 9.0977 181.244 8.88614 181.528 8.95666C183.017 9.20348 184.471 9.52082 185.854 9.94395C186.138 10.0145 186.28 10.3318 186.209 10.6139C186.103 10.8255 185.89 10.9665 185.677 10.9665ZM172.662 9.73239C172.378 9.73239 172.165 9.52082 172.13 9.274C172.094 8.99192 172.307 8.70984 172.591 8.67458C173.016 8.63932 173.442 8.60406 173.832 8.5688C174.86 8.49828 175.924 8.49828 177.024 8.53354C177.307 8.53354 177.556 8.78036 177.52 9.0977C177.52 9.37978 177.272 9.62661 176.953 9.59134C175.889 9.55608 174.86 9.55608 173.867 9.6266C173.477 9.66186 173.052 9.69713 172.662 9.73239C172.697 9.73239 172.697 9.73239 172.662 9.73239Z" fill="black"/>
<path d="M152.375 21.4029C152.269 21.4029 152.127 21.3676 152.056 21.2971C151.843 21.1209 151.807 20.7684 151.985 20.5569C152.446 19.9929 152.907 19.4641 153.404 18.9354C153.617 18.7239 153.936 18.7239 154.149 18.9001C154.362 19.1116 154.362 19.4289 154.184 19.6404C153.688 20.1691 153.262 20.6626 152.801 21.2266C152.659 21.3324 152.517 21.4029 152.375 21.4029Z" fill="black"/>
<path d="M283.023 74.7876C282.987 74.7876 282.952 74.7876 282.916 74.7876C282.633 74.7171 282.455 74.435 282.491 74.1529C289.584 40.1267 270.504 27.4683 261.992 23.6249C261.709 23.5192 261.602 23.2018 261.744 22.9197C261.851 22.6377 262.17 22.5319 262.453 22.6729C267.809 25.1059 275.256 29.866 280.15 38.8221C285.328 48.3071 286.498 60.2604 283.555 74.3645C283.484 74.6113 283.271 74.7876 283.023 74.7876Z" fill="black"/>
<path d="M276.141 76.3391C276.106 76.3391 276.07 76.3391 276.035 76.3391C275.751 76.2685 275.574 75.9865 275.609 75.7044C278.907 59.7667 275.928 46.5794 266.459 35.3314C266.282 35.1198 266.317 34.7672 266.53 34.5909C266.743 34.4146 267.098 34.4499 267.275 34.6614C276.992 46.1563 280.042 59.661 276.673 75.9159C276.602 76.1628 276.389 76.3391 276.141 76.3391Z" fill="black"/>
<path d="M231.809 270.023L231.348 279.508L235.923 279.438L237.306 270.27L231.809 270.023Z" fill="white"/>
<path d="M231.346 280.037C231.205 280.037 231.063 279.966 230.956 279.861C230.85 279.755 230.814 279.614 230.814 279.473L231.311 269.988C231.311 269.847 231.382 269.706 231.488 269.635C231.595 269.529 231.737 269.494 231.878 269.494L237.375 269.776C237.517 269.776 237.659 269.847 237.765 269.953C237.872 270.058 237.907 270.235 237.872 270.376L236.489 279.543C236.453 279.79 236.241 280.002 235.957 280.002L231.346 280.037ZM232.304 270.552L231.878 278.944L235.46 278.909L236.666 270.764L232.304 270.552Z" fill="black"/>
<path d="M236 291.603C234.12 291.708 228.978 291.603 227.524 290.897C226.247 290.263 225.254 287.583 225.963 286.631C227.736 284.269 229.048 280.037 230.183 276.758C230.254 276.582 230.503 276.547 230.609 276.723L231.531 278.239L232.347 276.547C232.489 276.37 232.666 276.229 232.914 276.229L234.51 276.264C234.865 276.264 235.255 276.617 235.468 276.97L236.567 278.451L237.276 277.322C237.383 277.146 237.702 277.217 237.702 277.428L238.482 288.57C238.411 290.333 237.099 291.532 236 291.603Z" fill="white"/>
<path d="M234.402 292.167C232.061 292.167 228.55 291.99 227.273 291.356C226.28 290.862 225.571 289.557 225.323 288.464C225.11 287.548 225.181 286.807 225.536 286.313C227.061 284.233 228.266 280.707 229.33 277.604C229.437 277.252 229.579 276.899 229.685 276.582C229.791 276.3 230.04 276.088 230.323 276.088C230.607 276.053 230.891 276.194 231.068 276.441L231.458 277.111L231.848 276.335C231.848 276.3 231.884 276.3 231.884 276.264C232.097 275.947 232.487 275.735 232.877 275.735H232.912L234.508 275.771C234.508 275.771 234.508 275.771 234.544 275.771C235.146 275.771 235.643 276.264 235.927 276.723L236.53 277.569L236.813 277.111C236.991 276.828 237.31 276.687 237.629 276.758C237.948 276.828 238.196 277.111 238.196 277.428L238.977 288.57V288.605C238.906 290.615 237.416 292.061 236.033 292.167C235.643 292.131 235.076 292.167 234.402 292.167ZM230.501 277.534C230.465 277.675 230.394 277.816 230.359 277.957C229.295 281.13 228.054 284.727 226.422 286.948C226.316 287.124 226.209 287.548 226.387 288.218C226.635 289.205 227.238 290.157 227.805 290.439C229.047 291.038 233.87 291.215 235.998 291.109C236.742 291.074 237.877 290.157 237.913 288.605L237.203 278.415L236.991 278.768C236.884 278.909 236.742 279.015 236.565 279.015C236.388 279.015 236.21 278.944 236.104 278.803L235.005 277.287L234.969 277.252C234.792 276.97 234.579 276.793 234.508 276.793H234.473L232.877 276.758C232.841 276.758 232.806 276.793 232.77 276.828L231.99 278.486C231.919 278.662 231.742 278.768 231.529 278.803C231.352 278.803 231.139 278.697 231.033 278.556L230.501 277.534Z" fill="black"/>
<path d="M233.125 290.015C231.706 290.015 230.004 289.839 228.16 289.275C227.876 289.169 227.734 288.887 227.805 288.605C227.912 288.323 228.195 288.182 228.479 288.253C232.664 289.592 236.281 288.605 236.317 288.605C236.6 288.535 236.884 288.676 236.955 288.958C237.026 289.24 236.884 289.522 236.6 289.592C236.529 289.628 235.146 290.015 233.125 290.015Z" fill="black"/>
<path d="M234.545 285.114C234.545 285.114 234.509 285.114 234.545 285.114L230.324 284.903C230.04 284.903 229.792 284.656 229.828 284.339C229.828 284.057 230.111 283.81 230.395 283.845L234.58 284.057C234.864 284.057 235.112 284.303 235.077 284.621C235.041 284.903 234.829 285.114 234.545 285.114Z" fill="black"/>
<path d="M265.824 266.673L266.569 278.203L270.896 278.274L271.464 266.955L265.824 266.673Z" fill="white"/>
<path d="M270.895 278.803L266.568 278.732C266.284 278.732 266.072 278.521 266.036 278.239L265.256 266.744C265.256 266.603 265.291 266.462 265.398 266.321C265.504 266.215 265.646 266.144 265.788 266.18L271.427 266.462C271.711 266.462 271.959 266.708 271.924 267.026L271.356 278.309C271.392 278.556 271.179 278.803 270.895 278.803ZM267.1 277.674L270.399 277.71L270.931 267.449L266.391 267.237L267.1 277.674Z" fill="black"/>
<path d="M265.326 275.382C265.326 275.382 264.9 280.46 264.971 282.505C265.006 283.986 266.815 288.499 267.843 290.932C268.269 291.955 269.191 292.766 270.149 293.012C271.957 293.506 272.809 293.541 274.511 293.365C276.781 293.118 277.596 291.108 277.029 289.098C276.497 287.265 275.575 285.22 274.014 282.681C272.879 280.848 272.028 275.523 272.028 275.523L268.517 275.347L267.382 278.203L265.326 275.382Z" fill="white"/>
<path d="M272.878 294C271.992 294 271.176 293.859 269.97 293.541C268.836 293.224 267.772 292.272 267.311 291.144C266.034 288.005 264.473 283.986 264.403 282.505C264.332 280.46 264.757 275.523 264.757 275.312C264.793 275.1 264.934 274.889 265.147 274.853C265.36 274.783 265.608 274.889 265.715 275.065L267.204 277.11L267.984 275.135C268.055 274.924 268.268 274.783 268.516 274.818L272.027 274.994C272.276 274.994 272.488 275.206 272.524 275.453C272.524 275.488 273.375 280.671 274.439 282.399C275.964 284.867 276.921 286.948 277.489 288.958C277.844 290.227 277.702 291.496 277.063 292.448C276.496 293.259 275.609 293.788 274.51 293.894C273.907 293.964 273.375 294 272.878 294ZM265.75 276.863C265.644 278.52 265.466 281.165 265.502 282.47C265.537 283.457 266.566 286.489 268.304 290.721C268.658 291.567 269.438 292.272 270.254 292.484C271.956 292.977 272.808 292.977 274.403 292.801C275.184 292.73 275.822 292.378 276.177 291.814C276.638 291.144 276.744 290.192 276.46 289.204C275.928 287.3 274.971 285.29 273.517 282.928C272.524 281.306 271.779 277.322 271.531 276.017L268.836 275.876L267.843 278.379C267.772 278.556 267.594 278.697 267.417 278.697C267.24 278.732 267.027 278.626 266.92 278.485L265.75 276.863Z" fill="black"/>
<path d="M273.555 291.92C272.987 291.92 272.455 291.849 272.242 291.814C271.178 291.637 270.221 291.073 269.547 290.262C269.015 289.663 268.66 289.063 268.448 288.57C268.058 287.653 267.667 286.63 267.384 285.89C267.206 285.396 266.994 284.903 266.923 284.762C266.781 284.55 266.781 284.303 266.958 284.092C267.171 283.88 267.49 283.845 267.703 284.056C267.845 284.162 267.88 284.268 268.341 285.502C268.625 286.243 269.015 287.23 269.405 288.111C269.582 288.535 269.902 289.028 270.363 289.557C270.895 290.192 271.604 290.615 272.42 290.756C272.881 290.826 274.122 290.932 274.902 290.685C275.186 290.58 275.47 290.756 275.576 291.003C275.682 291.285 275.505 291.567 275.257 291.673C274.689 291.884 274.086 291.92 273.555 291.92Z" fill="black"/>
<path d="M274.118 287.229C274.083 287.229 274.083 287.229 274.118 287.229L270.252 287.053C269.968 287.053 269.72 286.806 269.755 286.489C269.791 286.172 270.004 285.96 270.323 285.996L274.153 286.172C274.437 286.172 274.685 286.419 274.65 286.736C274.615 287.018 274.366 287.229 274.118 287.229Z" fill="black"/>
<path d="M229.26 174.785C229.26 174.785 227.948 209.728 228.267 232.541C228.551 252.146 230.076 267.872 230.501 271.857C230.572 272.456 231.033 272.95 231.636 273.091C232.842 273.302 234.899 273.584 236.885 273.302C237.452 273.232 237.913 272.844 238.055 272.28C239.119 268.401 243.481 252.252 243.8 246.011C244.155 239.241 243.02 237.478 243.162 231.977C243.268 227.852 245.396 213.219 246.46 206.131C246.602 205.215 247.914 205.109 248.162 206.026C250.077 212.584 254.191 226.794 257.986 241.356C258.163 242.097 259.014 248.408 259.192 249.149C261.532 258.246 263.802 265.545 264.547 269.811C264.653 270.517 265.185 271.046 265.895 271.187C267.207 271.469 269.441 271.786 271.463 271.257C272.207 271.081 272.704 270.411 272.739 269.67C272.952 265.051 273.626 247.809 273.378 244.918C272.846 238.677 268.306 232.33 267.739 225.701C267.207 219.072 267.526 202.535 265.611 192.486C263.696 182.472 259.546 171.083 259.546 171.083L229.26 174.785Z" fill="black"/>
<path d="M247.77 108.143C245.359 106.557 241.316 107.403 239.791 111.387C238.514 114.631 241.351 117.135 242.061 119.532C244.366 127.29 236.883 143.862 241.99 152.289C246.068 159.024 257.381 163.996 267.134 159.8C276.426 155.815 282.738 146.189 278.979 138.291C275.61 131.204 269.191 134.553 265.325 127.572C261.495 120.696 265.006 117.452 262.204 113.997C258.339 109.307 254.579 112.621 247.77 108.143Z" fill="black"/>
<path d="M260.747 189.524C260.676 189.524 260.605 189.524 260.534 189.489C254.151 186.527 252.626 180.25 252.555 180.004C252.484 179.722 252.661 179.439 252.945 179.369C253.229 179.298 253.512 179.475 253.583 179.757C253.583 179.827 255.108 185.786 260.995 188.537C261.244 188.678 261.385 188.96 261.244 189.242C261.137 189.418 260.96 189.524 260.747 189.524Z" fill="white"/>
<path d="M225.993 134.976C225.887 134.73 225.568 134.659 225.39 134.871C222.802 138.15 217.766 148.164 209.219 147.459C200.211 146.718 196.522 141.217 196.522 141.217L189.891 144.708C189.891 144.708 192.799 154.405 203.793 160.364C215.035 166.464 234.15 155.533 234.15 155.533L225.993 134.976Z" fill="#BC0F38"/>
<path d="M225.392 134.906C232.697 130.534 245.748 130.886 252.274 133.848C263.8 139.102 270.396 180.744 266.743 189.736C263.374 197.951 234.719 199.679 226.775 192.662C223.37 189.665 224.505 171.823 225.108 164.701C225.285 162.55 225.392 160.364 225.392 158.178V134.906Z" fill="#BC0F38"/>
<path d="M186.775 130.745L196.812 121.824L280.685 215.757C281.572 216.744 281.394 218.507 280.189 220.059C278.735 221.892 276.997 223.444 275.011 224.643C273.344 225.665 271.535 225.63 270.649 224.643L186.775 130.745Z" fill="#99B9FF"/>
<path d="M272.528 225.947C271.606 225.947 270.79 225.63 270.223 225.031L186.35 131.097C186.172 130.886 186.172 130.533 186.385 130.357L196.421 121.436C196.528 121.33 196.67 121.295 196.812 121.295C196.953 121.295 197.095 121.366 197.166 121.471L281.04 215.405C282.104 216.603 281.926 218.649 280.543 220.376C279.054 222.28 277.28 223.867 275.223 225.101C274.337 225.665 273.379 225.947 272.528 225.947ZM187.52 130.78L271.039 224.325C271.748 225.136 273.273 225.101 274.727 224.22C276.677 223.056 278.38 221.54 279.763 219.742C280.791 218.402 281.004 216.921 280.295 216.11L196.776 122.564L187.52 130.78Z" fill="black"/>
<path d="M261.391 200.49C261.249 200.49 261.108 200.419 261.001 200.314L225.572 160.611C225.395 160.399 225.395 160.046 225.608 159.87C225.82 159.694 226.175 159.694 226.352 159.905L261.817 199.609C261.994 199.82 261.994 200.173 261.781 200.349C261.64 200.455 261.533 200.49 261.391 200.49Z" fill="white"/>
<path d="M217.842 151.725C217.7 151.725 217.558 151.654 217.452 151.549L202.061 134.306C201.883 134.095 201.883 133.742 202.096 133.566C202.309 133.39 202.663 133.39 202.841 133.601L218.232 150.843C218.41 151.055 218.41 151.407 218.197 151.584C218.09 151.654 217.984 151.725 217.842 151.725Z" fill="white"/>
<path d="M268.098 215.334C267.956 215.334 267.814 215.264 267.707 215.158L208.766 149.116C208.588 148.904 208.588 148.551 208.801 148.375C209.014 148.199 209.368 148.199 209.546 148.41L268.488 214.453C268.665 214.664 268.665 215.017 268.452 215.193C268.346 215.299 268.204 215.334 268.098 215.334Z" fill="white"/>
<path d="M172.234 109.73C173.298 109.201 174.61 108.143 175.533 107.332C176.455 106.521 176.916 105.992 177.59 105.005L196.811 121.824C194.435 125.879 191.066 128.841 186.775 130.745L172.234 109.73Z" fill="white"/>
<path d="M177.767 106.557L195.428 122.001C193.371 125.209 190.569 127.678 187.129 129.37L173.759 110.083C174.788 109.377 175.781 108.531 176.242 108.143C176.88 107.544 177.341 107.121 177.767 106.557ZM177.59 105.005C176.916 105.992 176.455 106.521 175.533 107.332C174.61 108.143 173.298 109.201 172.234 109.765L186.739 130.745C191.066 128.841 194.4 125.879 196.776 121.824L177.59 105.005Z" fill="black"/>
<path d="M175.214 107.72C174.292 108.531 173.299 109.201 172.235 109.765L163.369 96.9304C162.589 95.802 164.823 93.8275 165.852 94.7442L177.59 105.005C176.917 105.992 176.136 106.909 175.214 107.72Z" fill="black"/>
<path d="M241.034 177.042C241.034 177.042 236.423 177.289 233.976 179.263C233.976 179.263 234.295 181.167 233.409 182.437C232.522 183.706 229.756 185.293 229.898 187.197C230.04 189.101 236.601 188.22 238.338 186.492C240.076 184.764 241.069 181.873 243.126 181.167C245.148 180.392 241.034 177.042 241.034 177.042Z" fill="white"/>
<path d="M232.449 188.748C231.704 188.748 231.03 188.678 230.498 188.466C229.576 188.114 229.399 187.514 229.363 187.162C229.257 185.646 230.569 184.411 231.775 183.318C232.272 182.86 232.733 182.437 232.981 182.084C233.726 180.991 233.442 179.299 233.442 179.299C233.406 179.122 233.477 178.911 233.619 178.805C236.173 176.795 240.783 176.513 240.96 176.478C241.102 176.478 241.209 176.513 241.315 176.584C242.024 177.183 244.365 179.193 244.117 180.603C244.046 180.921 243.868 181.344 243.23 181.591C242.131 181.978 241.315 183.177 240.464 184.447C239.896 185.258 239.329 186.139 238.62 186.809C237.591 187.973 234.719 188.748 232.449 188.748ZM234.541 179.475C234.612 180.11 234.612 181.591 233.867 182.719C233.548 183.177 233.052 183.636 232.484 184.129C231.491 185.046 230.356 186.104 230.427 187.126C230.427 187.303 230.676 187.444 230.888 187.514C232.591 188.149 236.74 187.303 237.981 186.104C238.62 185.469 239.152 184.694 239.684 183.883C240.606 182.543 241.528 181.132 242.946 180.639C243.124 180.568 243.159 180.498 243.159 180.462C243.266 179.933 242.095 178.594 240.889 177.571C240.003 177.641 236.598 178.029 234.541 179.475Z" fill="black"/>
<path d="M253.02 134.095L259.084 156.274C259.049 158.883 257.878 161.386 255.892 163.079L240.395 176.301L243.054 182.331C243.196 182.648 243.586 182.789 243.906 182.613C247.487 180.603 266.284 169.813 268.837 165.582C270.397 162.973 270.575 155.674 270.61 150.985C270.646 147.494 267.667 140.195 264.83 138.185C261.319 135.787 255.786 133.495 253.02 134.095Z" fill="#BC0F38"/>
<path d="M240.396 176.83C240.254 176.83 240.112 176.76 240.006 176.654C239.829 176.442 239.829 176.09 240.077 175.914L255.575 162.691C257.455 161.069 258.554 158.742 258.589 156.274L258.731 143.615C258.731 143.333 258.98 143.086 259.263 143.086C259.547 143.086 259.795 143.333 259.795 143.615L259.653 156.274C259.618 159.059 258.412 161.668 256.284 163.467L240.786 176.689C240.644 176.795 240.538 176.83 240.396 176.83Z" fill="black"/>
<path d="M248.694 179.933C248.517 179.933 248.339 179.827 248.233 179.651C248.091 179.404 248.162 179.087 248.446 178.946C259.759 172.564 267.029 167.592 268.412 165.3C269.193 164.031 269.724 161.598 270.044 158.142C270.079 157.86 270.327 157.649 270.611 157.649C270.895 157.684 271.108 157.931 271.108 158.213C270.753 161.845 270.15 164.419 269.334 165.829C267.419 169.003 257.206 175.208 248.978 179.863C248.871 179.933 248.765 179.933 248.694 179.933Z" fill="black"/>
<path d="M250.361 121.859C250.112 121.859 249.899 121.648 249.935 121.401C250.077 120.202 250.431 117.981 249.297 116.993C247.843 115.724 245.396 113.749 244.438 114.948C243.622 116.006 242.771 118.122 240.785 118.897C240.608 118.968 240.572 119.25 240.643 119.426L241.069 120.484C241.175 120.696 241.069 121.189 240.998 121.401C240.714 122.071 240.076 123.446 240.218 123.728C240.466 124.292 242.665 125.28 242.665 125.28L241.211 132.014C241.14 132.261 240.998 132.684 240.75 132.614L238.09 132.825C238.09 132.825 238.267 136.457 243.941 137.48C251.354 138.784 252.347 133.848 252.347 133.848C252.347 133.848 245.076 133.742 248.233 125.879C248.304 125.703 248.445 125.597 248.658 125.562C249.368 125.456 251.318 125.068 251.673 123.834C251.992 122.459 251.212 121.824 250.361 121.859Z" fill="white"/>
<path d="M246.211 138.22C245.466 138.22 244.686 138.15 243.764 138.009C237.735 136.951 237.486 133.037 237.486 132.861C237.486 132.579 237.699 132.332 237.983 132.297L240.572 132.12C240.607 132.085 240.607 131.979 240.643 131.909L241.99 125.597C241.104 125.174 239.933 124.504 239.685 123.94C239.508 123.552 239.685 122.988 240.323 121.542C240.394 121.401 240.43 121.295 240.465 121.19C240.536 121.049 240.572 120.766 240.536 120.661L240.111 119.603C240.004 119.356 240.004 119.074 240.075 118.827C240.146 118.616 240.323 118.475 240.501 118.369C241.848 117.84 242.629 116.57 243.267 115.583C243.515 115.231 243.728 114.878 243.941 114.596C244.189 114.279 244.579 114.067 245.005 114.032C246.069 113.926 247.452 114.737 249.58 116.57C250.821 117.664 250.573 119.814 250.431 121.119L250.395 121.295C250.963 121.295 251.459 121.542 251.814 121.965C252.204 122.459 252.31 123.164 252.062 123.94C251.637 125.386 249.722 125.879 248.587 126.055C247.629 128.418 247.594 130.251 248.409 131.486C249.58 133.249 252.169 133.284 252.204 133.284C252.346 133.284 252.523 133.354 252.594 133.495C252.701 133.601 252.736 133.777 252.701 133.919C252.772 133.989 251.885 138.22 246.211 138.22ZM238.657 133.319C238.94 134.271 240.004 136.281 243.976 136.951C249.367 137.903 251.069 135.47 251.566 134.306C250.537 134.165 248.658 133.672 247.594 132.085C246.565 130.534 246.565 128.383 247.665 125.668C247.806 125.315 248.126 125.068 248.48 125.033C249.934 124.821 250.892 124.292 251.069 123.658C251.211 123.235 251.176 122.882 250.998 122.635C250.856 122.459 250.608 122.353 250.324 122.388C250.041 122.388 249.793 122.283 249.58 122.106C249.402 121.895 249.296 121.648 249.331 121.366L249.367 121.013C249.509 119.92 249.722 118.122 248.87 117.381C246.636 115.407 245.572 115.054 245.111 115.09C244.969 115.09 244.863 115.16 244.792 115.266C244.615 115.513 244.402 115.83 244.189 116.183C243.551 117.205 242.664 118.616 241.104 119.321L241.494 120.308C241.671 120.696 241.529 121.366 241.423 121.613C241.387 121.718 241.316 121.824 241.281 121.965C241.104 122.353 240.714 123.235 240.678 123.552C240.891 123.799 241.848 124.363 242.806 124.786C243.019 124.892 243.161 125.139 243.09 125.386L241.636 132.12C241.6 132.332 241.458 132.825 241.068 133.037C240.926 133.143 240.749 133.178 240.607 133.143L238.657 133.319Z" fill="black"/>
<path d="M183.018 129.511L183.94 134.553C184.189 136.14 185.217 137.48 186.636 138.185L189.296 139.56C189.721 139.772 190.04 140.195 190.289 140.618C190.821 141.605 191.459 143.157 191.459 143.157L195.112 141.323C195.112 141.323 193.693 139.631 193.161 139.066C192.487 138.361 191.991 137.444 191.955 136.457C191.778 133.354 190.111 130.992 190.111 130.992L187.983 132.966C187.983 132.966 186.529 132.085 185.465 129.722C185.217 129.158 184.933 128.77 184.65 128.488C183.94 127.854 182.77 128.559 183.018 129.511Z" fill="white"/>
<path d="M191.491 143.721C191.42 143.721 191.349 143.721 191.314 143.686C191.172 143.65 191.066 143.509 190.995 143.403C190.995 143.403 190.356 141.852 189.824 140.9C189.576 140.477 189.328 140.195 189.044 140.054L186.384 138.679C184.824 137.903 183.689 136.387 183.405 134.659L182.483 129.652C182.341 128.982 182.625 128.312 183.228 127.959C183.831 127.607 184.54 127.677 185.037 128.171C185.391 128.524 185.711 128.982 185.994 129.581C186.668 131.098 187.555 131.979 187.98 132.367L189.789 130.71C189.895 130.604 190.037 130.569 190.214 130.569C190.356 130.569 190.498 130.674 190.605 130.78C190.676 130.886 192.378 133.284 192.555 136.528C192.591 137.303 192.981 138.114 193.619 138.784C194.151 139.349 195.534 141.006 195.57 141.076C195.676 141.217 195.711 141.358 195.676 141.535C195.641 141.676 195.534 141.817 195.392 141.887L191.739 143.721C191.668 143.686 191.562 143.721 191.491 143.721ZM184.008 128.77C183.902 128.77 183.795 128.806 183.76 128.841C183.618 128.947 183.476 129.123 183.512 129.37V129.405L184.434 134.447C184.682 135.858 185.569 137.092 186.845 137.727L189.541 139.102C190.179 139.419 190.534 139.983 190.746 140.371C191.101 141.006 191.491 141.887 191.739 142.451L194.293 141.182C193.832 140.653 193.123 139.807 192.803 139.454C191.988 138.573 191.491 137.55 191.456 136.528C191.349 134.412 190.498 132.684 190.037 131.873L188.37 133.39C188.193 133.566 187.945 133.566 187.732 133.46C187.661 133.425 186.136 132.438 185.001 129.969C184.788 129.511 184.54 129.158 184.292 128.911C184.221 128.806 184.115 128.77 184.008 128.77Z" fill="black"/>
<path d="M204.337 278.31V285.115C204.337 287.16 201.961 289.24 197.138 290.827C187.527 294.036 171.817 294.141 161.745 291.18C161.567 291.144 161.426 291.074 161.248 291.039C156.141 289.452 153.588 287.336 153.588 285.185V278.38C153.588 280.496 156.141 282.647 161.248 284.233C161.426 284.269 161.567 284.339 161.745 284.374C171.817 287.371 187.527 287.23 197.138 284.022C201.926 282.435 204.337 280.355 204.337 278.31Z" fill="#0152DD"/>
<path d="M196.181 272.315C196.359 272.351 196.501 272.421 196.678 272.456C206.714 275.595 206.927 280.778 197.139 284.022C187.528 287.23 171.817 287.336 161.745 284.374C161.568 284.339 161.426 284.269 161.249 284.233C151.212 281.095 151 275.912 160.788 272.668C170.399 269.459 186.109 269.318 196.181 272.315Z" fill="#A6C6FF"/>
<path d="M205.722 268.86V275.665C205.722 277.71 203.346 279.791 198.523 281.377C188.912 284.586 173.201 284.692 163.129 281.73C162.952 281.695 162.81 281.624 162.633 281.589C157.526 280.002 154.973 277.887 154.973 275.736V268.93C154.973 271.046 157.526 273.197 162.633 274.784C162.81 274.819 162.952 274.889 163.129 274.925C173.201 277.922 188.912 277.781 198.523 274.572C203.346 272.985 205.722 270.94 205.722 268.86Z" fill="#0152DD"/>
<path d="M197.566 262.866C197.743 262.901 197.885 262.971 198.063 263.007C208.099 266.145 208.312 271.328 198.524 274.572C188.913 277.781 173.202 277.886 163.13 274.925C162.953 274.889 162.811 274.819 162.634 274.784C152.597 271.645 152.384 266.462 162.173 263.218C171.819 260.009 187.53 259.904 197.566 262.866Z" fill="#CADDFF"/>
<path d="M201.712 259.375V266.18C201.712 268.225 199.336 270.305 194.513 271.892C184.902 275.101 169.192 275.207 159.12 272.245C158.942 272.209 158.801 272.139 158.623 272.104C153.516 270.517 150.963 268.401 150.963 266.25V259.445C150.963 261.561 153.516 263.712 158.623 265.298C158.801 265.334 158.942 265.404 159.12 265.439C169.192 268.437 184.902 268.295 194.513 265.087C199.301 263.5 201.712 261.42 201.712 259.375Z" fill="#0152DD"/>
<path d="M193.556 253.38C193.734 253.416 193.876 253.486 194.053 253.521C204.089 256.66 204.302 261.843 194.514 265.087C184.903 268.295 169.192 268.401 159.12 265.439C158.943 265.404 158.801 265.334 158.624 265.298C148.587 262.16 148.375 256.977 158.163 253.733C167.774 250.524 183.484 250.383 193.556 253.38Z" fill="#CADDFF"/>
<path d="M206.679 251.547V258.352C206.679 260.397 204.303 262.478 199.48 264.064C189.869 267.273 174.158 267.379 164.087 264.417C163.909 264.382 163.767 264.311 163.59 264.276C158.483 262.689 155.93 260.574 155.93 258.423V251.618C155.93 253.733 158.483 255.884 163.59 257.471C163.767 257.506 163.909 257.576 164.087 257.612C174.158 260.609 189.869 260.468 199.48 257.259C204.303 255.672 206.715 253.592 206.679 251.547Z" fill="#0152DD"/>
<path d="M198.523 245.553C198.7 245.588 198.842 245.659 199.02 245.694C209.056 248.832 209.269 254.015 199.481 257.259C189.87 260.468 174.159 260.574 164.087 257.612C163.91 257.577 163.768 257.506 163.591 257.471C153.554 254.333 153.342 249.149 163.13 245.905C172.776 242.697 188.487 242.556 198.523 245.553Z" fill="#A6C6FF"/>
<path d="M200.791 243.79V250.595C200.791 252.64 198.414 254.72 193.591 256.307C183.98 259.516 168.27 259.621 158.198 256.66C158.021 256.624 157.879 256.554 157.701 256.519C152.594 254.932 150.041 252.816 150.041 250.665V243.86C150.041 245.976 152.594 248.127 157.701 249.713C157.879 249.749 158.021 249.819 158.198 249.854C168.27 252.851 183.98 252.71 193.591 249.502C198.414 247.915 200.791 245.87 200.791 243.79Z" fill="#0152DD"/>
<path d="M192.634 237.795C192.812 237.831 192.954 237.901 193.131 237.936C203.167 241.075 203.38 246.258 193.592 249.502C183.981 252.71 168.27 252.816 158.199 249.854C158.021 249.819 157.879 249.749 157.702 249.713C147.666 246.575 147.453 241.392 157.241 238.148C166.852 234.939 182.563 234.798 192.634 237.795Z" fill="#CADDFF"/>
<path d="M205.089 235.045V241.851C205.089 243.896 202.713 245.976 197.89 247.563C188.279 250.771 172.569 250.877 162.497 247.915C162.319 247.88 162.177 247.81 162 247.774C156.893 246.188 154.34 244.072 154.34 241.921V235.116C154.34 237.232 156.893 239.382 162 240.969C162.177 241.004 162.319 241.075 162.497 241.11C172.569 244.107 188.279 243.966 197.89 240.758C202.713 239.171 205.089 237.126 205.089 235.045Z" fill="#0152DD"/>
<path d="M179.625 250.63C173.454 250.63 167.283 249.89 162.354 248.444C162.176 248.409 162.034 248.338 161.857 248.303C156.679 246.681 153.842 244.425 153.807 241.956V235.151C153.807 234.869 154.055 234.622 154.339 234.622C154.622 234.622 154.871 234.869 154.871 235.151C154.871 237.09 157.53 239.03 162.176 240.475C162.354 240.511 162.495 240.581 162.673 240.616C172.603 243.543 188.314 243.402 197.747 240.264C202.109 238.818 204.592 236.914 204.592 235.045C204.592 234.763 204.84 234.516 205.124 234.516C205.407 234.516 205.656 234.763 205.656 235.045V241.851C205.656 244.248 202.96 246.47 198.102 248.092C192.995 249.749 186.292 250.63 179.625 250.63ZM154.871 237.655V241.921C154.871 243.86 157.53 245.8 162.176 247.245C162.354 247.281 162.495 247.351 162.673 247.386C172.603 250.313 188.314 250.172 197.747 247.034C202.109 245.588 204.592 243.684 204.592 241.815V237.549C203.386 238.959 201.187 240.193 198.066 241.216C188.314 244.46 172.603 244.601 162.354 241.568C162.176 241.533 162.034 241.463 161.857 241.427C158.523 240.44 156.147 239.136 154.871 237.655Z" fill="black"/>
<path d="M196.929 229.051C197.107 229.086 197.249 229.157 197.426 229.192C207.462 232.33 207.675 237.514 197.887 240.758C188.276 243.966 172.565 244.072 162.493 241.11C162.316 241.075 162.174 241.004 161.997 240.969C151.961 237.831 151.748 232.648 161.536 229.404C171.182 226.195 186.893 226.089 196.929 229.051Z" fill="white"/>
<path d="M179.623 243.825C173.452 243.825 167.282 243.085 162.352 241.639C162.175 241.604 162.033 241.533 161.855 241.498C156.678 239.876 153.84 237.619 153.805 235.186C153.77 232.789 156.465 230.567 161.359 228.945C171.112 225.701 186.822 225.56 197.072 228.593C197.249 228.628 197.391 228.699 197.568 228.734C202.746 230.356 205.583 232.612 205.619 235.045C205.654 237.443 202.959 239.664 198.065 241.286C192.993 242.979 186.29 243.825 179.623 243.825ZM179.836 227.464C173.24 227.464 166.608 228.275 161.714 229.897C157.351 231.343 154.869 233.247 154.869 235.116C154.869 237.055 157.529 238.995 162.175 240.44C162.352 240.475 162.494 240.546 162.671 240.581C172.601 243.508 188.312 243.367 197.745 240.229C202.108 238.783 204.59 236.879 204.59 235.01C204.59 233.071 201.93 231.132 197.284 229.686C197.107 229.651 196.965 229.58 196.788 229.545C192.036 228.17 185.936 227.464 179.836 227.464Z" fill="black"/>
<path d="M182.102 236.079L171.838 234.541L173.65 233.479L183.846 235.007C184.759 235.143 185.589 235.199 186.338 235.172C187.092 235.142 187.774 235.046 188.382 234.882C188.99 234.719 189.525 234.501 189.986 234.231C190.399 233.989 190.653 233.743 190.749 233.494C190.845 233.245 190.73 233.013 190.403 232.799C190.082 232.581 189.479 232.405 188.593 232.273L184.498 231.659L171.477 239.284L168.074 238.774L182.916 230.081L190.414 231.205C191.932 231.432 193.046 231.731 193.754 232.101C194.463 232.471 194.786 232.883 194.724 233.339C194.669 233.791 194.234 234.255 193.421 234.732C192.553 235.241 191.52 235.634 190.323 235.91C189.14 236.185 187.847 236.337 186.444 236.368C185.05 236.4 183.602 236.304 182.102 236.079ZM180.414 237.176L178.603 238.239L168.014 236.652L169.825 235.589L180.414 237.176Z" fill="url(#paint1_linear_1100_2507)"/>
<path d="M137.613 278.239V285.044C137.613 287.089 135.237 289.169 130.414 290.756C120.803 293.965 105.092 294.07 95.0201 291.109C94.8428 291.073 94.7009 291.003 94.5236 290.968C89.4167 289.381 86.8633 287.265 86.8633 285.114V278.309C86.8633 280.425 89.4167 282.54 94.5236 284.162C94.7009 284.198 94.8428 284.268 95.0201 284.303C105.092 287.301 120.803 287.159 130.414 283.951C135.201 282.364 137.613 280.284 137.613 278.239Z" fill="#0152DD"/>
<path d="M129.457 272.244C129.634 272.28 129.776 272.35 129.953 272.386C139.99 275.524 140.202 280.707 130.414 283.951C120.803 287.16 105.093 287.265 95.0208 284.303C94.8435 284.268 94.7016 284.198 94.5243 284.162C84.4879 281.024 84.2751 275.841 94.0633 272.597C103.674 269.388 119.385 269.247 129.457 272.244Z" fill="#CADDFF"/>
<path d="M139.711 268.366V275.171C139.711 277.216 137.334 279.297 132.511 280.883C122.9 284.092 107.19 284.198 97.1177 281.236C96.9404 281.201 96.7986 281.13 96.6212 281.095C91.5144 279.508 88.9609 277.393 88.9609 275.242V268.436C88.9609 270.552 91.5144 272.668 96.6212 274.29C96.7986 274.325 96.9404 274.395 97.1177 274.431C107.19 277.428 122.9 277.287 132.511 274.078C137.299 272.491 139.711 270.411 139.711 268.366Z" fill="#0152DD"/>
<path d="M131.554 262.372C131.732 262.407 131.874 262.478 132.051 262.513C142.087 265.651 142.3 270.834 132.512 274.078C122.901 277.287 107.19 277.393 97.1185 274.431C96.9411 274.396 96.7993 274.325 96.622 274.29C86.5855 271.152 86.3728 265.968 96.1609 262.724C105.772 259.516 121.483 259.375 131.554 262.372Z" fill="#A6C6FF"/>
<path d="M138.64 259.974V266.779C138.64 268.824 136.264 270.905 131.441 272.491C121.83 275.7 106.119 275.806 96.0474 272.844C95.8701 272.809 95.7283 272.738 95.5509 272.703C90.4441 271.116 87.8906 269.001 87.8906 266.85V260.045C87.8906 262.16 90.4441 264.311 95.5509 265.898C95.7283 265.933 95.8701 266.004 96.0474 266.039C106.119 269.036 121.83 268.895 131.441 265.686C136.229 264.1 138.64 262.054 138.64 259.974Z" fill="#0152DD"/>
<path d="M130.484 253.98C130.661 254.015 130.803 254.086 130.981 254.121C141.017 257.259 141.23 262.442 131.442 265.686C121.831 268.895 106.12 269.001 96.0482 266.039C95.8708 266.004 95.729 265.933 95.5517 265.898C85.5152 262.76 85.3024 257.576 95.0906 254.332C104.701 251.159 120.412 251.018 130.484 253.98Z" fill="#CADDFF"/>
<path d="M136.619 250.56V257.365C136.619 259.41 134.243 261.49 129.419 263.077C119.809 266.286 104.098 266.392 94.026 263.43C93.8486 263.394 93.7068 263.324 93.5295 263.289C88.4226 261.702 85.8691 259.586 85.8691 257.435V250.63C85.8691 252.746 88.4226 254.861 93.5295 256.483C93.7068 256.519 93.8486 256.589 94.026 256.624C104.098 259.622 119.809 259.481 129.419 256.272C134.243 254.685 136.619 252.605 136.619 250.56Z" fill="#0152DD"/>
<path d="M128.463 244.565C128.64 244.601 128.782 244.671 128.959 244.706C138.996 247.845 139.208 253.028 129.42 256.272C119.809 259.48 104.099 259.586 94.0267 256.624C93.8494 256.589 93.7075 256.519 93.5302 256.483C83.4937 253.345 83.281 248.162 93.0691 244.918C102.68 241.709 118.391 241.568 128.463 244.565Z" fill="#A6C6FF"/>
<path d="M138.748 241.498V248.303C138.748 250.348 136.372 252.428 131.548 254.015C121.937 257.224 106.227 257.329 96.1549 254.368C95.9775 254.332 95.8357 254.262 95.6584 254.227C90.5515 252.64 87.998 250.524 87.998 248.373V241.568C87.998 243.684 90.5515 245.799 95.6584 247.421C95.8357 247.457 95.9775 247.527 96.1549 247.562C106.227 250.559 121.937 250.418 131.548 247.21C136.372 245.623 138.748 243.578 138.748 241.498Z" fill="#0152DD"/>
<path d="M130.59 235.504C130.767 235.539 130.909 235.609 131.086 235.645C141.122 238.783 141.335 243.966 131.547 247.21C121.936 250.419 106.226 250.524 96.1536 247.562C95.9763 247.527 95.8345 247.457 95.6571 247.421C85.6207 244.283 85.4079 239.1 95.1961 235.856C104.807 232.647 120.518 232.542 130.59 235.504Z" fill="#CADDFF"/>
<path d="M135.41 234.587V241.392C135.41 243.437 133.034 245.517 128.21 247.104C118.6 250.313 102.889 250.419 92.817 247.457C92.6397 247.421 92.4978 247.351 92.3205 247.316C87.2136 245.729 84.6602 243.613 84.6602 241.462V234.657C84.6602 236.773 87.2136 238.888 92.3205 240.51C92.4978 240.546 92.6397 240.616 92.817 240.651C102.889 243.649 118.6 243.508 128.21 240.299C132.998 238.712 135.41 236.667 135.41 234.587Z" fill="#0152DD"/>
<path d="M127.254 228.592C127.431 228.628 127.573 228.698 127.75 228.734C137.787 231.872 137.999 237.055 128.211 240.299C118.6 243.508 102.89 243.613 92.8177 240.652C92.6404 240.616 92.4985 240.546 92.3212 240.51C82.2848 237.372 82.072 232.189 91.8602 228.945C101.471 225.736 117.182 225.595 127.254 228.592Z" fill="#CADDFF"/>
<path d="M138.64 225.102V231.907C138.64 233.952 136.264 236.032 131.441 237.619C121.83 240.828 106.119 240.934 96.0474 237.972C95.8701 237.936 95.7283 237.866 95.5509 237.831C90.4441 236.244 87.8906 234.128 87.8906 231.977V225.172C87.8906 227.288 90.4441 229.439 95.5509 231.025C95.7283 231.061 95.8701 231.131 96.0474 231.166C106.119 234.164 121.83 234.023 131.441 230.814C136.229 229.227 138.64 227.182 138.64 225.102Z" fill="#0152DD"/>
<path d="M130.484 219.107C130.661 219.143 130.803 219.213 130.981 219.248C141.017 222.387 141.23 227.57 131.442 230.814C121.831 234.023 106.12 234.128 96.0482 231.166C95.8708 231.131 95.729 231.061 95.5517 231.025C85.5152 227.887 85.3024 222.704 95.0906 219.46C104.701 216.287 120.412 216.146 130.484 219.107Z" fill="#A6C6FF"/>
<path d="M135.695 215.088V221.893C135.695 223.938 133.319 226.019 128.496 227.605C118.885 230.814 103.174 230.92 93.1021 227.958C92.9248 227.923 92.783 227.852 92.6056 227.817C87.4988 226.23 84.9453 224.115 84.9453 221.964V215.158C84.9453 217.274 87.4988 219.39 92.6056 221.012C92.783 221.047 92.9248 221.117 93.1021 221.153C103.174 224.15 118.885 224.009 128.496 220.8C133.283 219.213 135.695 217.168 135.695 215.088Z" fill="#0152DD"/>
<path d="M127.539 209.094C127.716 209.129 127.858 209.199 128.035 209.235C138.072 212.373 138.285 217.556 128.496 220.8C118.885 224.009 103.175 224.114 93.1028 221.153C92.9255 221.117 92.7837 221.047 92.6063 221.012C82.5699 217.873 82.3571 212.69 92.1453 209.446C101.756 206.238 117.467 206.132 127.539 209.094Z" fill="#CADDFF"/>
<path d="M137.582 205.603V212.408C137.582 214.453 135.206 216.533 130.382 218.12C120.771 221.329 105.061 221.434 94.9888 218.473C94.8115 218.437 94.6697 218.367 94.4923 218.332C89.3855 216.745 86.832 214.629 86.832 212.478V205.673C86.832 207.789 89.3855 209.94 94.4923 211.526C94.6697 211.562 94.8115 211.632 94.9888 211.667C105.061 214.665 120.771 214.523 130.382 211.315C135.17 209.728 137.582 207.648 137.582 205.603Z" fill="#0152DD"/>
<path d="M112.117 221.152C105.946 221.152 99.7753 220.412 94.8457 218.966C94.6684 218.931 94.5266 218.861 94.3492 218.825C89.1714 217.203 86.3343 214.947 86.2988 212.478V205.673C86.2988 205.391 86.5471 205.144 86.8308 205.144C87.1145 205.144 87.3628 205.391 87.3628 205.673C87.3628 207.613 90.0226 209.552 94.6684 210.998C94.8457 211.033 94.9876 211.103 95.1649 211.139C105.095 214.065 120.806 213.924 130.239 210.786C134.601 209.34 137.084 207.436 137.084 205.567C137.084 205.285 137.332 205.039 137.616 205.039C137.9 205.039 138.148 205.285 138.148 205.567V212.373C138.148 214.77 135.453 216.992 130.594 218.614C125.452 220.306 118.784 221.152 112.117 221.152ZM87.3628 208.212V212.478C87.3628 214.418 90.0226 216.357 94.6684 217.803C94.8457 217.838 94.9876 217.909 95.1649 217.944C105.095 220.87 120.806 220.729 130.239 217.591C134.601 216.145 137.084 214.241 137.084 212.373V208.106C135.878 209.517 133.679 210.751 130.558 211.773C120.806 215.017 105.095 215.158 94.8457 212.126C94.6684 212.091 94.5266 212.02 94.3492 211.985C90.9801 210.962 88.604 209.658 87.3628 208.212Z" fill="black"/>
<path d="M129.426 199.609C129.603 199.644 129.745 199.714 129.922 199.75C139.958 202.888 140.171 208.071 130.383 211.315C120.772 214.524 105.061 214.629 94.9896 211.668C94.8122 211.632 94.6704 211.562 94.4931 211.527C84.4566 208.388 84.2439 203.205 94.032 199.961C103.643 196.752 119.354 196.611 129.426 199.609Z" fill="white"/>
<path d="M112.082 214.347C105.911 214.347 99.7405 213.607 94.8109 212.161C94.6336 212.126 94.4918 212.055 94.3144 212.02C89.1366 210.398 86.2995 208.142 86.264 205.709C86.2286 203.311 88.9238 201.09 93.8179 199.468C103.571 196.224 119.281 196.083 129.531 199.115C129.708 199.15 129.85 199.221 130.027 199.256C135.205 200.878 138.042 203.135 138.078 205.568C138.113 207.965 135.418 210.187 130.524 211.809C125.452 213.501 118.785 214.347 112.082 214.347ZM112.295 197.987C105.699 197.987 99.0667 198.798 94.1726 200.42C89.8105 201.865 87.3279 203.769 87.3279 205.638C87.3279 207.577 89.9878 209.517 94.6336 210.962C94.8109 210.998 94.9528 211.068 95.1301 211.103C105.06 214.03 120.771 213.889 130.204 210.751C134.567 209.305 137.049 207.401 137.049 205.532C137.049 203.593 134.389 201.654 129.743 200.208C129.566 200.173 129.424 200.102 129.247 200.067C124.495 198.692 118.395 197.987 112.295 197.987Z" fill="black"/>
<path d="M113.501 205.84L104.309 206.77L103.895 205.422L113.026 204.498C113.844 204.415 114.482 204.279 114.941 204.088C115.399 203.893 115.705 203.655 115.861 203.374C116.017 203.092 116.042 202.78 115.936 202.437C115.842 202.13 115.637 201.856 115.32 201.613C115.003 201.37 114.572 201.191 114.027 201.073C113.481 200.952 112.811 200.931 112.017 201.011L108.35 201.382L111.31 211.058L108.262 211.366L104.886 200.337L111.601 199.657C112.961 199.52 114.16 199.536 115.197 199.705C116.234 199.875 117.08 200.169 117.734 200.587C118.387 201 118.806 201.509 118.992 202.114C119.191 202.76 119.102 203.339 118.725 203.852C118.355 204.359 117.726 204.784 116.837 205.125C115.957 205.465 114.845 205.704 113.501 205.84ZM114.051 207.19L114.465 208.537L104.981 209.497L104.567 208.149L114.051 207.19Z" fill="url(#paint2_linear_1100_2507)"/>
<path d="M232.314 91.289H188.728C187.487 91.289 186.316 90.2664 186.174 89.0323L180.607 47.39C180.429 46.1558 181.316 45.1333 182.557 45.1333H226.143C227.384 45.1333 228.554 46.1558 228.696 47.39L234.264 89.0323C234.442 90.2664 233.555 91.289 232.314 91.289Z" fill="white"/>
<path d="M229.475 53.1022H181.35L180.569 47.3548C180.392 46.1207 181.279 45.0981 182.52 45.0981H226.106C227.347 45.0981 228.517 46.1207 228.659 47.3548L229.475 53.1022Z" fill="#CADDFF"/>
<path d="M232.311 91.8181H188.725C187.2 91.8181 185.817 90.584 185.64 89.1031L180.072 47.4607C179.965 46.685 180.178 45.9798 180.639 45.4509C181.1 44.922 181.774 44.6046 182.554 44.6046H226.14C227.665 44.6046 229.048 45.8387 229.226 47.3197L234.793 88.962C234.9 89.7378 234.687 90.443 234.226 90.9719C233.73 91.5008 233.056 91.8181 232.311 91.8181ZM182.554 45.6272C182.093 45.6272 181.703 45.8035 181.455 46.0855C181.171 46.4029 181.065 46.826 181.136 47.2844L186.704 88.9268C186.846 89.9141 187.768 90.725 188.761 90.725H232.311C232.772 90.725 233.162 90.5487 233.41 90.2667C233.694 89.9493 233.8 89.5262 233.73 89.0678L228.162 47.4254C228.02 46.4381 227.098 45.6272 226.105 45.6272H182.554Z" fill="black"/>
<path d="M195.886 75.9508H190.566C189.892 75.9508 189.254 75.3866 189.148 74.7167L188.438 69.3924C188.332 68.7224 188.828 68.1583 189.502 68.1583H194.822C195.496 68.1583 196.134 68.7224 196.24 69.3924L196.95 74.7167C197.056 75.3866 196.595 75.9508 195.886 75.9508Z" fill="#CADDFF"/>
<path d="M206.026 75.9508H200.707C200.033 75.9508 199.395 75.3866 199.288 74.7167L198.579 69.3924C198.472 68.7224 198.969 68.1583 199.643 68.1583H204.962C205.636 68.1583 206.275 68.7224 206.381 69.3924L207.09 74.7167C207.197 75.3866 206.736 75.9508 206.026 75.9508Z" fill="#CADDFF"/>
<path d="M216.206 75.9508H210.886C210.213 75.9508 209.574 75.3866 209.468 74.7167L208.759 69.3924C208.652 68.7224 209.149 68.1583 209.822 68.1583H215.142C215.816 68.1583 216.454 68.7224 216.561 69.3924L217.27 74.7167C217.376 75.3866 216.88 75.9508 216.206 75.9508Z" fill="#BC0F38"/>
<path d="M226.349 75.9508H221.029C220.355 75.9508 219.717 75.3866 219.61 74.7167L218.901 69.3924C218.795 68.7224 219.291 68.1583 219.965 68.1583H225.285C225.959 68.1583 226.597 68.7224 226.703 69.3924L227.413 74.7167C227.519 75.3866 227.022 75.9508 226.349 75.9508Z" fill="#98BCFC"/>
<path d="M197.235 86.0705H191.916C191.242 86.0705 190.604 85.5064 190.497 84.8364L189.788 79.5121C189.681 78.8422 190.178 78.278 190.852 78.278H196.171C196.845 78.278 197.484 78.8422 197.59 79.5121L198.299 84.8364C198.406 85.5064 197.945 86.0705 197.235 86.0705Z" fill="#CADDFF"/>
<path d="M207.415 86.0705H202.095C201.422 86.0705 200.783 85.5064 200.677 84.8364L199.968 79.5121C199.861 78.8422 200.358 78.278 201.031 78.278H206.351C207.025 78.278 207.663 78.8422 207.77 79.5121L208.479 84.8364C208.585 85.5064 208.089 86.0705 207.415 86.0705Z" fill="#CADDFF"/>
<path d="M217.556 86.0705H212.236C211.562 86.0705 210.924 85.5064 210.817 84.8364L210.108 79.5121C210.002 78.8422 210.498 78.278 211.172 78.278H216.492C217.166 78.278 217.804 78.8422 217.91 79.5121L218.62 84.8364C218.726 85.5064 218.229 86.0705 217.556 86.0705Z" fill="#CADDFF"/>
<path d="M194.538 65.7958H189.218C188.545 65.7958 187.906 65.2316 187.8 64.5617L187.091 59.2374C186.984 58.5675 187.481 58.0033 188.154 58.0033H193.474C194.148 58.0033 194.786 58.5675 194.893 59.2374L195.602 64.5617C195.708 65.2316 195.212 65.7958 194.538 65.7958Z" fill="#CADDFF"/>
<path d="M204.679 65.7958H199.359C198.685 65.7958 198.047 65.2316 197.94 64.5617L197.231 59.2374C197.125 58.5675 197.621 58.0033 198.295 58.0033H203.615C204.289 58.0033 204.927 58.5675 205.033 59.2374L205.743 64.5617C205.849 65.2316 205.353 65.7958 204.679 65.7958Z" fill="#CADDFF"/>
<path d="M214.825 65.7958H209.506C208.832 65.7958 208.193 65.2316 208.087 64.5617L207.378 59.2374C207.271 58.5675 207.768 58.0033 208.442 58.0033H213.761C214.435 58.0033 215.073 58.5675 215.18 59.2374L215.889 64.5617C215.996 65.2316 215.534 65.7958 214.825 65.7958Z" fill="#CADDFF"/>
<path d="M225.001 65.7958H219.681C219.007 65.7958 218.369 65.2316 218.263 64.5617L217.553 59.2374C217.447 58.5675 217.944 58.0033 218.617 58.0033H223.937C224.611 58.0033 225.249 58.5675 225.356 59.2374L226.065 64.5617C226.136 65.2316 225.675 65.7958 225.001 65.7958Z" fill="#98BCFC"/>
<path d="M187.454 49.9285C185.007 49.9285 182.772 47.9187 182.453 45.4857C182.276 44.2516 182.631 43.088 183.375 42.2418C184.12 41.3955 185.184 40.9371 186.39 40.9371C186.497 40.9371 186.568 40.9371 186.674 40.9371C186.958 40.9724 187.206 41.2192 187.171 41.5013C187.135 41.7834 186.887 42.0302 186.603 41.9949C186.532 41.9949 186.461 41.9949 186.39 41.9949C185.504 41.9949 184.723 42.3475 184.191 42.947C183.624 43.5817 183.375 44.4279 183.517 45.3447C183.766 47.284 185.539 48.8707 187.49 48.8707C187.774 48.8707 188.022 49.1175 188.022 49.3996C187.986 49.7169 187.738 49.9285 187.454 49.9285Z" fill="black"/>
<path d="M193.409 49.9638C190.962 49.9638 188.728 47.954 188.408 45.521C188.231 44.2869 188.586 43.1234 189.33 42.2771C190.075 41.4309 191.139 40.9725 192.345 40.9725C192.452 40.9725 192.523 40.9725 192.629 40.9725C192.913 40.9725 193.161 41.2546 193.126 41.5366C193.126 41.8187 192.877 42.0655 192.558 42.0303C192.487 42.0303 192.416 42.0303 192.345 42.0303C191.459 42.0303 190.678 42.3829 190.146 42.9823C189.579 43.617 189.33 44.4632 189.472 45.38C189.721 47.3193 191.494 48.906 193.445 48.906C193.729 48.906 193.977 49.1529 193.977 49.4349C193.941 49.717 193.729 49.9638 193.409 49.9638Z" fill="black"/>
<path d="M199.406 49.9638C196.958 49.9638 194.724 47.954 194.404 45.521C194.227 44.2869 194.582 43.1234 195.327 42.2771C196.071 41.4309 197.136 40.9725 198.341 40.9725C198.448 40.9725 198.519 40.9725 198.625 40.9725C198.909 41.0077 199.157 41.2546 199.122 41.5366C199.086 41.8187 198.838 42.0655 198.554 42.0303C198.483 42.0303 198.412 42.0303 198.341 42.0303C197.455 42.0303 196.674 42.3829 196.142 42.9823C195.575 43.617 195.327 44.4632 195.468 45.38C195.717 47.3193 197.49 48.906 199.441 48.906C199.725 48.906 199.973 49.1529 199.973 49.4349C199.938 49.7523 199.689 49.9638 199.406 49.9638Z" fill="black"/>
<path d="M205.402 49.9992C202.954 49.9992 200.72 47.9893 200.4 45.5564C200.223 44.3223 200.578 43.1587 201.323 42.3124C202.068 41.4662 203.132 41.0078 204.338 41.0078C204.444 41.0078 204.515 41.0078 204.621 41.0078C204.905 41.0431 205.153 41.2899 205.118 41.572C205.082 41.8541 204.834 42.0656 204.55 42.0656C204.479 42.0656 204.408 42.0656 204.338 42.0656C203.451 42.0656 202.671 42.4182 202.138 43.0176C201.571 43.6523 201.323 44.4986 201.465 45.4153C201.713 47.3547 203.486 48.9414 205.437 48.9414C205.721 48.9414 205.969 49.1882 205.969 49.4703C205.934 49.7524 205.685 49.9992 205.402 49.9992Z" fill="black"/>
<path d="M211.361 49.9992C208.913 49.9992 206.679 47.9893 206.359 45.5564C206.182 44.3223 206.537 43.1587 207.282 42.3124C208.027 41.4662 209.091 41.0078 210.297 41.0078C210.403 41.0078 210.474 41.0078 210.58 41.0078C210.864 41.0078 211.112 41.2899 211.077 41.572C211.077 41.8541 210.829 42.1009 210.509 42.0656C210.438 42.0656 210.367 42.0656 210.297 42.0656C209.41 42.0656 208.629 42.4182 208.097 43.0176C207.53 43.6523 207.282 44.4986 207.424 45.4153C207.672 47.3547 209.445 48.9414 211.396 48.9414C211.68 48.9414 211.928 49.1882 211.928 49.4703C211.893 49.7876 211.68 49.9992 211.361 49.9992Z" fill="black"/>
<path d="M217.351 50.0345C214.903 50.0345 212.669 48.0247 212.35 45.5917C212.172 44.3576 212.527 43.194 213.272 42.3478C214.017 41.5015 215.081 41.0432 216.287 41.0432C216.393 41.0432 216.464 41.0432 216.57 41.0432C216.854 41.0784 217.103 41.3252 217.067 41.6073C217.032 41.8894 216.783 42.101 216.5 42.101C216.429 42.101 216.358 42.101 216.287 42.101C215.4 42.101 214.62 42.4536 214.088 43.053C213.52 43.6877 213.272 44.5339 213.414 45.4507C213.662 47.39 215.435 48.9767 217.386 48.9767C217.67 48.9767 217.918 49.2235 217.918 49.5056C217.883 49.7877 217.635 50.0345 217.351 50.0345Z" fill="black"/>
<path d="M222.989 50.0345C220.542 50.0345 218.308 48.0247 217.988 45.5917C217.811 44.3576 218.166 43.194 218.91 42.3478C219.655 41.5015 220.719 41.0432 221.925 41.0432C223.485 41.0432 224.975 41.8189 225.968 43.1588C226.145 43.4056 226.11 43.7229 225.861 43.8992C225.613 44.0755 225.294 44.0403 225.117 43.7934C224.337 42.7356 223.131 42.101 221.925 42.101C221.038 42.101 220.258 42.4536 219.726 43.053C219.159 43.6877 218.91 44.5339 219.052 45.4507C219.301 47.39 221.074 48.9767 223.024 48.9767C223.308 48.9767 223.556 49.2235 223.556 49.5056C223.521 49.7877 223.273 50.0345 222.989 50.0345Z" fill="black"/>
<defs>
<linearGradient id="paint0_linear_1100_2507" x1="147" y1="39.3806" x2="147" y2="293.347" gradientUnits="userSpaceOnUse">
<stop stop-color="#3278FF"/>
<stop offset="1" stop-color="#001280"/>
</linearGradient>
<linearGradient id="paint1_linear_1100_2507" x1="188.875" y1="230.974" x2="187.445" y2="240.52" gradientUnits="userSpaceOnUse">
<stop stop-color="#006EFF"/>
<stop offset="1" stop-color="#0034BB"/>
</linearGradient>
<linearGradient id="paint2_linear_1100_2507" x1="110.223" y1="199.797" x2="111.241" y2="209.86" gradientUnits="userSpaceOnUse">
<stop stop-color="#006EFF"/>
<stop offset="1" stop-color="#0034BB"/>
</linearGradient>
</defs>
</svg>
