<svg width="575" height="574" viewBox="0 0 575 574" fill="none" xmlns="http://www.w3.org/2000/svg">
<path d="M160.101 47.6374C81.9664 93.1247 -8.55585 190.964 0.648631 302.394C4.66262 350.447 26.878 384.354 42.3802 409.594C52.6228 426.167 155.81 580.796 309.795 572.406C476.929 563.322 598.317 368.129 569.527 322.295C557.555 303.226 517.276 317.164 500.528 294.42C466.34 247.962 593.542 156.71 571.396 88.4095C545.028 7.2119 312.909 -41.3957 160.101 47.6374Z" fill="url(#paint0_linear_1089_2624)" fill-opacity="0.2"/>
<path d="M270.693 23.4375C270.001 23.4375 269.309 23.2989 268.617 23.0215C267.163 22.4668 265.987 21.3573 265.364 19.9012C264.118 16.9195 265.433 13.4525 268.34 12.1351C269.724 11.511 271.316 11.4417 272.7 11.9964C274.153 12.5511 275.33 13.6605 275.953 15.1167C277.198 18.0983 275.883 21.5654 272.977 22.8828C272.285 23.2989 271.454 23.4375 270.693 23.4375ZM270.693 13.7299C270.209 13.7299 269.655 13.8686 269.24 14.0766C267.371 14.9087 266.541 17.1969 267.371 19.0691C267.786 20.0399 268.478 20.7333 269.447 21.08C270.347 21.4267 271.316 21.4267 272.215 21.0106C274.084 20.1785 274.915 17.8903 274.084 16.0181C273.669 15.0474 272.977 14.354 272.008 14.0073C271.523 13.8686 271.108 13.7299 270.693 13.7299Z" fill="black"/>
<path d="M469.455 541.202C469.179 541.202 468.902 541.133 468.694 540.925C468.279 540.509 468.279 539.885 468.694 539.469L553.126 454.874C553.542 454.458 554.164 454.458 554.58 454.874C554.995 455.29 554.995 455.914 554.58 456.33L470.148 540.925C470.009 541.064 469.732 541.202 469.455 541.202Z" fill="black"/>
<path d="M251.522 22.9521C250.969 22.9521 250.484 22.4668 250.484 21.912V16.5035C250.484 15.9488 250.969 15.4634 251.522 15.4634C252.076 15.4634 252.561 15.9488 252.561 16.5035V21.912C252.561 22.5361 252.076 22.9521 251.522 22.9521Z" fill="black"/>
<path d="M251.522 35.5028C250.969 35.5028 250.484 35.0174 250.484 34.4627V29.1235C250.484 28.5688 250.969 28.0834 251.522 28.0834C252.076 28.0834 252.561 28.5688 252.561 29.1235V34.532C252.561 35.0174 252.076 35.5028 251.522 35.5028Z" fill="black"/>
<path d="M247.924 26.5579H242.526C241.973 26.5579 241.488 26.0725 241.488 25.5178C241.488 24.963 241.973 24.4777 242.526 24.4777H247.924C248.478 24.4777 248.963 24.963 248.963 25.5178C248.963 26.0725 248.478 26.5579 247.924 26.5579Z" fill="black"/>
<path d="M260.452 26.5579H255.054C254.5 26.5579 254.016 26.0725 254.016 25.5178C254.016 24.963 254.5 24.4777 255.054 24.4777H260.452C261.005 24.4777 261.49 24.963 261.49 25.5178C261.49 26.0725 261.005 26.5579 260.452 26.5579Z" fill="black"/>
<path d="M227.993 294.836C279.134 294.836 320.592 253.298 320.592 202.058C320.592 150.819 279.134 109.281 227.993 109.281C176.852 109.281 135.395 150.819 135.395 202.058C135.395 253.298 176.852 294.836 227.993 294.836Z" fill="white"/>
<path d="M232.008 289.289C281.62 289.289 321.838 248.993 321.838 199.285C321.838 149.577 281.62 109.281 232.008 109.281C182.396 109.281 142.178 149.577 142.178 199.285C142.178 248.993 182.396 289.289 232.008 289.289Z" fill="white"/>
<path d="M232.007 290.329C181.901 290.329 141.139 249.487 141.139 199.285C141.139 149.082 181.901 108.241 232.007 108.241C282.113 108.241 322.875 149.082 322.875 199.285C322.875 249.487 282.113 290.329 232.007 290.329ZM232.007 110.321C183.009 110.321 143.215 150.261 143.215 199.285C143.215 248.378 183.078 288.249 232.007 288.249C280.936 288.249 320.799 248.308 320.799 199.285C320.799 150.192 280.936 110.321 232.007 110.321Z" fill="black"/>
<path d="M232.215 281.869C208.616 281.869 186.193 271.676 170.552 253.925C170.206 253.509 170.206 252.816 170.621 252.469C171.037 252.122 171.729 252.122 172.075 252.538C187.3 269.804 209.17 279.72 232.146 279.72C246.749 279.72 261.005 275.767 273.393 268.279C273.878 268.001 274.501 268.14 274.847 268.625C275.123 269.111 274.985 269.735 274.501 270.081C261.767 277.778 247.164 281.869 232.215 281.869Z" fill="black"/>
<path d="M286.888 260.582C286.611 260.582 286.334 260.443 286.127 260.235C285.711 259.819 285.781 259.126 286.196 258.779C295.677 250.111 303.013 239.156 307.442 227.09C307.65 226.536 308.204 226.258 308.757 226.466C309.311 226.674 309.588 227.229 309.38 227.784C304.882 240.126 297.338 251.359 287.58 260.304C287.372 260.512 287.096 260.582 286.888 260.582Z" fill="black"/>
<path d="M298.307 153.659C297.961 153.659 297.684 153.52 297.476 153.243C282.459 132.094 258.029 119.405 232.215 119.405C214.221 119.405 197.196 125.229 183.078 136.324C182.593 136.67 181.971 136.601 181.624 136.116C181.278 135.63 181.348 135.006 181.832 134.66C196.365 123.288 213.806 117.324 232.284 117.324C258.859 117.324 283.843 130.291 299.276 151.995C299.622 152.48 299.483 153.104 298.999 153.451C298.722 153.59 298.514 153.659 298.307 153.659Z" fill="black"/>
<path d="M154.496 223.97C154.08 223.97 153.665 223.693 153.527 223.207C151.243 215.58 150.066 207.606 150.066 199.562C150.066 187.358 152.696 175.64 157.818 164.684C158.094 164.129 158.648 163.921 159.202 164.198C159.755 164.476 159.963 165.031 159.686 165.585C154.703 176.264 152.143 187.705 152.143 199.631C152.143 207.467 153.25 215.233 155.465 222.652C155.603 223.207 155.326 223.762 154.772 223.97C154.703 223.97 154.634 223.97 154.496 223.97Z" fill="black"/>
<path d="M170.205 218.978V216.551C170.205 206.358 174.288 204.485 185.707 197.413C190.829 194.223 192.766 192.628 192.766 189.716C192.766 186.249 190.206 184.585 183.908 184.585C180.448 184.585 176.364 185.209 172.212 186.18L170.69 178.829C175.396 177.373 181.071 176.68 184.946 176.68C196.088 176.68 201.902 181.672 201.902 189.369C201.902 195.263 198.303 198.73 191.521 203.099C186.261 206.566 181.486 209.062 180.932 211.073H202.109V219.047H170.205V218.978Z" fill="#BC0F38"/>
<path d="M235.26 209.894V218.908H226.471V209.894H205.086V201.85L225.433 177.165H235.26V202.336H241.281V209.825H235.26V209.894ZM226.54 187.15L213.875 202.405H226.54V187.15Z" fill="#BC0F38"/>
<path d="M247.785 220.642H240.934L255.121 175.432H261.972L247.785 220.642Z" fill="#BC0F38"/>
<path d="M293.739 182.366L278.237 218.908H268.063L283.635 184.723H263.842V177.304H293.808V182.366H293.739Z" fill="#BC0F38"/>
<path d="M52.6929 265.644L45.9106 269.665L48.6097 277.848C47.2256 279.096 45.9106 280.344 44.8033 281.8L36.5677 279.373L32.7614 286.238L39.1284 291.993C38.5055 293.727 38.0903 295.529 37.8135 297.332L29.4395 299.343L29.5779 307.248L37.9519 309.051C38.2979 310.854 38.7824 312.587 39.4744 314.321L33.2458 320.284L37.2598 327.079L45.4262 324.375C46.6719 325.762 47.9868 327.079 49.371 328.189L46.9487 336.44L53.8002 340.254L59.5443 333.875C61.2745 334.499 63.0739 334.915 64.8733 335.192L66.8802 343.582L74.7698 343.444L76.5692 335.053C78.3686 334.707 80.0987 334.221 81.8289 333.528L87.7807 339.769L94.5629 335.747L91.8638 327.565C93.248 326.317 94.5629 325.068 95.6702 323.612L103.906 326.039L107.712 319.174L101.345 313.419C101.968 311.686 102.383 309.883 102.66 308.08L111.034 306.069L110.896 298.164L102.522 296.361C102.176 294.559 101.691 292.825 100.999 291.092L107.228 285.128L103.214 278.333L95.0474 281.037C93.8016 279.65 92.5559 278.333 91.1026 277.224L93.4556 269.041L86.6041 265.228L80.86 271.607C79.1298 270.983 77.3305 270.567 75.5311 270.289L73.5241 261.899L65.6345 262.038L63.8352 270.428C62.0358 270.775 60.3056 271.26 58.5755 271.954L52.6929 265.644ZM87.573 292.27C93.3172 301.909 90.1337 314.39 80.5832 320.076C70.9634 325.831 58.5062 322.641 52.8313 313.073C47.0872 303.434 50.2707 290.953 59.8212 285.267C69.4409 279.512 81.8981 282.701 87.573 292.27Z" fill="#BC0F38"/>
<path d="M67.8485 238.74C88.6794 238.74 105.566 221.82 105.566 200.949C105.566 180.078 88.6794 163.159 67.8485 163.159C47.0176 163.159 30.1309 180.078 30.1309 200.949C30.1309 221.82 47.0176 238.74 67.8485 238.74Z" fill="white"/>
<path d="M67.78 239.78C60.5825 239.78 53.5234 237.769 47.2948 233.816C29.2319 222.445 23.6954 198.453 35.0452 180.355C46.3951 162.257 70.3406 156.71 88.4036 168.082C97.1928 173.56 103.283 182.158 105.567 192.281C107.851 202.405 106.12 212.806 100.653 221.543C95.1858 230.349 86.6042 236.451 76.5 238.74C73.5933 239.433 70.6867 239.78 67.78 239.78ZM36.7754 181.464C26.0484 198.591 31.2389 221.335 48.4021 232.083C56.7069 237.283 66.5343 238.948 76.0848 236.729C85.6353 234.51 93.7325 228.755 98.923 220.434C104.113 212.113 105.774 202.267 103.56 192.698C101.345 183.129 95.6011 175.016 87.2963 169.815C70.2022 159.137 47.5024 164.337 36.7754 181.464Z" fill="black"/>
<path d="M74.4944 225.01L43.559 205.595C41.898 204.555 41.4136 202.405 42.4517 200.741L55.8778 179.315C56.9159 177.651 59.0613 177.165 60.7222 178.205L91.6576 197.621C93.3186 198.661 93.803 200.81 92.7649 202.474L79.3388 223.901C78.3007 225.565 76.1553 226.05 74.4944 225.01Z" fill="url(#paint1_linear_1089_2624)"/>
<path d="M76.3626 226.605C75.5321 226.605 74.7016 226.397 73.9403 225.912L43.0049 206.496C40.8595 205.179 40.2367 202.336 41.5516 200.256L54.9777 178.829C55.6006 177.789 56.6387 177.096 57.8152 176.819C58.9917 176.541 60.2374 176.749 61.2755 177.373L92.2109 196.789C94.3563 198.106 94.9791 200.949 93.6642 203.029L80.2381 224.455C79.3384 225.842 77.8851 226.605 76.3626 226.605ZM75.0476 224.109C76.2241 224.802 77.7467 224.455 78.4388 223.346L91.8648 201.92C92.5569 200.741 92.2109 199.215 91.1036 198.522L60.1682 179.107C59.6145 178.76 58.9225 178.621 58.2996 178.76C57.6768 178.899 57.1231 179.315 56.7771 179.87L43.351 201.296C42.6589 202.474 43.005 204 44.1123 204.693L75.0476 224.109Z" fill="black"/>
<path d="M66.9491 203.931C66.5338 203.931 66.1878 203.723 65.9802 203.307L58.9903 188.052C58.7827 187.497 58.9903 186.942 59.4748 186.665C59.9592 186.457 60.5821 186.665 60.8589 187.15L67.8488 202.405C68.0564 202.96 67.8488 203.515 67.3643 203.792C67.2259 203.931 67.0875 203.931 66.9491 203.931Z" fill="black"/>
<path d="M67.0186 204C66.4649 204 65.9805 203.515 65.9805 202.96C65.9805 202.405 66.3957 201.92 67.0186 201.92L83.7666 201.573C84.3202 201.573 84.8047 201.989 84.8047 202.613C84.8047 203.168 84.3894 203.653 83.7666 203.653L67.0186 204C67.0878 204 67.0186 204 67.0186 204Z" fill="black"/>
<path d="M168.96 80.7128C189.791 80.7128 206.677 63.7934 206.677 42.9222C206.677 22.0511 189.791 5.13171 168.96 5.13171C148.129 5.13171 131.242 22.0511 131.242 42.9222C131.242 63.7934 148.129 80.7128 168.96 80.7128Z" fill="white"/>
<path d="M168.959 81.6835C149.235 81.6835 132.28 66.5673 130.411 46.5279C128.404 25.2404 144.114 6.24113 165.36 4.2996C186.607 2.28872 205.57 18.029 207.507 39.3165C209.514 60.604 193.804 79.6033 172.558 81.5448C171.381 81.6835 170.136 81.6835 168.959 81.6835ZM132.487 46.3199C134.356 66.498 152.28 81.3368 172.42 79.4646C192.559 77.5924 207.369 59.6333 205.5 39.4552C203.632 19.2771 185.707 4.43828 165.568 6.31047C145.429 8.252 130.619 26.2112 132.487 46.3199Z" fill="black"/>
<path d="M184.601 57.8304L179.618 51.6591C179.203 51.1737 178.303 50.7577 177.68 50.7577H176.85C176.088 50.7577 175.327 50.9657 174.635 51.2431C172.697 52.0751 169.514 52.0751 165.292 44.8637C161.14 37.6523 162.731 34.948 164.392 33.6306C165.154 33.0759 165.707 32.3131 166.192 31.5504L166.399 31.273C166.745 30.7183 166.815 29.7475 166.607 29.1235L163.769 21.704C163.562 21.08 162.801 20.6639 162.178 20.8026L160.309 21.1493C158.787 21.4267 157.333 22.1894 156.295 23.4375C151.935 28.5687 152.696 38.7618 158.51 48.9548C164.392 59.1479 172.905 64.9031 179.479 63.655C181.002 63.3776 182.386 62.5455 183.355 61.3668L184.601 59.9106C185.016 59.2172 185.016 58.3851 184.601 57.8304Z" fill="url(#paint2_linear_1089_2624)"/>
<path d="M177.611 64.6951C170.829 64.6951 163.077 58.8012 157.61 49.3015C151.589 38.9005 150.759 28.1527 155.465 22.6055C156.641 21.288 158.233 20.3172 160.102 19.9705L161.97 19.6238C163.147 19.4158 164.323 20.1092 164.738 21.1493L167.576 28.5687C167.922 29.4702 167.783 30.7876 167.299 31.6197L167.091 31.9664C166.538 32.9372 165.846 33.6999 165.015 34.324C164.254 34.9481 161.901 36.7509 166.192 44.2397C170.483 51.7284 173.32 50.5496 174.22 50.2029C175.119 49.8562 175.95 49.6482 176.78 49.6482H177.611C178.58 49.6482 179.756 50.2029 180.379 50.9657L185.362 57.137C186.123 58.0384 186.054 59.4252 185.293 60.3266L184.047 61.7828C182.871 63.1696 181.279 64.1404 179.549 64.4177C178.995 64.6258 178.303 64.6951 177.611 64.6951ZM162.316 21.7734L160.448 22.1201C159.063 22.3974 157.887 23.0215 157.056 24.0616C152.973 28.8461 153.942 38.8311 159.409 48.3308C164.462 57.0676 171.659 62.6842 177.611 62.6842C178.164 62.6842 178.718 62.6149 179.272 62.5455C180.518 62.3375 181.694 61.5748 182.594 60.604L183.839 59.1479C183.909 59.0092 183.978 58.7318 183.839 58.5931L178.857 52.4218C178.649 52.1445 178.095 51.8671 177.749 51.8671H176.919C176.365 51.8671 175.742 52.0058 175.119 52.2832C171.521 53.8086 167.991 51.5204 164.531 45.4878C161.07 39.4552 160.863 35.2948 163.908 32.8678C164.462 32.3825 165.015 31.8277 165.43 31.065L165.638 30.7876C165.846 30.5103 165.846 29.8862 165.777 29.5395L162.939 22.1201C162.731 21.8427 162.524 21.7734 162.316 21.7734Z" fill="black"/>
<path d="M50.2008 108.38C48.1938 86.8147 63.8345 67.6767 85.1502 65.5965C106.466 63.5163 125.359 79.3952 127.297 101.029C129.304 122.594 113.663 141.732 92.3476 143.812C71.032 145.823 52.2078 130.014 50.2008 108.38Z" fill="url(#paint3_linear_1089_2624)"/>
<path d="M71.3788 120.514C70.8943 120.514 70.4791 120.167 70.3407 119.682L64.2505 85.5666L59.3368 85.3586C58.7832 85.3586 58.2987 84.8732 58.3679 84.2491C58.3679 83.6944 58.8524 83.209 59.4752 83.2784L65.2194 83.5557C65.7038 83.5557 66.1191 83.9024 66.1883 84.3878L72.2785 118.434L106.743 117.671L116.017 94.5808C116.225 94.0261 116.848 93.8181 117.401 94.0261C117.955 94.2341 118.162 94.8582 117.955 95.4129L108.404 119.127C108.266 119.543 107.851 119.751 107.435 119.751L71.3788 120.514Z" fill="white"/>
<path d="M67.5029 96.5224C66.9493 96.5224 66.4648 96.037 66.4648 95.4823C66.4648 94.9276 66.9493 94.4422 67.5029 94.4422L116.916 93.8875C117.47 93.8875 117.955 94.3728 117.955 94.9276C117.955 95.4823 117.47 95.9677 116.916 95.9677L67.5029 96.5224Z" fill="white"/>
<path d="M68.9561 105.19C68.4024 105.19 67.918 104.705 67.918 104.15C67.918 103.595 68.4024 103.11 68.9561 103.11L112.141 102.624C112.764 102.624 113.179 103.11 113.179 103.664C113.179 104.219 112.695 104.705 112.141 104.705L68.9561 105.19Z" fill="white"/>
<path d="M70.3408 112.887C69.7872 112.887 69.3027 112.401 69.3027 111.847C69.3027 111.292 69.7872 110.807 70.3408 110.807L109.373 110.252C109.927 110.252 110.411 110.737 110.411 111.292C110.411 111.847 109.927 112.332 109.373 112.332L70.3408 112.887Z" fill="white"/>
<path d="M78.9221 130.014C80.8714 130.014 82.4516 128.555 82.4516 126.755C82.4516 124.955 80.8714 123.496 78.9221 123.496C76.9728 123.496 75.3926 124.955 75.3926 126.755C75.3926 128.555 76.9728 130.014 78.9221 130.014Z" fill="white"/>
<path d="M101.485 130.014C103.434 130.014 105.014 128.555 105.014 126.755C105.014 124.955 103.434 123.496 101.485 123.496C99.5353 123.496 97.9551 124.955 97.9551 126.755C97.9551 128.555 99.5353 130.014 101.485 130.014Z" fill="white"/>
<path d="M82.2442 118.295C81.7597 118.295 81.2753 117.949 81.2061 117.394L78.2302 95.5516C78.161 94.9969 78.5762 94.4421 79.1299 94.3728C79.6835 94.3035 80.2372 94.7195 80.3064 95.2742L83.2823 117.116C83.3515 117.671 82.9363 118.226 82.3826 118.295C82.3826 118.295 82.3134 118.295 82.2442 118.295Z" fill="white"/>
<path d="M94.9776 119.405C94.9083 119.405 94.9083 119.405 94.9776 119.405C94.3547 119.405 93.9395 118.85 93.9395 118.295L95.1852 95.6903C95.1852 95.1356 95.6696 94.6502 96.2925 94.7195C96.8461 94.7195 97.3306 95.2742 97.2614 95.829L96.0157 118.434C95.9464 118.989 95.5312 119.405 94.9776 119.405Z" fill="white"/>
<path d="M152.141 369.585C152.141 369.585 134.839 353.567 128.541 349.823C122.174 346.079 114.285 330.824 135.6 321.463C142.521 318.412 143.836 310.022 157.193 308.565C170.481 307.109 181.554 313.905 182.938 322.295C184.391 330.685 176.432 337.966 170.481 338.937C164.529 339.977 152.141 369.585 152.141 369.585Z" fill="black"/>
<path d="M182.176 349.823L184.044 347.119L176.709 337.758L171.656 325.415C157.469 324.444 151.794 328.328 151.587 339.214C151.448 346.217 147.78 346.356 147.78 346.356C147.78 346.356 142.382 340.531 139.614 347.466C136.846 354.4 148.403 359.184 148.403 359.184C149.926 362.374 149.58 366.118 147.434 368.961L126.811 397.044C126.811 397.044 165.497 407.306 165.912 401.204C166.051 399.471 165.428 398.015 164.528 396.767C160.099 390.665 168.127 374.231 168.127 374.231L181.069 369.03C183.422 368.06 184.667 365.494 183.975 362.998L181.415 354.192C181.069 352.735 181.276 351.141 182.176 349.823Z" fill="white"/>
<path d="M160.514 404.186C149.926 404.186 129.441 398.847 126.672 398.084C126.326 398.015 126.049 397.737 125.98 397.391C125.842 397.044 125.911 396.697 126.119 396.42L146.742 368.337C148.542 365.91 148.888 362.72 147.711 359.947C145.566 358.976 135.877 354.122 138.714 347.049C139.683 344.761 140.998 343.374 142.728 343.097C145.081 342.681 147.296 344.345 148.196 345.247C148.957 344.969 150.549 343.79 150.618 339.214C150.687 334.083 152.002 330.408 154.632 327.981C157.954 324.93 163.352 323.82 171.795 324.375C172.21 324.375 172.556 324.652 172.695 324.999L177.678 337.203L184.944 346.495C185.221 346.841 185.221 347.327 185.013 347.743L183.145 350.447C182.453 351.487 182.245 352.735 182.591 353.914L185.152 362.72C185.982 365.702 184.529 368.822 181.622 370.001L169.096 375.063C166.881 379.778 162.314 391.705 165.566 396.142C166.743 397.737 167.227 399.471 167.158 401.274C167.158 401.759 166.881 402.522 166.12 403.146C164.944 403.839 163.006 404.186 160.514 404.186ZM128.61 396.489C141.483 399.817 161.414 403.839 164.736 401.482C164.944 401.343 164.944 401.274 164.944 401.204C165.013 399.887 164.667 398.639 163.767 397.46C158.992 390.942 166.951 374.508 167.297 373.815C167.435 373.607 167.573 373.399 167.85 373.329L180.792 368.129C182.66 367.366 183.629 365.355 183.076 363.344L180.515 354.538C179.961 352.735 180.307 350.863 181.346 349.268L182.73 347.188L175.878 338.382C175.809 338.313 175.74 338.243 175.74 338.105L170.965 326.386C163.559 325.97 158.784 326.941 156.016 329.506C153.801 331.517 152.763 334.637 152.694 339.283C152.556 347.188 148.126 347.465 147.919 347.465C147.642 347.465 147.296 347.327 147.088 347.119C146.465 346.495 144.597 344.9 143.074 345.177C142.105 345.385 141.275 346.287 140.652 347.882C138.299 353.775 148.818 358.213 148.888 358.213C149.095 358.283 149.303 358.491 149.441 358.699C151.102 362.235 150.687 366.395 148.403 369.516L128.61 396.489Z" fill="black"/>
<path d="M148.889 337.203L158.716 350.516C162.869 356.133 170.481 357.936 176.71 354.746L182.039 352.042L191.866 370.209C192.904 372.775 191.52 375.756 188.89 376.588L174.565 382.552C170.481 383.869 165.983 382.76 163.007 379.709L147.643 364.038C147.643 364.038 153.457 358.629 147.851 346.425C142.176 334.221 148.889 337.203 148.889 337.203Z" fill="black"/>
<path d="M314.152 377.42L286.124 381.512C286.124 381.512 274.774 425.265 246.191 426.721C232.488 427.415 222.107 423.116 214.979 418.47C204.252 411.467 192.002 407.098 179.268 406.058L127.986 401.828C99.6808 399.471 72.621 414.24 59.3333 439.411C45.0767 466.315 27.429 502.233 16.1483 534.13C14.0721 540.024 18.4322 546.195 24.6608 546.195H160.721L190.688 471.099C205.567 477.479 228.613 483.095 260.863 480.114C329.101 473.873 314.152 377.42 314.152 377.42Z" fill="url(#paint4_linear_1089_2624)"/>
<path d="M160.722 547.304H24.7309C21.409 547.304 18.4331 545.779 16.5645 543.075C14.6268 540.37 14.2115 537.042 15.3188 533.852C26.8763 501.124 45.2161 464.165 58.5038 438.995C71.9991 413.408 99.3357 398.431 128.195 400.857L179.477 405.087C192.211 406.127 204.737 410.496 215.672 417.638C224.738 423.532 234.981 426.236 246.261 425.681C273.736 424.295 285.086 381.72 285.225 381.234C285.363 380.818 285.64 380.541 286.055 380.471L314.084 376.38C314.638 376.311 315.191 376.658 315.26 377.282C315.33 377.836 323.219 430.882 299.897 460.906C290.554 472.902 277.543 479.698 261.072 481.223C228.268 484.274 205.222 478.311 191.381 472.555L161.829 546.68C161.552 547.027 161.137 547.304 160.722 547.304ZM122.174 402.66C96.3598 402.66 72.5527 416.875 60.3032 439.965C47.0155 465.136 28.7449 501.956 17.1874 534.546C16.2877 537.042 16.703 539.677 18.2255 541.827C19.7481 543.976 22.1011 545.224 24.7309 545.224H160.099L189.789 470.753C189.858 470.475 190.066 470.267 190.342 470.198C190.619 470.059 190.896 470.059 191.173 470.198C204.668 475.953 227.714 482.194 260.864 479.143C276.712 477.687 289.308 471.099 298.236 459.589C319.274 432.546 314.292 386.088 313.323 378.599L287.024 382.482C286.263 385.048 283.356 394.617 277.82 404.116C269.238 418.955 258.373 427.138 246.331 427.762C234.635 428.316 223.908 425.543 214.496 419.371C203.838 412.368 191.657 408.138 179.269 407.167L127.987 402.938C125.98 402.73 124.042 402.66 122.174 402.66Z" fill="black"/>
<path d="M196.295 486.146C175.118 479.143 163.629 446.137 163.629 446.137L101.205 458.757C101.205 458.757 144.459 527.889 174.287 534.269C192.835 538.221 230.206 520.678 255.674 506.879C252.422 499.668 247.716 489.267 244.255 481.639C225.569 486.008 205.915 489.336 196.295 486.146Z" fill="url(#paint5_linear_1089_2624)"/>
<path d="M180.17 535.794C177.955 535.794 175.879 535.586 174.01 535.239C144.113 528.86 102.035 462.154 100.305 459.311C100.028 458.826 100.167 458.202 100.651 457.855C101.136 457.578 101.758 457.717 102.105 458.202C102.52 458.895 145.497 527.057 174.495 533.228C188.405 536.21 216.711 526.641 254.359 506.394C249.861 496.478 246.262 488.504 243.632 482.818C220.171 488.434 204.184 489.96 195.949 487.256C174.495 480.114 163.145 447.94 162.66 446.553C162.453 445.998 162.73 445.443 163.283 445.235C163.837 445.027 164.391 445.305 164.598 445.859C164.737 446.206 176.156 478.449 196.572 485.245C204.392 487.81 220.794 486.216 243.978 480.599C244.463 480.46 244.947 480.738 245.155 481.154C247.854 487.117 251.729 495.576 256.574 506.394C256.781 506.879 256.574 507.503 256.089 507.711C231.729 520.955 199.824 535.794 180.17 535.794Z" fill="black"/>
<path d="M323.427 488.781L294.568 472.694C290.139 470.198 284.81 469.712 279.965 471.238C271.937 473.873 258.373 478.033 244.186 481.431C247.646 489.058 252.352 499.459 255.605 506.671C271.038 498.35 282.111 491.347 282.111 491.347L300.727 501.193C300.727 501.193 299.689 517.627 303.357 518.043C307.094 518.528 308.479 503.343 308.479 503.343C308.479 503.343 311.662 522.134 317.129 518.043L319.206 495.368C319.206 495.368 322.874 505.423 324.95 505.839C327.026 506.255 327.026 506.255 327.026 506.255L323.427 488.781Z" fill="white"/>
<path d="M315.677 519.776C315.192 519.776 314.846 519.707 314.5 519.568C311.801 518.459 309.933 513.466 308.825 509.306C308.133 512.912 307.026 517.141 305.296 518.597C304.534 519.222 303.842 519.222 303.358 519.222C299.344 518.736 299.413 507.503 299.759 501.956L282.25 492.734C279.897 494.19 269.654 500.5 256.228 507.78C255.951 507.919 255.675 507.919 255.398 507.85C255.121 507.78 254.913 507.572 254.775 507.295C249.861 496.478 246.055 487.949 243.356 482.055C243.217 481.778 243.217 481.431 243.356 481.154C243.494 480.876 243.771 480.668 244.048 480.599C257.889 477.201 271.108 473.18 279.758 470.406C284.88 468.742 290.486 469.296 295.192 471.931L324.051 488.018C324.328 488.157 324.466 488.434 324.535 488.712L328.272 506.255C328.342 506.602 328.272 506.948 327.996 507.226C327.719 507.503 327.373 507.572 327.027 507.503L324.95 507.087C323.359 506.74 321.49 503.412 320.037 500.014L318.307 518.389C318.307 518.667 318.099 518.944 317.891 519.152C317.061 519.568 316.369 519.776 315.677 519.776ZM308.548 502.441C309.033 502.441 309.517 502.788 309.587 503.273C310.417 508.266 312.701 516.587 315.261 517.557C315.469 517.627 315.815 517.696 316.23 517.488L318.307 495.299C318.376 494.814 318.722 494.398 319.206 494.398C319.691 494.328 320.175 494.606 320.314 495.091C322.113 500.014 324.397 504.521 325.296 504.868L325.781 504.937L322.459 489.405L294.084 473.596C289.863 471.238 284.88 470.753 280.312 472.209C271.869 474.913 259.135 478.796 245.709 482.124C248.269 487.81 251.799 495.576 256.159 505.215C270.831 497.241 281.489 490.515 281.627 490.515C281.973 490.307 282.319 490.307 282.665 490.445L301.282 500.292C301.628 500.5 301.835 500.846 301.835 501.262C301.351 509.306 302.181 516.864 303.566 517.003C303.635 517.003 303.704 517.003 303.912 516.864C305.711 515.408 307.095 507.711 307.51 503.273C307.58 502.857 307.995 502.441 308.548 502.441Z" fill="black"/>
<path d="M176.224 408.485L177.47 400.719C177.885 398.153 176.224 395.657 173.663 395.102C160.929 392.398 125.565 384.701 120.928 381.511C115.322 377.559 74.5595 416.043 80.6497 415.003C126.188 407.514 176.224 408.485 176.224 408.485Z" fill="url(#paint6_linear_1089_2624)"/>
<path d="M80.5107 416.112C79.611 416.112 79.265 415.558 79.1958 415.35C78.9189 414.656 78.3653 413.547 85.7704 405.919C90.0612 401.551 95.7361 396.281 100.996 391.982C117.813 378.044 120.72 380.055 121.619 380.749C124.665 382.898 144.181 387.891 173.94 394.201C177.054 394.825 179.061 397.806 178.577 400.996L177.331 408.762C177.262 409.248 176.846 409.664 176.293 409.664C175.808 409.664 125.841 408.762 80.9259 416.182C80.7183 416.043 80.6491 416.112 80.5107 416.112ZM119.889 382.274C119.474 382.274 118.851 382.413 117.744 382.829C107.57 386.989 85.0091 408.485 81.5488 413.824C123.073 407.098 168.403 407.306 175.324 407.375L176.431 400.511C176.777 398.5 175.462 396.558 173.455 396.142C159.06 393.091 125.08 385.672 120.374 382.344C120.374 382.344 120.235 382.274 119.889 382.274Z" fill="black"/>
<path d="M300.106 331.17C300.867 329.645 304.812 324.999 306.542 323.612L325.297 306.138C325.297 306.138 327.719 314.529 324.812 319.521C330.557 319.729 335.124 320.7 335.124 320.7C335.124 320.7 343.706 313.142 345.782 311.824C347.927 310.507 350.696 308.427 353.533 308.496C356.44 308.565 359.277 310.715 359.277 310.715L342.806 331.586L312.84 339.977L314.501 385.464L286.057 381.581L300.106 331.17Z" fill="white"/>
<path d="M314.569 386.435C314.5 386.435 314.5 386.435 314.43 386.435L285.987 382.552C285.71 382.482 285.433 382.344 285.294 382.066C285.156 381.789 285.087 381.511 285.156 381.234L299.136 330.893C299.136 330.824 299.205 330.754 299.205 330.685C300.035 329.021 303.98 324.306 305.918 322.85L324.604 305.445C324.881 305.168 325.227 305.098 325.573 305.237C325.919 305.306 326.196 305.584 326.265 305.93C326.334 306.277 328.341 313.35 326.334 318.62C330.348 318.828 333.532 319.382 334.708 319.66C336.438 318.134 343.22 312.24 345.158 311.062C345.435 310.854 345.781 310.715 346.058 310.507C348.134 309.189 350.626 307.595 353.394 307.595H353.463C356.647 307.664 359.692 309.952 359.83 310.022C360.038 310.16 360.176 310.438 360.245 310.715C360.245 310.992 360.176 311.27 360.038 311.478L343.567 332.349C343.428 332.557 343.22 332.627 343.013 332.696L313.877 340.739L315.538 385.395C315.538 385.672 315.399 386.019 315.192 386.227C315.053 386.365 314.777 386.435 314.569 386.435ZM287.44 380.679L313.462 384.216L311.801 339.977C311.801 339.491 312.077 339.075 312.562 338.936L342.182 330.754L357.754 310.992C356.785 310.368 355.124 309.605 353.532 309.536C351.387 309.536 349.103 310.992 347.234 312.102C346.888 312.31 346.612 312.518 346.266 312.726C344.605 313.766 338.099 319.383 335.746 321.463C335.469 321.671 335.192 321.74 334.846 321.671C334.777 321.671 330.279 320.7 324.742 320.492C324.396 320.492 324.05 320.284 323.843 319.937C323.635 319.591 323.704 319.244 323.843 318.897C325.78 315.638 325.158 310.646 324.673 308.08L307.233 324.306L307.164 324.375C305.572 325.554 301.835 329.992 301.074 331.448L287.44 380.679Z" fill="black"/>
<path d="M161.414 374.647C155.739 374.647 150.341 371.388 147.78 366.049L144.874 360.016C144.597 359.531 144.874 358.907 145.358 358.629C145.843 358.352 146.465 358.629 146.742 359.115L149.649 365.147C152.417 370.972 158.923 373.815 165.082 372.081L179.2 367.99C179.754 367.851 180.307 368.129 180.515 368.684C180.653 369.238 180.377 369.793 179.823 370.001L165.705 374.092C164.251 374.439 162.867 374.647 161.414 374.647Z" fill="#5495F7"/>
<path d="M144.873 345.524C144.32 345.524 143.904 345.108 143.835 344.622C143.697 343.721 141.344 322.156 151.033 312.449C154.701 308.773 159.545 307.317 165.566 308.011C166.12 308.08 166.535 308.565 166.466 309.19C166.397 309.744 165.843 310.16 165.289 310.091C159.96 309.467 155.67 310.715 152.486 313.905C143.489 322.919 145.842 344.137 145.842 344.345C145.911 344.9 145.496 345.455 144.943 345.524H144.873Z" fill="#5495F7"/>
<path d="M180.523 372.187C182.684 372.461 184.654 370.958 184.923 368.83C185.192 366.703 183.657 364.756 181.496 364.482C179.334 364.208 177.364 365.711 177.096 367.838C176.827 369.966 178.361 371.913 180.523 372.187Z" fill="#5495F7"/>
<path d="M156.568 353.498C157.33 347.535 153.523 342.196 148.125 341.502C147.502 341.433 145.357 341.363 144.734 341.433C140.028 341.779 137.606 345.732 136.914 351.002C136.222 356.688 138.367 362.027 143.419 363.067C143.627 363.136 145.149 363.206 145.357 363.206C151.309 363.275 155.807 359.461 156.568 353.498Z" fill="#99B9FF"/>
<path d="M143.242 363.027C148.677 363.608 153.596 359.264 154.228 353.323C154.861 347.382 150.968 342.095 145.533 341.514C140.097 340.933 135.179 345.278 134.546 351.219C133.913 357.159 137.806 362.446 143.242 363.027Z" fill="#5495F7"/>
<path d="M424.469 574H5.76895C2.72386 574 0.232422 571.504 0.232422 568.453V549.801C0.232422 546.75 2.72386 544.253 5.76895 544.253H424.469C427.514 544.253 430.006 546.75 430.006 549.801V568.453C430.006 571.504 427.514 574 424.469 574Z" fill="#5495F7"/>
<path d="M407.722 536.557H324.189L424.262 441.144C427.377 438.163 431.46 436.36 435.128 436.36H502.95C507.241 436.36 508.002 441.006 504.334 444.542L407.722 536.557Z" fill="black"/>
<path d="M452.221 469.782C447.861 473.942 440.663 477.34 436.165 477.34C431.666 477.34 431.597 473.942 435.957 469.782C440.317 465.621 447.515 462.224 452.013 462.224C456.512 462.224 456.581 465.621 452.221 469.782Z" fill="#CADDFF"/>
<path d="M401.7 545.987H232.836C228.476 545.987 224.877 542.451 224.877 538.013V535.725H409.589V538.013C409.589 542.381 406.06 545.987 401.7 545.987Z" fill="black"/>
<path d="M404.123 537.735H319.345C318.791 537.735 318.307 537.25 318.307 536.695C318.307 536.141 318.791 535.655 319.345 535.655H404.123C404.677 535.655 405.161 536.141 405.161 536.695C405.161 537.25 404.677 537.735 404.123 537.735Z" fill="white"/>
<path d="M548.418 145.407L572.71 137.988L570.633 115.799L545.373 112.54C543.989 107.617 542.051 102.763 539.767 97.9785L556.931 80.0193L543.504 61.7828L519.905 71.005C516.029 67.33 511.877 64.0016 507.448 61.02L512.846 37.3056L491.669 27.9446L476.097 47.1519C470.837 45.8345 465.509 44.933 460.11 44.4476L452.359 21.496L429.106 23.4375L425.715 47.4986C420.524 48.8161 415.403 50.6189 410.42 52.8378L391.527 36.5428L372.426 49.3015L382.115 71.7678C378.239 75.5122 374.709 79.4646 371.664 83.625L346.75 78.4938L336.923 98.6719L357.131 113.511C355.747 118.503 354.847 123.634 354.293 128.766L330.002 136.185L332.078 158.374L357.339 161.633C358.723 166.556 360.661 171.41 362.944 176.194L345.781 194.154L359.207 212.39L382.807 203.168C386.682 206.843 390.835 210.171 395.264 213.153L389.866 236.867L411.043 246.228L426.614 227.021C431.874 228.338 437.203 229.24 442.601 229.725L450.421 252.885L473.675 250.943L477.066 226.882C482.257 225.565 487.378 223.762 492.361 221.543L511.254 237.838L530.355 225.079L520.666 202.613C524.542 198.869 528.071 194.916 531.116 190.756L556.031 195.887L565.858 175.709L545.65 160.87C547.034 155.67 547.934 150.538 548.418 145.407ZM456.512 206.288C417.41 209.062 383.291 181.118 380.454 143.812C377.547 106.577 406.891 74.1254 446.061 71.3517C485.163 68.5781 519.282 96.5223 522.12 133.827C525.026 171.063 495.683 203.515 456.512 206.288Z" fill="#5495F7"/>
<path d="M419.625 74.9574C419.625 74.9574 427.999 73.3626 429.383 56.5129C430.767 39.6631 430.144 24.963 447.238 19.2077C464.402 13.4525 481.565 21.8426 482.326 38.0683C483.087 54.294 495.545 62.4761 507.171 68.8554C522.189 77.107 521.359 79.3258 529.11 96.3836C537.484 114.689 517.968 152.549 461.772 122.04L419.625 74.9574Z" fill="black"/>
<path d="M440.389 59.1478C440.389 59.1478 443.226 61.7134 448.693 60.396L440.389 59.1478Z" fill="white"/>
<path d="M445.648 61.7828C441.841 61.7828 439.834 59.9799 439.696 59.9106C439.281 59.4946 439.211 58.8705 439.627 58.4545C440.042 58.0384 440.665 57.9691 441.08 58.3851C441.218 58.4544 443.641 60.5347 448.416 59.3559C448.97 59.2172 449.523 59.5639 449.662 60.1186C449.8 60.6733 449.454 61.2281 448.9 61.3667C447.724 61.7135 446.617 61.7828 445.648 61.7828Z" fill="black"/>
<path d="M467.933 387.059C467.933 387.059 464.403 400.788 460.113 405.226C455.822 409.664 438.174 419.025 438.589 427.761C439.074 437.955 445.441 439.411 461.773 434.557C473.539 431.09 482.951 423.393 486.134 419.094C488.972 415.35 487.034 412.507 485.927 408.415C484.612 403.423 483.989 398.292 483.643 393.091L483.02 384.701L467.933 387.059Z" fill="white"/>
<path d="M447.793 438.232C444.955 438.232 442.879 437.677 441.287 436.498C439.004 434.834 437.758 431.991 437.55 427.762C437.204 420.827 446.685 413.963 453.537 408.97C456.028 407.167 458.243 405.573 459.35 404.394C463.364 400.233 466.894 386.851 466.894 386.712L467.032 386.019L483.849 383.384L484.611 392.953C484.957 397.529 485.51 402.868 486.895 408.069C487.102 408.832 487.379 409.594 487.587 410.357C488.555 413.408 489.524 416.251 486.895 419.649C483.711 423.878 474.091 431.853 461.98 435.458C455.959 437.331 451.322 438.232 447.793 438.232ZM468.762 387.96C468.001 390.803 464.748 401.898 460.873 405.919C459.627 407.237 457.412 408.832 454.783 410.704C448.277 415.419 439.35 421.868 439.626 427.692C439.834 431.298 440.734 433.586 442.464 434.834C445.44 436.914 451.322 436.568 461.427 433.517C473.053 430.05 482.258 422.422 485.303 418.47C487.241 415.904 486.618 413.963 485.649 411.05C485.372 410.288 485.164 409.525 484.888 408.624C483.434 403.284 482.881 397.806 482.535 393.161L481.981 385.88L468.762 387.96Z" fill="black"/>
<path d="M439.557 432.962C439.073 432.962 438.588 432.615 438.519 432.061C438.45 431.506 438.865 430.951 439.419 430.882L445.302 430.05C460.112 427.969 473.538 420.897 483.158 410.149C484.472 408.693 485.165 407.791 485.165 407.791C485.511 407.306 486.203 407.237 486.618 407.583C487.102 407.93 487.172 408.624 486.826 409.04C486.826 409.109 486.064 410.01 484.749 411.536C474.853 422.7 460.942 429.98 445.648 432.13L439.765 432.962C439.696 432.962 439.627 432.962 439.557 432.962Z" fill="black"/>
<path d="M473.539 408.832H473.469C473.123 408.832 464.957 408.069 461.427 404.255C461.012 403.839 461.081 403.146 461.497 402.799C461.912 402.383 462.604 402.452 462.95 402.868C465.995 406.127 473.608 406.821 473.677 406.821C474.231 406.89 474.646 407.375 474.646 407.93C474.507 408.485 474.092 408.832 473.539 408.832Z" fill="black"/>
<path d="M466.894 413.893C466.825 413.893 466.825 413.893 466.756 413.893C466.41 413.824 458.589 412.784 455.821 408.97C455.475 408.485 455.614 407.861 456.029 407.514C456.513 407.167 457.136 407.306 457.482 407.722C459.351 410.357 465.026 411.536 467.033 411.813C467.586 411.883 468.002 412.437 467.932 412.992C467.863 413.547 467.379 413.893 466.894 413.893Z" fill="black"/>
<path d="M459.627 418.747C459.558 418.747 459.42 418.747 459.351 418.678C459.074 418.609 452.568 416.806 450.215 412.853C449.938 412.368 450.077 411.744 450.561 411.397C451.046 411.12 451.669 411.258 452.015 411.744C453.883 414.933 459.835 416.598 459.904 416.598C460.458 416.736 460.804 417.291 460.596 417.846C460.527 418.4 460.112 418.747 459.627 418.747Z" fill="black"/>
<path d="M500.805 351.487C501.359 351.418 509.318 350.1 513.885 349.337C515.685 349.06 517.346 350.169 517.692 351.834L519.214 359.738C519.768 362.512 520.598 365.286 521.636 367.921C523.505 372.774 526.412 381.095 525.512 385.117C524.543 389.347 520.875 395.449 518.453 398.916C517.346 400.511 515.269 401.273 513.332 400.788C509.802 399.956 504.127 398.222 500.736 395.379C495.407 391.011 500.044 381.581 500.044 381.581L500.805 351.487Z" fill="white"/>
<path d="M514.508 402.106C514.023 402.106 513.539 402.036 513.124 401.967C509.11 400.996 503.573 399.193 500.113 396.35C494.646 391.843 498.383 383.037 499.075 381.511L499.905 350.586L500.874 350.516C501.013 350.516 502.466 350.308 513.885 348.367C516.238 347.951 518.453 349.476 518.868 351.695L520.39 359.6C520.875 362.304 521.705 365.008 522.743 367.643C525.027 373.537 527.588 381.373 526.688 385.394C525.719 389.624 522.19 395.726 519.422 399.54C518.245 401.204 516.376 402.106 514.508 402.106ZM501.843 352.458L501.013 381.997L500.943 382.205C500.874 382.274 496.722 390.942 501.359 394.755C504.75 397.529 510.494 399.193 513.608 399.956C515.131 400.303 516.792 399.748 517.691 398.5C520.529 394.478 523.712 388.792 524.612 385.048C525.235 382.343 523.851 376.311 520.806 368.475C519.698 365.702 518.868 362.859 518.383 360.085L516.861 352.18C516.653 351.071 515.477 350.308 514.231 350.516C506.272 351.695 503.158 352.25 501.843 352.458Z" fill="black"/>
<path d="M511.048 400.996C510.84 400.996 510.632 400.927 510.494 400.857C510.01 400.58 509.871 399.887 510.148 399.401C518.522 386.227 517.692 383.245 515.754 376.172C515.339 374.647 514.854 372.844 514.37 370.833C513.193 365.424 509.871 350.655 509.802 350.516C509.664 349.962 510.01 349.407 510.563 349.268C511.117 349.129 511.671 349.476 511.809 350.031C511.809 350.17 515.2 365.008 516.377 370.348C516.792 372.358 517.276 374.092 517.692 375.617C519.699 382.898 520.737 386.573 511.878 400.58C511.74 400.857 511.394 400.996 511.048 400.996Z" fill="black"/>
<path d="M510.633 378.044H510.564L501.429 377.42C500.875 377.351 500.391 376.866 500.46 376.311C500.529 375.756 501.013 375.34 501.567 375.34L510.702 375.964C511.256 376.034 511.74 376.519 511.671 377.074C511.602 377.628 511.118 378.044 510.633 378.044Z" fill="black"/>
<path d="M510.149 384.285H510.08L500.944 383.661C500.391 383.592 499.906 383.106 499.975 382.551C500.045 381.997 500.529 381.581 501.083 381.581L510.218 382.205C510.772 382.274 511.256 382.759 511.187 383.314C511.187 383.869 510.702 384.285 510.149 384.285Z" fill="black"/>
<path d="M500.666 387.475C495.683 391.288 484.887 396.558 465.786 392.537L460.318 211.419L495.06 202.544C495.06 202.544 503.157 247.13 501.704 292.617C500.389 334.152 502.88 369.308 503.849 380.471C503.988 383.106 502.811 385.741 500.666 387.475Z" fill="black"/>
<path d="M492.985 197.274L409.037 207.744L418.726 295.321C419.833 305.514 423.986 315.291 430.56 323.404C441.149 336.44 457.966 355.509 470.631 362.582C490.632 373.676 492.985 197.274 492.985 197.274Z" fill="black"/>
<path d="M463.502 360.363C462.948 360.363 462.464 359.947 462.464 359.323L460.803 302.255C460.803 301.701 461.218 301.215 461.841 301.215C462.394 301.215 462.879 301.631 462.879 302.255L464.54 359.323C464.54 359.877 464.125 360.363 463.502 360.363Z" fill="#CADDFF"/>
<path d="M336.992 49.2321C337.545 49.0935 337.891 48.6081 337.822 48.0534C337.545 45.2797 336.3 36.8895 331.04 33.4225C324.673 29.1928 318.79 18.861 315.261 20.1092C311.731 21.4266 320.451 30.1635 319.621 31.273C318.79 32.3824 312.008 26.9739 309.724 23.6455C307.441 20.3172 304.534 13.7298 301.627 14.1459C297.682 14.77 297.267 20.5252 303.357 31.3423C309.171 41.674 326.265 43.3382 328.064 50.3416C328.203 50.9657 328.895 51.3124 329.517 51.1043L336.992 49.2321Z" fill="white"/>
<path d="M329.242 52.2138C328.273 52.2138 327.373 51.5897 327.096 50.619C326.335 47.776 322.252 45.7651 317.546 43.4076C312.009 40.6339 305.711 37.583 302.459 31.8277C298.168 24.2003 296.714 18.5837 298.237 15.394C298.86 14.0766 299.967 13.3138 301.42 13.1058C304.327 12.6897 306.611 16.5728 308.826 20.3172C309.448 21.288 310.002 22.2587 310.487 23.0215C312.078 25.3097 315.677 28.3607 317.753 29.6782C317.407 29.1928 317.061 28.638 316.715 28.1527C314.431 24.8243 312.84 22.3281 313.393 20.5252C313.532 20.0398 313.878 19.4158 314.847 19.0691C317.546 18.0983 320.452 21.288 324.12 25.3097C326.404 27.8753 329.034 30.7183 331.595 32.4518C337.131 36.1268 338.515 44.4477 338.861 47.8453C339 48.8854 338.308 49.8562 337.2 50.1336L329.726 52.0751C329.588 52.2138 329.38 52.2138 329.242 52.2138ZM301.905 15.186C301.836 15.186 301.836 15.186 301.767 15.186C301.005 15.3247 300.452 15.6714 300.106 16.3648C298.929 18.7917 300.521 24.2003 304.258 30.8569C307.165 35.9881 313.186 38.9698 318.445 41.6047C323.636 44.1703 328.065 46.3892 329.103 50.1336C329.103 50.1336 329.172 50.2029 329.242 50.2029L336.716 48.2614C336.785 48.2614 336.785 48.192 336.785 48.192C336.508 45.7651 335.332 37.583 330.487 34.324C327.719 32.4518 325.02 29.4701 322.667 26.8352C320.037 23.9229 317.061 20.5946 315.677 21.1493C315.539 21.2186 315.539 21.2186 315.539 21.2186C315.262 22.1894 317.407 25.3097 318.584 27.0432C320.383 29.6088 321.283 30.9263 320.522 31.897C320.383 32.1051 319.968 32.4518 319.276 32.4518C316.923 32.3824 310.902 27.0432 308.964 24.2003C308.41 23.3682 307.857 22.3974 307.234 21.3573C305.642 18.9304 303.427 15.186 301.905 15.186Z" fill="black"/>
<path d="M534.577 216.897C535.13 216.759 535.615 217.036 535.892 217.452C537.068 219.532 540.182 224.733 544.612 226.397C547.726 227.576 550.563 228.338 554.508 231.389C558.453 234.44 565.512 242.692 564.266 244.911C562.813 247.546 557.346 245.327 553.124 243.316C548.903 241.236 544.404 235.897 540.459 235.619C536.445 235.342 545.511 243.801 544.404 245.258C543.297 246.783 538.937 244.98 535.822 240.889C534.646 239.294 527.033 224.871 524.749 220.503C524.403 219.879 524.819 219.116 525.511 218.908L534.577 216.897Z" fill="white"/>
<path d="M561.775 247.199C559.215 247.199 555.754 245.743 552.709 244.217C550.91 243.316 549.11 241.929 547.38 240.612C545.027 238.809 542.674 236.937 540.598 236.659C541.013 237.491 542.121 239.086 542.882 240.057C544.889 242.761 546.204 244.564 545.304 245.882C545.027 246.298 544.404 246.852 543.228 246.852C543.228 246.852 543.228 246.852 543.159 246.852C540.736 246.852 537.345 244.634 535.062 241.513C533.816 239.918 526.826 226.605 523.919 220.988C523.642 220.434 523.573 219.74 523.85 219.116C524.127 218.492 524.681 218.076 525.373 217.868L534.369 215.857C535.338 215.649 536.376 216.065 536.792 216.967C537.899 218.978 540.944 223.901 544.958 225.496C545.443 225.704 545.927 225.842 546.411 226.05C548.972 227.021 551.671 227.992 555.131 230.627C558.107 232.915 567.035 242.068 565.166 245.466C564.544 246.714 563.298 247.199 561.775 247.199ZM540.321 234.51C540.39 234.51 540.46 234.51 540.598 234.51C543.297 234.718 546.065 236.867 548.695 238.948C550.356 240.265 552.017 241.583 553.609 242.345C561.083 246.02 562.952 245.188 563.367 244.425C563.921 243.108 558.523 235.827 553.886 232.222C550.702 229.725 548.28 228.893 545.789 227.922C545.304 227.714 544.82 227.576 544.266 227.368C539.56 225.565 536.238 220.156 534.992 217.937C534.992 217.868 534.923 217.868 534.854 217.868L525.857 219.879C525.788 219.879 525.788 219.948 525.788 219.948C530.494 228.963 535.892 239.017 536.792 240.196C539.145 243.316 541.982 244.703 543.297 244.703C543.366 244.703 543.505 244.703 543.505 244.703C543.228 243.94 542.051 242.276 541.29 241.305C539.145 238.393 537.968 236.659 538.729 235.411C538.868 234.995 539.283 234.51 540.321 234.51Z" fill="black"/>
<path d="M439.696 72.3918C432.083 71.2824 424.332 71.213 416.65 72.1838C407.861 73.2932 396.857 75.3734 389.867 79.3258C376.718 86.8146 370.835 95.1355 362.53 92.6392C355.609 90.4897 344.329 59.0091 340.868 48.8854C340.246 47.1519 338.377 46.1811 336.578 46.6665L328.273 48.8854C326.543 49.3708 325.435 50.9656 325.712 52.6298C327.996 66.2205 337.962 121.623 351.042 124.674C365.921 128.142 401.009 107.478 401.009 107.478C401.009 107.478 406.061 176.194 399.348 213.014C399.348 213.014 414.297 211.905 424.401 215.025C477.967 231.875 497.968 206.011 497.968 206.011C496.514 192.004 492.569 182.574 480.735 167.666C474.23 159.483 471.531 145.823 482.05 132.51C482.05 132.51 516.446 212.875 522.397 222.236C522.813 222.861 539.768 218.007 539.768 217.591C540.253 187.844 514.716 134.243 510.563 121.138C509.317 117.186 507.726 113.233 505.788 109.558C499.628 97.9784 486.341 79.2565 464.125 75.7895L439.696 72.3918Z" fill="url(#paint7_linear_1089_2624)"/>
<path d="M522.605 223.346C521.844 223.346 521.705 223.138 521.498 222.791C515.961 214.124 486.825 146.378 481.773 134.59C472.707 147.279 475.821 159.899 481.566 167.041C493.331 181.811 497.552 191.311 499.075 205.941C499.075 206.219 499.006 206.496 498.867 206.704C498.66 206.982 493.538 213.43 481.704 217.868C470.908 221.89 452.084 224.871 424.193 216.065C414.435 213.014 399.694 214.054 399.556 214.054C399.21 214.054 398.933 213.985 398.725 213.708C398.518 213.5 398.448 213.153 398.448 212.806C404.469 179.661 400.871 119.89 400.179 109.212C393.95 112.748 369.52 126.061 354.917 126.061C353.464 126.061 352.08 125.923 350.903 125.645C344.882 124.258 339.138 113.511 333.463 92.8472C329.034 76.8296 325.989 59.4945 324.813 52.7685C324.466 50.5496 325.851 48.4 328.134 47.8453L336.439 45.6264C338.792 45.0023 341.215 46.2505 341.976 48.4694C350.627 73.7093 358.655 90.2123 362.945 91.5298C367.998 93.1246 372.15 90.0736 378.448 85.5665C381.562 83.3476 385.092 80.782 389.452 78.2857C396.718 74.1253 408.276 72.0451 416.65 71.005C424.332 70.0342 432.221 70.1729 439.972 71.213L464.333 74.68C487.241 78.2164 500.805 97.7011 506.826 109.004C508.764 112.609 510.356 116.423 511.67 120.791C512.639 123.842 514.785 129.182 517.484 135.908C526.411 157.889 541.291 194.639 540.876 217.591C540.876 218.492 540.876 218.631 533.332 220.78C526.55 222.722 523.851 223.346 522.605 223.346ZM481.981 131.47C482.05 131.47 482.05 131.47 482.119 131.47C482.465 131.539 482.811 131.747 482.95 132.094C483.296 132.857 516.377 210.241 522.951 221.196C525.373 220.919 536.17 217.868 538.661 216.967C538.73 194.431 524.128 158.305 515.408 136.74C512.639 129.944 510.494 124.605 509.525 121.485C508.21 117.255 506.688 113.511 504.819 110.044C499.006 99.0879 485.926 80.2273 463.849 76.8296L439.488 73.3626C431.875 72.2531 424.262 72.1838 416.719 73.1546C408.553 74.1253 397.341 76.2055 390.282 80.1579C386.06 82.5849 382.531 85.0811 379.486 87.3C372.911 92.0152 368.205 95.4128 362.184 93.5406C355.263 91.3911 345.229 64.8337 339.83 49.1628C339.415 47.984 338.031 47.2906 336.785 47.6373L328.48 49.8562C327.235 50.2029 326.474 51.3123 326.681 52.4911C331.941 83.9023 341.491 121.415 351.18 123.704C365.506 127.032 400.04 106.854 400.386 106.646C400.663 106.438 401.078 106.438 401.424 106.646C401.77 106.785 401.978 107.131 401.978 107.478C402.047 108.171 406.822 175.154 400.594 211.974C404.539 211.766 416.165 211.489 424.678 214.124C451.945 222.722 470.216 219.879 480.735 215.996C490.632 212.321 495.753 207.12 496.86 205.803C495.407 191.865 491.185 182.712 479.905 168.428C473.538 160.385 470.077 146.031 481.22 131.955C481.358 131.609 481.704 131.47 481.981 131.47Z" fill="black"/>
<path d="M436.166 201.989C435.82 201.989 435.474 201.781 435.266 201.504L416.442 170.578C416.165 170.092 416.303 169.468 416.788 169.122C417.272 168.844 417.895 168.983 418.241 169.468L437.065 200.325C437.342 200.81 437.204 201.434 436.719 201.781C436.512 201.92 436.304 201.989 436.166 201.989Z" fill="black"/>
<path d="M421.978 197.69C421.632 197.69 421.217 197.482 421.078 197.135L414.435 184.515C414.158 184.03 414.365 183.406 414.85 183.129C415.334 182.851 415.957 183.059 416.234 183.545L422.878 196.164C423.155 196.65 422.947 197.274 422.463 197.551C422.255 197.621 422.116 197.69 421.978 197.69Z" fill="black"/>
<path d="M440.803 59.4946C435.197 56.3742 439.626 34.8787 445.439 31.3424C451.253 27.806 464.333 30.3022 464.333 30.3022C460.734 45.4878 469.523 48.5388 470.769 48.4694C471.946 48.4001 475.752 48.3308 473.745 53.3233C471.738 58.3158 466.201 56.0275 466.201 56.0275C465.233 56.9983 463.295 58.1771 460.873 59.2172C458.589 67.7461 462.326 74.1254 465.371 77.5924C466.894 79.3953 466.132 82.0995 463.848 82.7929C460.111 83.9024 454.436 84.8038 447.031 83.4864C441.356 82.5156 437.481 80.8514 434.92 79.2566C432.775 77.9391 432.844 74.8881 435.128 73.7094C441.079 70.5197 444.54 61.5748 440.803 59.4946Z" fill="white"/>
<path d="M454.16 85.1505C451.945 85.1505 449.523 84.9424 446.824 84.5264C441.841 83.625 437.619 82.1688 434.367 80.1579C433.052 79.3259 432.291 77.9391 432.36 76.4136C432.429 74.8881 433.259 73.5706 434.644 72.8079C438.588 70.7277 441.287 65.9432 441.357 62.7535C441.357 61.5747 441.011 60.812 440.319 60.3959C438.381 59.2865 437.273 56.5129 437.204 52.3524C437.066 44.6557 440.526 33.1451 444.955 30.4409C451.046 26.7658 463.987 29.1234 464.541 29.2621L465.579 29.4701L465.302 30.5102C463.434 38.2763 465.025 42.5061 466.686 44.725C468.347 46.8745 470.354 47.4293 470.631 47.4293C472.984 47.2906 474.161 48.1227 474.645 48.8161C475.476 49.9255 475.476 51.5897 474.576 53.6699C472.846 57.969 468.693 57.8997 466.271 57.2063C465.164 58.1077 463.503 59.0785 461.565 59.9799C459.696 67.6767 462.88 73.4319 465.994 76.8989C466.963 78.0084 467.309 79.4645 466.894 80.8514C466.479 82.2382 465.371 83.3476 463.987 83.7637C461.773 84.4571 458.382 85.1505 454.16 85.1505ZM441.287 58.5931C442.672 59.3558 443.364 60.812 443.364 62.7535C443.294 66.4979 440.319 72.1145 435.543 74.6107C434.851 74.9574 434.436 75.6508 434.367 76.4136C434.367 77.1763 434.713 77.9391 435.405 78.3551C438.45 80.2273 442.395 81.6141 447.17 82.4462C454.506 83.7636 460.112 82.7929 463.503 81.7528C464.264 81.5448 464.818 80.99 465.025 80.2273C465.233 79.5339 465.025 78.7711 464.541 78.2164C461.081 74.264 457.413 67.6767 459.835 58.8704L459.973 58.3851L460.458 58.177C462.672 57.2063 464.541 56.0968 465.51 55.1954L465.994 54.71L466.617 54.9874C467.102 55.1954 471.254 56.7209 472.776 52.8378C473.33 51.5204 473.399 50.4802 473.053 49.9949C472.707 49.5788 471.946 49.3708 470.839 49.4401C469.731 49.5095 467.378 48.6081 465.441 46.3198C463.364 43.8929 461.357 39.3164 463.088 31.0649C459.904 30.5796 450.492 29.4008 445.994 32.1744C442.602 34.2546 439.073 44.5863 439.211 52.2831C439.35 55.6114 440.042 57.8997 441.287 58.5931Z" fill="black"/>
<path d="M440.804 361.611C437.759 361.611 435.268 359.045 435.268 355.994L435.614 317.718C435.614 314.667 438.174 312.171 441.219 312.171L546.621 313.073C549.666 313.073 552.158 315.638 552.158 318.689L551.812 356.965C551.812 360.016 549.251 362.512 546.206 362.512L525.859 362.304L518.731 375.271L511.464 362.166L440.804 361.611Z" fill="white"/>
<path d="M518.661 376.796C518.246 376.796 517.9 376.588 517.761 376.242L510.841 363.275L440.804 362.651C437.136 362.651 434.229 359.6 434.298 355.994L434.644 317.718C434.644 314.113 437.62 311.2 441.219 311.2H441.288L546.69 312.102C548.42 312.102 550.081 312.795 551.327 314.043C552.572 315.291 553.264 316.956 553.195 318.758L552.849 357.034C552.849 358.768 552.157 360.432 550.911 361.68C549.666 362.928 548.005 363.552 546.205 363.552L526.066 363.344L519.561 376.172C519.353 376.588 519.007 376.796 518.661 376.796ZM441.219 313.211C438.727 313.211 436.72 315.222 436.72 317.718L436.374 355.994C436.374 358.49 438.381 360.571 440.873 360.571L511.464 361.195C511.81 361.195 512.225 361.403 512.363 361.749L518.661 373.537L524.544 361.888C524.751 361.541 525.097 361.333 525.513 361.333L546.275 361.541C546.275 361.541 546.275 361.541 546.344 361.541C547.52 361.541 548.628 361.056 549.527 360.224C550.358 359.392 550.842 358.213 550.911 357.034L551.257 318.758C551.257 317.58 550.842 316.401 549.943 315.569C549.112 314.737 547.936 314.251 546.759 314.182L441.219 313.211Z" fill="black"/>
<path d="M534.58 344.206L450.84 343.444L534.58 344.206Z" fill="white"/>
<path d="M534.579 345.246L450.839 344.484C450.285 344.484 449.801 343.998 449.801 343.444C449.801 342.889 450.285 342.403 450.839 342.403L534.579 343.166C535.132 343.166 535.617 343.652 535.617 344.206C535.617 344.83 535.132 345.246 534.579 345.246Z" fill="black"/>
<path d="M468.417 332.419L450.908 332.28L468.417 332.419Z" fill="white"/>
<path d="M468.416 333.459L450.907 333.32C450.354 333.32 449.869 332.835 449.869 332.28C449.869 331.725 450.354 331.24 450.907 331.24L468.416 331.378C468.97 331.378 469.455 331.864 469.455 332.419C469.455 333.043 468.97 333.459 468.416 333.459Z" fill="black"/>
<path d="M534.648 333.043L479.629 332.557L534.648 333.043Z" fill="white"/>
<path d="M534.648 334.083L479.56 333.597C479.006 333.597 478.521 333.112 478.521 332.557C478.521 332.002 479.006 331.517 479.56 331.517L534.579 332.002C535.133 332.002 535.617 332.488 535.617 333.043C535.686 333.597 535.202 334.083 534.648 334.083Z" fill="black"/>
<path d="M496.378 322.087C499.423 322.087 501.914 319.591 501.983 316.54L502.122 278.264C502.122 275.213 499.63 272.716 496.585 272.647L391.184 272.231C388.139 272.231 385.647 274.727 385.578 277.778L385.439 316.054C385.439 319.105 387.931 321.601 390.976 321.671L412.084 321.74L417.828 332.28L425.164 321.809L496.378 322.087Z" fill="white"/>
<path d="M417.827 333.32C417.412 333.32 417.135 333.112 416.928 332.765L411.183 322.78L390.975 322.711C387.307 322.711 384.4 319.729 384.4 316.054L384.539 277.778C384.539 274.173 387.515 271.191 391.113 271.191L496.515 271.607C500.183 271.607 503.09 274.589 503.09 278.264L502.951 316.54C502.951 318.273 502.259 319.937 501.014 321.185C499.768 322.433 498.107 323.127 496.377 323.127L426.34 322.85L418.658 332.904C418.45 333.181 418.173 333.32 417.827 333.32ZM391.183 273.271C388.691 273.271 386.684 275.282 386.684 277.778L386.546 316.054C386.546 318.55 388.553 320.561 391.044 320.631L411.806 320.7C412.152 320.7 412.498 320.908 412.706 321.255L417.966 330.408L424.955 321.185C425.163 320.908 425.509 320.769 425.786 320.769L496.377 321.047C497.553 321.047 498.73 320.561 499.56 319.729C500.391 318.897 500.875 317.718 500.875 316.54L501.014 278.264C501.014 275.767 499.007 273.757 496.515 273.687L391.183 273.271Z" fill="black"/>
<path d="M402.877 303.504L486.617 303.85L402.877 303.504Z" fill="white"/>
<path d="M486.618 304.89L402.878 304.544C402.324 304.544 401.84 304.058 401.84 303.503C401.84 302.949 402.324 302.463 402.878 302.463L486.618 302.81C487.172 302.81 487.656 303.295 487.656 303.85C487.656 304.405 487.172 304.89 486.618 304.89Z" fill="black"/>
<path d="M469.18 292.548L486.689 292.617L469.18 292.548Z" fill="white"/>
<path d="M486.688 293.657L469.179 293.588C468.625 293.588 468.141 293.103 468.141 292.548C468.141 291.993 468.625 291.508 469.179 291.508L486.688 291.577C487.242 291.577 487.726 292.062 487.726 292.617C487.726 293.172 487.242 293.657 486.688 293.657Z" fill="black"/>
<path d="M402.949 292.271L457.969 292.479L402.949 292.271Z" fill="white"/>
<path d="M457.968 293.519L402.948 293.311C402.395 293.311 401.91 292.825 401.91 292.27C401.91 291.716 402.395 291.23 402.948 291.23L457.968 291.438C458.521 291.438 459.006 291.924 459.006 292.478C459.006 293.103 458.521 293.519 457.968 293.519Z" fill="black"/>
<defs>
<linearGradient id="paint0_linear_1089_2624" x1="287.001" y1="0" x2="287.001" y2="572.735" gradientUnits="userSpaceOnUse">
<stop stop-color="#40C4FF"/>
<stop offset="1" stop-color="#0D47DE"/>
</linearGradient>
<linearGradient id="paint1_linear_1089_2624" x1="67.6083" y1="177.659" x2="67.6083" y2="225.557" gradientUnits="userSpaceOnUse">
<stop stop-color="#006EFF"/>
<stop offset="1" stop-color="#0034BB"/>
</linearGradient>
<linearGradient id="paint2_linear_1089_2624" x1="169.209" y1="20.7759" x2="169.209" y2="63.8237" gradientUnits="userSpaceOnUse">
<stop stop-color="#006EFF"/>
<stop offset="1" stop-color="#0034BB"/>
</linearGradient>
<linearGradient id="paint3_linear_1089_2624" x1="88.7489" y1="65.4133" x2="88.7489" y2="143.985" gradientUnits="userSpaceOnUse">
<stop stop-color="#006EFF"/>
<stop offset="1" stop-color="#0034BB"/>
</linearGradient>
<linearGradient id="paint4_linear_1089_2624" x1="165.582" y1="377.42" x2="165.582" y2="546.195" gradientUnits="userSpaceOnUse">
<stop stop-color="#006EFF"/>
<stop offset="1" stop-color="#0034BB"/>
</linearGradient>
<linearGradient id="paint5_linear_1089_2624" x1="178.44" y1="446.137" x2="178.44" y2="534.835" gradientUnits="userSpaceOnUse">
<stop stop-color="#006EFF"/>
<stop offset="1" stop-color="#0034BB"/>
</linearGradient>
<linearGradient id="paint6_linear_1089_2624" x1="128.782" y1="381.226" x2="128.782" y2="415.024" gradientUnits="userSpaceOnUse">
<stop stop-color="#006EFF"/>
<stop offset="1" stop-color="#0034BB"/>
</linearGradient>
<linearGradient id="paint7_linear_1089_2624" x1="432.723" y1="46.5417" x2="432.723" y2="222.292" gradientUnits="userSpaceOnUse">
<stop stop-color="#006EFF"/>
<stop offset="1" stop-color="#0034BB"/>
</linearGradient>
</defs>
</svg>
